<?xml version="1.0" encoding="UTF-8"?>
<svg xmlns="http://www.w3.org/2000/svg" xmlns:xlink="http://www.w3.org/1999/xlink" width="1920" height="1080" viewBox="0 0 1920 1080">
<defs>
<g>
<g id="glyph-0-0">
<path d="M 1.484375 -0.859375 C 1.429688 -0.921875 1.375 -1.019531 1.3125 -1.15625 L 1.421875 -1.15625 C 1.546875 -1 1.679688 -0.882812 1.828125 -0.8125 L 1.828125 -0.765625 C 1.679688 -0.691406 1.546875 -0.582031 1.421875 -0.4375 L 1.3125 -0.4375 C 1.375 -0.5625 1.429688 -0.660156 1.484375 -0.734375 L 0.015625 -0.734375 L 0.015625 -0.859375 Z "/>
</g>
<g id="glyph-0-1">
</g>
<g id="glyph-0-2">
<path d="M 1.0625 -1.78125 L 1.0625 0 L 0.78125 0 L 0.78125 -1.78125 L 0.109375 -1.78125 L 0.109375 -2.015625 L 1.71875 -2.015625 L 1.71875 -1.78125 Z "/>
</g>
<g id="glyph-0-3">
<path d="M 1.6875 -1.015625 C 1.6875 -0.679688 1.617188 -0.421875 1.484375 -0.234375 C 1.347656 -0.0546875 1.160156 0.03125 0.921875 0.03125 C 0.671875 0.03125 0.476562 -0.0546875 0.34375 -0.234375 C 0.21875 -0.410156 0.15625 -0.671875 0.15625 -1.015625 C 0.15625 -1.347656 0.21875 -1.601562 0.34375 -1.78125 C 0.476562 -1.957031 0.671875 -2.046875 0.921875 -2.046875 C 1.160156 -2.046875 1.347656 -1.957031 1.484375 -1.78125 C 1.617188 -1.613281 1.6875 -1.359375 1.6875 -1.015625 Z M 1.390625 -1.015625 C 1.390625 -1.546875 1.234375 -1.8125 0.921875 -1.8125 C 0.609375 -1.8125 0.453125 -1.546875 0.453125 -1.015625 C 0.453125 -0.742188 0.488281 -0.539062 0.5625 -0.40625 C 0.644531 -0.269531 0.765625 -0.203125 0.921875 -0.203125 C 1.078125 -0.203125 1.191406 -0.269531 1.265625 -0.40625 C 1.347656 -0.550781 1.390625 -0.753906 1.390625 -1.015625 Z "/>
</g>
<g id="glyph-0-4">
<path d="M 0.359375 0 L 0.359375 -2.015625 L 0.640625 -2.015625 L 0.640625 -0.234375 L 1.640625 -0.234375 L 1.640625 0 Z "/>
</g>
<g id="glyph-0-5">
<path d="M 1.546875 0 L 1.34375 -0.578125 L 0.5 -0.578125 L 0.296875 0 L 0 0 L 0.765625 -2.015625 L 1.09375 -2.015625 L 1.84375 0 Z M 0.921875 -1.796875 L 0.796875 -1.421875 L 0.578125 -0.796875 L 1.265625 -0.796875 L 1.015625 -1.546875 Z "/>
</g>
<g id="glyph-0-6">
<path d="M 1.6875 -0.546875 C 1.6875 -0.367188 1.617188 -0.226562 1.484375 -0.125 C 1.347656 -0.0195312 1.15625 0.03125 0.90625 0.03125 C 0.457031 0.03125 0.195312 -0.144531 0.125 -0.5 L 0.390625 -0.5625 C 0.421875 -0.4375 0.476562 -0.34375 0.5625 -0.28125 C 0.65625 -0.21875 0.773438 -0.1875 0.921875 -0.1875 C 1.078125 -0.1875 1.195312 -0.21875 1.28125 -0.28125 C 1.363281 -0.34375 1.40625 -0.429688 1.40625 -0.546875 C 1.40625 -0.617188 1.390625 -0.675781 1.359375 -0.71875 C 1.328125 -0.757812 1.285156 -0.796875 1.234375 -0.828125 C 1.179688 -0.859375 1.117188 -0.878906 1.046875 -0.890625 C 0.984375 -0.910156 0.914062 -0.929688 0.84375 -0.953125 C 0.6875 -0.992188 0.570312 -1.03125 0.5 -1.0625 C 0.4375 -1.09375 0.382812 -1.128906 0.34375 -1.171875 C 0.300781 -1.210938 0.269531 -1.257812 0.25 -1.3125 C 0.226562 -1.375 0.21875 -1.441406 0.21875 -1.515625 C 0.21875 -1.679688 0.273438 -1.8125 0.390625 -1.90625 C 0.515625 -2 0.691406 -2.046875 0.921875 -2.046875 C 1.128906 -2.046875 1.289062 -2.007812 1.40625 -1.9375 C 1.519531 -1.863281 1.597656 -1.738281 1.640625 -1.5625 L 1.359375 -1.515625 C 1.335938 -1.628906 1.289062 -1.707031 1.21875 -1.75 C 1.144531 -1.800781 1.046875 -1.828125 0.921875 -1.828125 C 0.640625 -1.828125 0.5 -1.722656 0.5 -1.515625 C 0.5 -1.453125 0.507812 -1.398438 0.53125 -1.359375 C 0.5625 -1.328125 0.597656 -1.296875 0.640625 -1.265625 C 0.679688 -1.242188 0.734375 -1.222656 0.796875 -1.203125 C 0.859375 -1.191406 0.925781 -1.179688 1 -1.171875 C 1.132812 -1.128906 1.234375 -1.097656 1.296875 -1.078125 C 1.359375 -1.054688 1.410156 -1.03125 1.453125 -1 C 1.503906 -0.96875 1.546875 -0.929688 1.578125 -0.890625 C 1.609375 -0.847656 1.632812 -0.800781 1.65625 -0.75 C 1.675781 -0.695312 1.6875 -0.628906 1.6875 -0.546875 Z "/>
</g>
<g id="glyph-0-7">
<path d="M 0.25 0 L 0.25 -2.015625 L 1.609375 -2.015625 L 1.609375 -1.78125 L 0.53125 -1.78125 L 0.53125 -1.15625 L 1.53125 -1.15625 L 1.53125 -0.921875 L 0.53125 -0.921875 L 0.53125 -0.234375 L 1.671875 -0.234375 L 1.671875 0 Z "/>
</g>
<g id="glyph-0-8">
<path d="M 1.4375 0 L 0.890625 -0.859375 L 0.53125 -0.859375 L 0.53125 0 L 0.25 0 L 0.25 -2.015625 L 0.96875 -2.015625 C 1.195312 -2.015625 1.367188 -1.96875 1.484375 -1.875 C 1.609375 -1.78125 1.671875 -1.640625 1.671875 -1.453125 C 1.671875 -1.304688 1.625 -1.179688 1.53125 -1.078125 C 1.4375 -0.984375 1.3125 -0.921875 1.15625 -0.890625 L 1.765625 0 Z M 1.390625 -1.453125 C 1.390625 -1.671875 1.238281 -1.78125 0.9375 -1.78125 L 0.53125 -1.78125 L 0.53125 -1.078125 L 0.953125 -1.078125 C 1.085938 -1.078125 1.191406 -1.109375 1.265625 -1.171875 C 1.347656 -1.242188 1.390625 -1.335938 1.390625 -1.453125 Z "/>
</g>
</g>
</defs>
<g fill="rgb(100%, 0%, 20%)" fill-opacity="1">
<use xlink:href="#glyph-0-0" x="30" y="22.543945"/>
<use xlink:href="#glyph-0-1" x="32" y="22.543945"/>
<use xlink:href="#glyph-0-2" x="34" y="22.543945"/>
<use xlink:href="#glyph-0-3" x="36" y="22.543945"/>
<use xlink:href="#glyph-0-1" x="38" y="22.543945"/>
<use xlink:href="#glyph-0-4" x="40" y="22.543945"/>
<use xlink:href="#glyph-0-5" x="42" y="22.543945"/>
<use xlink:href="#glyph-0-6" x="44" y="22.543945"/>
<use xlink:href="#glyph-0-7" x="46" y="22.543945"/>
<use xlink:href="#glyph-0-8" x="48" y="22.543945"/>
</g>
</svg>
