<?xml version="1.0" encoding="UTF-8"?>
<svg xmlns="http://www.w3.org/2000/svg" xmlns:xlink="http://www.w3.org/1999/xlink" width="1920" height="1080" viewBox="0 0 1920 1080">
<defs>
<g>
<g id="glyph-0-0">
<path d="M 1.34375 -0.4375 C 1.34375 -0.289062 1.285156 -0.175781 1.171875 -0.09375 C 1.066406 -0.0078125 0.914062 0.03125 0.71875 0.03125 C 0.363281 0.03125 0.15625 -0.113281 0.09375 -0.40625 L 0.3125 -0.453125 C 0.332031 -0.347656 0.378906 -0.269531 0.453125 -0.21875 C 0.523438 -0.175781 0.617188 -0.15625 0.734375 -0.15625 C 0.859375 -0.15625 0.953125 -0.175781 1.015625 -0.21875 C 1.085938 -0.269531 1.125 -0.34375 1.125 -0.4375 C 1.125 -0.488281 1.109375 -0.53125 1.078125 -0.5625 C 1.054688 -0.601562 1.023438 -0.632812 0.984375 -0.65625 C 0.941406 -0.675781 0.890625 -0.691406 0.828125 -0.703125 C 0.773438 -0.722656 0.722656 -0.738281 0.671875 -0.75 C 0.546875 -0.78125 0.453125 -0.804688 0.390625 -0.828125 C 0.335938 -0.859375 0.296875 -0.890625 0.265625 -0.921875 C 0.234375 -0.960938 0.207031 -1.003906 0.1875 -1.046875 C 0.175781 -1.085938 0.171875 -1.140625 0.171875 -1.203125 C 0.171875 -1.335938 0.21875 -1.441406 0.3125 -1.515625 C 0.414062 -1.585938 0.554688 -1.625 0.734375 -1.625 C 0.898438 -1.625 1.023438 -1.59375 1.109375 -1.53125 C 1.203125 -1.476562 1.265625 -1.382812 1.296875 -1.25 L 1.078125 -1.203125 C 1.054688 -1.296875 1.015625 -1.359375 0.953125 -1.390625 C 0.898438 -1.429688 0.828125 -1.453125 0.734375 -1.453125 C 0.503906 -1.453125 0.390625 -1.367188 0.390625 -1.203125 C 0.390625 -1.160156 0.398438 -1.125 0.421875 -1.09375 C 0.441406 -1.0625 0.46875 -1.035156 0.5 -1.015625 C 0.539062 -0.992188 0.582031 -0.976562 0.625 -0.96875 C 0.675781 -0.957031 0.734375 -0.941406 0.796875 -0.921875 C 0.898438 -0.898438 0.976562 -0.878906 1.03125 -0.859375 C 1.082031 -0.835938 1.125 -0.816406 1.15625 -0.796875 C 1.195312 -0.773438 1.226562 -0.742188 1.25 -0.703125 C 1.28125 -0.671875 1.300781 -0.632812 1.3125 -0.59375 C 1.332031 -0.550781 1.34375 -0.5 1.34375 -0.4375 Z "/>
</g>
<g id="glyph-0-1">
<path d="M 1.3125 -0.640625 C 1.3125 -0.421875 1.257812 -0.253906 1.15625 -0.140625 C 1.050781 -0.0234375 0.90625 0.03125 0.71875 0.03125 C 0.539062 0.03125 0.398438 -0.0234375 0.296875 -0.140625 C 0.203125 -0.265625 0.15625 -0.429688 0.15625 -0.640625 C 0.15625 -0.867188 0.203125 -1.035156 0.296875 -1.140625 C 0.398438 -1.253906 0.546875 -1.3125 0.734375 -1.3125 C 0.921875 -1.3125 1.0625 -1.253906 1.15625 -1.140625 C 1.257812 -1.035156 1.3125 -0.867188 1.3125 -0.640625 Z M 1.078125 -0.640625 C 1.078125 -0.816406 1.050781 -0.945312 1 -1.03125 C 0.945312 -1.113281 0.859375 -1.15625 0.734375 -1.15625 C 0.609375 -1.15625 0.515625 -1.109375 0.453125 -1.015625 C 0.398438 -0.929688 0.375 -0.804688 0.375 -0.640625 C 0.375 -0.472656 0.398438 -0.347656 0.453125 -0.265625 C 0.515625 -0.179688 0.601562 -0.140625 0.71875 -0.140625 C 0.84375 -0.140625 0.929688 -0.179688 0.984375 -0.265625 C 1.046875 -0.347656 1.078125 -0.472656 1.078125 -0.640625 Z "/>
</g>
<g id="glyph-0-2">
<path d="M 0.4375 -1.28125 L 0.4375 -0.46875 C 0.4375 -0.34375 0.453125 -0.253906 0.484375 -0.203125 C 0.523438 -0.160156 0.597656 -0.140625 0.703125 -0.140625 C 0.804688 -0.140625 0.882812 -0.171875 0.9375 -0.234375 C 1 -0.304688 1.03125 -0.410156 1.03125 -0.546875 L 1.03125 -1.28125 L 1.25 -1.28125 L 1.25 -0.28125 C 1.25 -0.125 1.25 -0.03125 1.25 0 L 1.046875 0 C 1.046875 0 1.046875 -0.0078125 1.046875 -0.03125 C 1.046875 -0.0507812 1.046875 -0.0703125 1.046875 -0.09375 C 1.046875 -0.113281 1.046875 -0.15625 1.046875 -0.21875 C 0.992188 -0.132812 0.929688 -0.0703125 0.859375 -0.03125 C 0.796875 0.0078125 0.71875 0.03125 0.625 0.03125 C 0.488281 0.03125 0.382812 -0.00390625 0.3125 -0.078125 C 0.25 -0.148438 0.21875 -0.265625 0.21875 -0.421875 L 0.21875 -1.28125 Z "/>
</g>
<g id="glyph-0-3">
<path d="M 1.03125 0 L 1.03125 -0.828125 C 1.03125 -0.929688 1.007812 -1.007812 0.96875 -1.0625 C 0.925781 -1.113281 0.859375 -1.140625 0.765625 -1.140625 C 0.671875 -1.140625 0.59375 -1.101562 0.53125 -1.03125 C 0.46875 -0.96875 0.4375 -0.875 0.4375 -0.75 L 0.4375 0 L 0.21875 0 L 0.21875 -1.015625 C 0.21875 -1.160156 0.21875 -1.25 0.21875 -1.28125 L 0.421875 -1.28125 C 0.421875 -1.28125 0.421875 -1.269531 0.421875 -1.25 C 0.421875 -1.238281 0.421875 -1.21875 0.421875 -1.1875 C 0.421875 -1.164062 0.421875 -1.125 0.421875 -1.0625 C 0.503906 -1.226562 0.644531 -1.3125 0.84375 -1.3125 C 0.976562 -1.3125 1.078125 -1.273438 1.140625 -1.203125 C 1.210938 -1.128906 1.25 -1.015625 1.25 -0.859375 L 1.25 0 Z "/>
</g>
<g id="glyph-0-4">
<path d="M 1.03125 -0.203125 C 0.988281 -0.117188 0.9375 -0.0546875 0.875 -0.015625 C 0.8125 0.015625 0.726562 0.03125 0.625 0.03125 C 0.46875 0.03125 0.351562 -0.0195312 0.28125 -0.125 C 0.207031 -0.238281 0.171875 -0.410156 0.171875 -0.640625 C 0.171875 -1.085938 0.320312 -1.3125 0.625 -1.3125 C 0.726562 -1.3125 0.8125 -1.289062 0.875 -1.25 C 0.9375 -1.21875 0.988281 -1.164062 1.03125 -1.09375 L 1.03125 -1.765625 L 1.234375 -1.765625 L 1.234375 -0.265625 C 1.234375 -0.128906 1.238281 -0.0390625 1.25 0 L 1.046875 0 C 1.035156 -0.0078125 1.03125 -0.0351562 1.03125 -0.078125 C 1.03125 -0.128906 1.03125 -0.171875 1.03125 -0.203125 Z M 0.390625 -0.640625 C 0.390625 -0.460938 0.410156 -0.332031 0.453125 -0.25 C 0.503906 -0.175781 0.582031 -0.140625 0.6875 -0.140625 C 0.800781 -0.140625 0.882812 -0.179688 0.9375 -0.265625 C 1 -0.347656 1.03125 -0.476562 1.03125 -0.65625 C 1.03125 -0.832031 1 -0.957031 0.9375 -1.03125 C 0.882812 -1.113281 0.800781 -1.15625 0.6875 -1.15625 C 0.582031 -1.15625 0.503906 -1.113281 0.453125 -1.03125 C 0.410156 -0.945312 0.390625 -0.816406 0.390625 -0.640625 Z "/>
</g>
<g id="glyph-0-5">
</g>
<g id="glyph-0-6">
<path d="M 0.84375 0 L 0.59375 0 L 0.078125 -1.28125 L 0.328125 -1.28125 L 0.640625 -0.453125 L 0.65625 -0.390625 L 0.71875 -0.171875 L 0.8125 -0.453125 L 1.140625 -1.28125 L 1.375 -1.28125 Z "/>
</g>
<g id="glyph-0-7">
<path d="M 0.890625 -0.171875 L 1.34375 -0.171875 L 1.34375 0 L 0.171875 0 L 0.171875 -0.171875 L 0.671875 -0.171875 L 0.671875 -1.125 L 0.296875 -1.125 L 0.296875 -1.28125 L 0.890625 -1.28125 Z M 0.65625 -1.53125 L 0.65625 -1.765625 L 0.890625 -1.765625 L 0.890625 -1.53125 Z "/>
</g>
<g id="glyph-0-8">
<path d="M 1.296875 -0.65625 C 1.296875 -0.425781 1.253906 -0.253906 1.171875 -0.140625 C 1.097656 -0.0234375 0.984375 0.03125 0.828125 0.03125 C 0.640625 0.03125 0.507812 -0.0390625 0.4375 -0.1875 C 0.4375 -0.15625 0.429688 -0.117188 0.421875 -0.078125 C 0.421875 -0.0351562 0.421875 -0.0078125 0.421875 0 L 0.21875 0 C 0.21875 -0.0390625 0.21875 -0.128906 0.21875 -0.265625 L 0.21875 -1.765625 L 0.4375 -1.765625 L 0.4375 -1.265625 C 0.4375 -1.210938 0.429688 -1.148438 0.421875 -1.078125 L 0.4375 -1.078125 C 0.507812 -1.234375 0.640625 -1.3125 0.828125 -1.3125 C 1.140625 -1.3125 1.296875 -1.09375 1.296875 -0.65625 Z M 1.078125 -0.640625 C 1.078125 -0.816406 1.050781 -0.945312 1 -1.03125 C 0.945312 -1.113281 0.875 -1.15625 0.78125 -1.15625 C 0.65625 -1.15625 0.566406 -1.109375 0.515625 -1.015625 C 0.460938 -0.929688 0.4375 -0.800781 0.4375 -0.625 C 0.4375 -0.457031 0.460938 -0.332031 0.515625 -0.25 C 0.566406 -0.175781 0.648438 -0.140625 0.765625 -0.140625 C 0.878906 -0.140625 0.957031 -0.179688 1 -0.265625 C 1.050781 -0.347656 1.078125 -0.472656 1.078125 -0.640625 Z "/>
</g>
<g id="glyph-0-9">
<path d="M 1.25 -1.09375 C 1.15625 -1.101562 1.066406 -1.109375 0.984375 -1.109375 C 0.859375 -1.109375 0.753906 -1.0625 0.671875 -0.96875 C 0.597656 -0.875 0.5625 -0.753906 0.5625 -0.609375 L 0.5625 0 L 0.34375 0 L 0.34375 -0.828125 C 0.34375 -0.890625 0.335938 -0.960938 0.328125 -1.046875 C 0.316406 -1.128906 0.300781 -1.207031 0.28125 -1.28125 L 0.484375 -1.28125 C 0.523438 -1.175781 0.546875 -1.078125 0.546875 -0.984375 C 0.585938 -1.078125 0.628906 -1.144531 0.671875 -1.1875 C 0.710938 -1.226562 0.757812 -1.257812 0.8125 -1.28125 C 0.863281 -1.300781 0.925781 -1.3125 1 -1.3125 C 1.082031 -1.3125 1.164062 -1.304688 1.25 -1.296875 Z "/>
</g>
<g id="glyph-0-10">
<path d="M 1.3125 -0.125 C 1.332031 -0.125 1.351562 -0.128906 1.375 -0.140625 L 1.375 0 C 1.320312 0.0078125 1.269531 0.015625 1.21875 0.015625 C 1.132812 0.015625 1.070312 -0.00390625 1.03125 -0.046875 C 1 -0.0859375 0.984375 -0.15625 0.984375 -0.25 L 0.96875 -0.25 C 0.914062 -0.15625 0.851562 -0.0820312 0.78125 -0.03125 C 0.71875 0.0078125 0.632812 0.03125 0.53125 0.03125 C 0.40625 0.03125 0.3125 -0.00390625 0.25 -0.078125 C 0.1875 -0.148438 0.15625 -0.242188 0.15625 -0.359375 C 0.15625 -0.640625 0.332031 -0.78125 0.6875 -0.78125 L 0.96875 -0.78125 L 0.96875 -0.859375 C 0.96875 -0.960938 0.945312 -1.035156 0.90625 -1.078125 C 0.863281 -1.128906 0.796875 -1.15625 0.703125 -1.15625 C 0.609375 -1.15625 0.539062 -1.132812 0.5 -1.09375 C 0.457031 -1.0625 0.4375 -1.007812 0.4375 -0.9375 L 0.203125 -0.96875 C 0.242188 -1.195312 0.414062 -1.3125 0.71875 -1.3125 C 0.875 -1.3125 0.988281 -1.273438 1.0625 -1.203125 C 1.144531 -1.128906 1.1875 -1.019531 1.1875 -0.875 L 1.1875 -0.328125 C 1.1875 -0.265625 1.191406 -0.210938 1.203125 -0.171875 C 1.222656 -0.140625 1.257812 -0.125 1.3125 -0.125 Z M 0.578125 -0.140625 C 0.660156 -0.140625 0.726562 -0.15625 0.78125 -0.1875 C 0.84375 -0.226562 0.890625 -0.28125 0.921875 -0.34375 C 0.953125 -0.40625 0.96875 -0.46875 0.96875 -0.53125 L 0.96875 -0.640625 L 0.75 -0.625 C 0.65625 -0.625 0.582031 -0.613281 0.53125 -0.59375 C 0.476562 -0.582031 0.4375 -0.554688 0.40625 -0.515625 C 0.382812 -0.472656 0.375 -0.421875 0.375 -0.359375 C 0.375 -0.296875 0.390625 -0.242188 0.421875 -0.203125 C 0.460938 -0.160156 0.515625 -0.140625 0.578125 -0.140625 Z "/>
</g>
<g id="glyph-0-11">
<path d="M 0.21875 -1.125 L 0.21875 -1.28125 L 0.421875 -1.28125 L 0.5 -1.625 L 0.640625 -1.625 L 0.640625 -1.28125 L 1.15625 -1.28125 L 1.15625 -1.125 L 0.640625 -1.125 L 0.640625 -0.34375 C 0.640625 -0.28125 0.65625 -0.234375 0.6875 -0.203125 C 0.71875 -0.171875 0.773438 -0.15625 0.859375 -0.15625 C 0.960938 -0.15625 1.078125 -0.171875 1.203125 -0.203125 L 1.203125 -0.03125 C 1.078125 0 0.945312 0.015625 0.8125 0.015625 C 0.6875 0.015625 0.585938 -0.0078125 0.515625 -0.0625 C 0.453125 -0.113281 0.421875 -0.195312 0.421875 -0.3125 L 0.421875 -1.125 Z "/>
</g>
<g id="glyph-0-12">
<path d="M 0.390625 -0.59375 C 0.390625 -0.445312 0.421875 -0.332031 0.484375 -0.25 C 0.546875 -0.175781 0.628906 -0.140625 0.734375 -0.140625 C 0.816406 -0.140625 0.890625 -0.15625 0.953125 -0.1875 C 1.015625 -0.226562 1.054688 -0.273438 1.078125 -0.328125 L 1.265625 -0.28125 C 1.234375 -0.1875 1.171875 -0.109375 1.078125 -0.046875 C 0.984375 0.00390625 0.867188 0.03125 0.734375 0.03125 C 0.546875 0.03125 0.398438 -0.0234375 0.296875 -0.140625 C 0.203125 -0.265625 0.15625 -0.4375 0.15625 -0.65625 C 0.15625 -0.863281 0.203125 -1.023438 0.296875 -1.140625 C 0.398438 -1.253906 0.546875 -1.3125 0.734375 -1.3125 C 0.921875 -1.3125 1.0625 -1.253906 1.15625 -1.140625 C 1.25 -1.023438 1.296875 -0.851562 1.296875 -0.625 L 1.296875 -0.59375 Z M 0.734375 -1.15625 C 0.628906 -1.15625 0.546875 -1.117188 0.484375 -1.046875 C 0.421875 -0.972656 0.390625 -0.878906 0.390625 -0.765625 L 1.078125 -0.765625 C 1.054688 -1.023438 0.941406 -1.15625 0.734375 -1.15625 Z "/>
</g>
<g id="glyph-0-13">
<path d="M 1.265625 -0.375 C 1.265625 -0.25 1.21875 -0.148438 1.125 -0.078125 C 1.03125 -0.00390625 0.898438 0.03125 0.734375 0.03125 C 0.578125 0.03125 0.453125 0.00390625 0.359375 -0.046875 C 0.273438 -0.0976562 0.222656 -0.179688 0.203125 -0.296875 L 0.390625 -0.328125 C 0.398438 -0.265625 0.429688 -0.21875 0.484375 -0.1875 C 0.535156 -0.15625 0.617188 -0.140625 0.734375 -0.140625 C 0.953125 -0.140625 1.0625 -0.207031 1.0625 -0.34375 C 1.0625 -0.394531 1.039062 -0.4375 1 -0.46875 C 0.957031 -0.5 0.898438 -0.523438 0.828125 -0.546875 C 0.617188 -0.585938 0.484375 -0.625 0.421875 -0.65625 C 0.367188 -0.6875 0.328125 -0.722656 0.296875 -0.765625 C 0.265625 -0.816406 0.25 -0.875 0.25 -0.9375 C 0.25 -1.050781 0.289062 -1.140625 0.375 -1.203125 C 0.457031 -1.273438 0.578125 -1.3125 0.734375 -1.3125 C 0.878906 -1.3125 0.992188 -1.285156 1.078125 -1.234375 C 1.160156 -1.179688 1.210938 -1.101562 1.234375 -1 L 1.03125 -0.96875 C 1.03125 -1.03125 1.003906 -1.078125 0.953125 -1.109375 C 0.910156 -1.140625 0.835938 -1.15625 0.734375 -1.15625 C 0.546875 -1.15625 0.453125 -1.09375 0.453125 -0.96875 C 0.453125 -0.914062 0.46875 -0.875 0.5 -0.84375 C 0.53125 -0.820312 0.582031 -0.800781 0.65625 -0.78125 L 0.796875 -0.75 C 0.929688 -0.71875 1.023438 -0.6875 1.078125 -0.65625 C 1.128906 -0.625 1.171875 -0.582031 1.203125 -0.53125 C 1.242188 -0.488281 1.265625 -0.4375 1.265625 -0.375 Z "/>
</g>
<g id="glyph-0-14">
<path d="M 0.734375 0.5 C 0.597656 0.5 0.488281 0.472656 0.40625 0.421875 C 0.332031 0.367188 0.28125 0.289062 0.25 0.1875 L 0.46875 0.15625 C 0.488281 0.21875 0.519531 0.265625 0.5625 0.296875 C 0.601562 0.328125 0.660156 0.34375 0.734375 0.34375 C 0.929688 0.34375 1.03125 0.21875 1.03125 -0.03125 L 1.03125 -0.265625 C 0.988281 -0.179688 0.929688 -0.117188 0.859375 -0.078125 C 0.796875 -0.0351562 0.71875 -0.015625 0.625 -0.015625 C 0.46875 -0.015625 0.351562 -0.0664062 0.28125 -0.171875 C 0.207031 -0.273438 0.171875 -0.4375 0.171875 -0.65625 C 0.171875 -0.875 0.207031 -1.035156 0.28125 -1.140625 C 0.363281 -1.253906 0.484375 -1.3125 0.640625 -1.3125 C 0.734375 -1.3125 0.8125 -1.289062 0.875 -1.25 C 0.945312 -1.207031 1 -1.144531 1.03125 -1.0625 C 1.03125 -1.09375 1.03125 -1.132812 1.03125 -1.1875 C 1.039062 -1.25 1.046875 -1.28125 1.046875 -1.28125 L 1.25 -1.28125 C 1.25 -1.238281 1.25 -1.148438 1.25 -1.015625 L 1.25 -0.03125 C 1.25 0.144531 1.207031 0.273438 1.125 0.359375 C 1.039062 0.453125 0.910156 0.5 0.734375 0.5 Z M 1.03125 -0.65625 C 1.03125 -0.8125 1 -0.929688 0.9375 -1.015625 C 0.882812 -1.109375 0.804688 -1.15625 0.703125 -1.15625 C 0.585938 -1.15625 0.503906 -1.113281 0.453125 -1.03125 C 0.410156 -0.957031 0.390625 -0.832031 0.390625 -0.65625 C 0.390625 -0.53125 0.398438 -0.429688 0.421875 -0.359375 C 0.441406 -0.296875 0.472656 -0.25 0.515625 -0.21875 C 0.554688 -0.1875 0.617188 -0.171875 0.703125 -0.171875 C 0.765625 -0.171875 0.820312 -0.1875 0.875 -0.21875 C 0.925781 -0.257812 0.960938 -0.316406 0.984375 -0.390625 C 1.015625 -0.460938 1.03125 -0.550781 1.03125 -0.65625 Z "/>
</g>
<g id="glyph-0-15">
<path d="M 0.875 -0.171875 L 1.328125 -0.171875 L 1.328125 0 L 0.15625 0 L 0.15625 -0.171875 L 0.65625 -0.171875 L 0.65625 -1.59375 L 0.3125 -1.59375 L 0.3125 -1.765625 L 0.875 -1.765625 Z "/>
</g>
<g id="glyph-0-16">
<path d="M 1.1875 -0.6875 C 1.144531 -0.738281 1.097656 -0.816406 1.046875 -0.921875 L 1.125 -0.921875 C 1.226562 -0.796875 1.335938 -0.707031 1.453125 -0.65625 L 1.453125 -0.609375 C 1.335938 -0.546875 1.226562 -0.457031 1.125 -0.34375 L 1.046875 -0.34375 C 1.097656 -0.445312 1.144531 -0.523438 1.1875 -0.578125 L 0.015625 -0.578125 L 0.015625 -0.6875 Z "/>
</g>
<g id="glyph-0-17">
<path d="M 1.3125 -0.15625 C 1.125 -0.03125 0.941406 0.03125 0.765625 0.03125 C 0.566406 0.03125 0.410156 -0.0390625 0.296875 -0.1875 C 0.191406 -0.34375 0.140625 -0.550781 0.140625 -0.8125 C 0.140625 -1.082031 0.191406 -1.285156 0.296875 -1.421875 C 0.398438 -1.554688 0.554688 -1.625 0.765625 -1.625 C 1.035156 -1.625 1.21875 -1.492188 1.3125 -1.234375 L 1.109375 -1.171875 C 1.046875 -1.347656 0.929688 -1.4375 0.765625 -1.4375 C 0.628906 -1.4375 0.53125 -1.382812 0.46875 -1.28125 C 0.40625 -1.1875 0.375 -1.03125 0.375 -0.8125 C 0.375 -0.375 0.507812 -0.15625 0.78125 -0.15625 C 0.832031 -0.15625 0.882812 -0.160156 0.9375 -0.171875 C 1 -0.191406 1.050781 -0.21875 1.09375 -0.25 L 1.09375 -0.65625 L 0.734375 -0.65625 L 0.734375 -0.84375 L 1.3125 -0.84375 Z "/>
</g>
<g id="glyph-0-18">
<path d="M 0.625 0 L 0.625 -0.8125 C 0.625 -0.9375 0.613281 -1.019531 0.59375 -1.0625 C 0.582031 -1.113281 0.550781 -1.140625 0.5 -1.140625 C 0.445312 -1.140625 0.40625 -1.101562 0.375 -1.03125 C 0.34375 -0.957031 0.328125 -0.851562 0.328125 -0.71875 L 0.328125 0 L 0.125 0 L 0.125 -1.015625 C 0.125 -1.160156 0.125 -1.25 0.125 -1.28125 L 0.296875 -1.28125 L 0.296875 -1.078125 L 0.3125 -1.078125 C 0.332031 -1.160156 0.363281 -1.21875 0.40625 -1.25 C 0.445312 -1.289062 0.5 -1.3125 0.5625 -1.3125 C 0.632812 -1.3125 0.6875 -1.289062 0.71875 -1.25 C 0.75 -1.21875 0.773438 -1.160156 0.796875 -1.078125 C 0.828125 -1.160156 0.863281 -1.21875 0.90625 -1.25 C 0.945312 -1.289062 1.003906 -1.3125 1.078125 -1.3125 C 1.171875 -1.3125 1.238281 -1.273438 1.28125 -1.203125 C 1.320312 -1.140625 1.34375 -1.023438 1.34375 -0.859375 L 1.34375 0 L 1.140625 0 L 1.140625 -0.8125 C 1.140625 -0.9375 1.128906 -1.019531 1.109375 -1.0625 C 1.085938 -1.113281 1.050781 -1.140625 1 -1.140625 C 0.945312 -1.140625 0.90625 -1.109375 0.875 -1.046875 C 0.84375 -0.984375 0.828125 -0.882812 0.828125 -0.75 L 0.828125 0 Z "/>
</g>
<g id="glyph-0-19">
<path d="M 1.328125 -1.125 C 1.328125 -1.019531 1.300781 -0.929688 1.25 -0.859375 C 1.207031 -0.785156 1.140625 -0.722656 1.046875 -0.671875 C 0.960938 -0.628906 0.863281 -0.609375 0.75 -0.609375 L 0.421875 -0.609375 L 0.421875 0 L 0.1875 0 L 0.1875 -1.609375 L 0.734375 -1.609375 C 0.929688 -1.609375 1.078125 -1.566406 1.171875 -1.484375 C 1.273438 -1.398438 1.328125 -1.28125 1.328125 -1.125 Z M 1.109375 -1.125 C 1.109375 -1.320312 0.976562 -1.421875 0.71875 -1.421875 L 0.421875 -1.421875 L 0.421875 -0.796875 L 0.71875 -0.796875 C 0.84375 -0.796875 0.9375 -0.820312 1 -0.875 C 1.070312 -0.9375 1.109375 -1.019531 1.109375 -1.125 Z "/>
</g>
<g id="glyph-0-20">
<path d="M 0.21875 -1.765625 L 0.4375 -1.765625 L 0.4375 -1.296875 C 0.4375 -1.253906 0.429688 -1.175781 0.421875 -1.0625 C 0.503906 -1.226562 0.640625 -1.3125 0.828125 -1.3125 C 1.109375 -1.3125 1.25 -1.160156 1.25 -0.859375 L 1.25 0 L 1.03125 0 L 1.03125 -0.828125 C 1.03125 -0.929688 1.007812 -1.007812 0.96875 -1.0625 C 0.925781 -1.113281 0.859375 -1.140625 0.765625 -1.140625 C 0.671875 -1.140625 0.59375 -1.101562 0.53125 -1.03125 C 0.46875 -0.96875 0.4375 -0.875 0.4375 -0.75 L 0.4375 0 L 0.21875 0 Z "/>
</g>
<g id="glyph-0-21">
<path d="M 0.15625 -0.640625 C 0.15625 -0.859375 0.207031 -1.023438 0.3125 -1.140625 C 0.414062 -1.253906 0.5625 -1.3125 0.75 -1.3125 C 0.894531 -1.3125 1.015625 -1.273438 1.109375 -1.203125 C 1.203125 -1.140625 1.257812 -1.046875 1.28125 -0.921875 L 1.046875 -0.90625 C 1.035156 -0.976562 1.003906 -1.035156 0.953125 -1.078125 C 0.910156 -1.117188 0.84375 -1.140625 0.75 -1.140625 C 0.613281 -1.140625 0.515625 -1.097656 0.453125 -1.015625 C 0.398438 -0.941406 0.375 -0.820312 0.375 -0.65625 C 0.375 -0.476562 0.398438 -0.347656 0.453125 -0.265625 C 0.515625 -0.179688 0.609375 -0.140625 0.734375 -0.140625 C 0.828125 -0.140625 0.898438 -0.160156 0.953125 -0.203125 C 1.003906 -0.242188 1.039062 -0.304688 1.0625 -0.390625 L 1.28125 -0.390625 C 1.269531 -0.304688 1.238281 -0.234375 1.1875 -0.171875 C 1.144531 -0.109375 1.082031 -0.0546875 1 -0.015625 C 0.925781 0.015625 0.84375 0.03125 0.75 0.03125 C 0.550781 0.03125 0.398438 -0.0234375 0.296875 -0.140625 C 0.203125 -0.253906 0.15625 -0.421875 0.15625 -0.640625 Z "/>
</g>
<g id="glyph-0-22">
<path d="M 1.234375 0 L 1.0625 -0.453125 L 0.390625 -0.453125 L 0.234375 0 L 0 0 L 0.609375 -1.609375 L 0.859375 -1.609375 L 1.46875 0 Z M 0.734375 -1.4375 L 0.71875 -1.390625 L 0.640625 -1.140625 L 0.453125 -0.625 L 1.015625 -0.625 L 0.796875 -1.234375 Z "/>
</g>
<g id="glyph-0-23">
<path d="M 1.296875 -0.65625 C 1.296875 -0.195312 1.140625 0.03125 0.828125 0.03125 C 0.628906 0.03125 0.5 -0.0390625 0.4375 -0.1875 C 0.4375 -0.1875 0.4375 -0.125 0.4375 0 L 0.4375 0.5 L 0.21875 0.5 L 0.21875 -1.015625 C 0.21875 -1.148438 0.21875 -1.238281 0.21875 -1.28125 L 0.421875 -1.28125 C 0.421875 -1.28125 0.421875 -1.269531 0.421875 -1.25 C 0.421875 -1.226562 0.421875 -1.195312 0.421875 -1.15625 C 0.429688 -1.125 0.4375 -1.097656 0.4375 -1.078125 C 0.476562 -1.160156 0.53125 -1.21875 0.59375 -1.25 C 0.65625 -1.289062 0.734375 -1.3125 0.828125 -1.3125 C 0.984375 -1.3125 1.097656 -1.253906 1.171875 -1.140625 C 1.253906 -1.035156 1.296875 -0.875 1.296875 -0.65625 Z M 1.078125 -0.65625 C 1.078125 -0.832031 1.050781 -0.957031 1 -1.03125 C 0.957031 -1.113281 0.882812 -1.15625 0.78125 -1.15625 C 0.65625 -1.15625 0.566406 -1.109375 0.515625 -1.015625 C 0.460938 -0.929688 0.4375 -0.800781 0.4375 -0.625 C 0.4375 -0.457031 0.460938 -0.332031 0.515625 -0.25 C 0.566406 -0.175781 0.648438 -0.140625 0.765625 -0.140625 C 0.878906 -0.140625 0.957031 -0.175781 1 -0.25 C 1.050781 -0.332031 1.078125 -0.46875 1.078125 -0.65625 Z "/>
</g>
</g>
</defs>
<g fill="rgb(0%, 100%, 80%)" fill-opacity="1">
<use xlink:href="#glyph-0-0" x="30" y="22.023438"/>
<use xlink:href="#glyph-0-1" x="31" y="22.023438"/>
<use xlink:href="#glyph-0-2" x="32" y="22.023438"/>
<use xlink:href="#glyph-0-3" x="33" y="22.023438"/>
<use xlink:href="#glyph-0-4" x="34" y="22.023438"/>
<use xlink:href="#glyph-0-5" x="35" y="22.023438"/>
<use xlink:href="#glyph-0-6" x="36" y="22.023438"/>
<use xlink:href="#glyph-0-7" x="37" y="22.023438"/>
<use xlink:href="#glyph-0-8" x="38" y="22.023438"/>
<use xlink:href="#glyph-0-9" x="39" y="22.023438"/>
<use xlink:href="#glyph-0-10" x="40" y="22.023438"/>
<use xlink:href="#glyph-0-11" x="41" y="22.023438"/>
<use xlink:href="#glyph-0-12" x="42" y="22.023438"/>
<use xlink:href="#glyph-0-13" x="43" y="22.023438"/>
<use xlink:href="#glyph-0-5" x="44" y="22.023438"/>
<use xlink:href="#glyph-0-14" x="45" y="22.023438"/>
<use xlink:href="#glyph-0-15" x="46" y="22.023438"/>
<use xlink:href="#glyph-0-10" x="47" y="22.023438"/>
<use xlink:href="#glyph-0-13" x="48" y="22.023438"/>
<use xlink:href="#glyph-0-13" x="49" y="22.023438"/>
</g>
<g fill="rgb(100%, 100%, 100%)" fill-opacity="1">
<use xlink:href="#glyph-0-5" x="50" y="22.023438"/>
<use xlink:href="#glyph-0-5" x="51" y="22.023438"/>
<use xlink:href="#glyph-0-16" x="52" y="22.023438"/>
<use xlink:href="#glyph-0-5" x="53" y="22.023438"/>
<use xlink:href="#glyph-0-5" x="54" y="22.023438"/>
<use xlink:href="#glyph-0-17" x="55" y="22.023438"/>
<use xlink:href="#glyph-0-15" x="56" y="22.023438"/>
<use xlink:href="#glyph-0-10" x="57" y="22.023438"/>
<use xlink:href="#glyph-0-13" x="58" y="22.023438"/>
<use xlink:href="#glyph-0-13" x="59" y="22.023438"/>
<use xlink:href="#glyph-0-5" x="60" y="22.023438"/>
</g>
<g fill="rgb(49.411765%, 84.705882%, 5.882353%)" fill-opacity="1">
<use xlink:href="#glyph-0-18" x="61" y="22.023438"/>
<use xlink:href="#glyph-0-1" x="62" y="22.023438"/>
<use xlink:href="#glyph-0-4" x="63" y="22.023438"/>
<use xlink:href="#glyph-0-2" x="64" y="22.023438"/>
<use xlink:href="#glyph-0-15" x="65" y="22.023438"/>
<use xlink:href="#glyph-0-10" x="66" y="22.023438"/>
<use xlink:href="#glyph-0-11" x="67" y="22.023438"/>
<use xlink:href="#glyph-0-12" x="68" y="22.023438"/>
<use xlink:href="#glyph-0-13" x="69" y="22.023438"/>
<use xlink:href="#glyph-0-5" x="70" y="22.023438"/>
<use xlink:href="#glyph-0-15" x="71" y="22.023438"/>
<use xlink:href="#glyph-0-10" x="72" y="22.023438"/>
<use xlink:href="#glyph-0-13" x="73" y="22.023438"/>
<use xlink:href="#glyph-0-12" x="74" y="22.023438"/>
<use xlink:href="#glyph-0-9" x="75" y="22.023438"/>
</g>
<g fill="rgb(100%, 100%, 100%)" fill-opacity="1">
<use xlink:href="#glyph-0-5" x="76" y="22.023438"/>
<use xlink:href="#glyph-0-5" x="77" y="22.023438"/>
<use xlink:href="#glyph-0-16" x="78" y="22.023438"/>
<use xlink:href="#glyph-0-5" x="79" y="22.023438"/>
<use xlink:href="#glyph-0-5" x="80" y="22.023438"/>
</g>
<g fill="rgb(100%, 84.313725%, 0%)" fill-opacity="1">
<use xlink:href="#glyph-0-19" x="81" y="22.023438"/>
<use xlink:href="#glyph-0-20" x="82" y="22.023438"/>
<use xlink:href="#glyph-0-1" x="83" y="22.023438"/>
<use xlink:href="#glyph-0-11" x="84" y="22.023438"/>
<use xlink:href="#glyph-0-1" x="85" y="22.023438"/>
<use xlink:href="#glyph-0-4" x="86" y="22.023438"/>
<use xlink:href="#glyph-0-7" x="87" y="22.023438"/>
<use xlink:href="#glyph-0-1" x="88" y="22.023438"/>
<use xlink:href="#glyph-0-4" x="89" y="22.023438"/>
<use xlink:href="#glyph-0-12" x="90" y="22.023438"/>
</g>
<g fill="rgb(100%, 100%, 100%)" fill-opacity="1">
<use xlink:href="#glyph-0-5" x="91" y="22.023438"/>
<use xlink:href="#glyph-0-21" x="92" y="22.023438"/>
<use xlink:href="#glyph-0-1" x="93" y="22.023438"/>
<use xlink:href="#glyph-0-3" x="94" y="22.023438"/>
<use xlink:href="#glyph-0-6" x="95" y="22.023438"/>
<use xlink:href="#glyph-0-12" x="96" y="22.023438"/>
<use xlink:href="#glyph-0-9" x="97" y="22.023438"/>
<use xlink:href="#glyph-0-11" x="98" y="22.023438"/>
<use xlink:href="#glyph-0-13" x="99" y="22.023438"/>
<use xlink:href="#glyph-0-5" x="100" y="22.023438"/>
<use xlink:href="#glyph-0-15" x="101" y="22.023438"/>
<use xlink:href="#glyph-0-7" x="102" y="22.023438"/>
<use xlink:href="#glyph-0-14" x="103" y="22.023438"/>
<use xlink:href="#glyph-0-20" x="104" y="22.023438"/>
<use xlink:href="#glyph-0-11" x="105" y="22.023438"/>
<use xlink:href="#glyph-0-5" x="106" y="22.023438"/>
<use xlink:href="#glyph-0-11" x="107" y="22.023438"/>
<use xlink:href="#glyph-0-1" x="108" y="22.023438"/>
<use xlink:href="#glyph-0-5" x="109" y="22.023438"/>
<use xlink:href="#glyph-0-6" x="110" y="22.023438"/>
<use xlink:href="#glyph-0-1" x="111" y="22.023438"/>
<use xlink:href="#glyph-0-15" x="112" y="22.023438"/>
<use xlink:href="#glyph-0-11" x="113" y="22.023438"/>
<use xlink:href="#glyph-0-10" x="114" y="22.023438"/>
<use xlink:href="#glyph-0-14" x="115" y="22.023438"/>
<use xlink:href="#glyph-0-12" x="116" y="22.023438"/>
<use xlink:href="#glyph-0-5" x="117" y="22.023438"/>
<use xlink:href="#glyph-0-5" x="118" y="22.023438"/>
<use xlink:href="#glyph-0-16" x="119" y="22.023438"/>
<use xlink:href="#glyph-0-5" x="120" y="22.023438"/>
<use xlink:href="#glyph-0-5" x="121" y="22.023438"/>
</g>
<g fill="rgb(66.666667%, 26.666667%, 100%)" fill-opacity="1">
<use xlink:href="#glyph-0-22" x="122" y="22.023438"/>
<use xlink:href="#glyph-0-18" x="123" y="22.023438"/>
<use xlink:href="#glyph-0-23" x="124" y="22.023438"/>
<use xlink:href="#glyph-0-5" x="125" y="22.023438"/>
<use xlink:href="#glyph-0-8" x="126" y="22.023438"/>
<use xlink:href="#glyph-0-1" x="127" y="22.023438"/>
<use xlink:href="#glyph-0-1" x="128" y="22.023438"/>
<use xlink:href="#glyph-0-13" x="129" y="22.023438"/>
<use xlink:href="#glyph-0-11" x="130" y="22.023438"/>
<use xlink:href="#glyph-0-13" x="131" y="22.023438"/>
</g>
<g fill="rgb(100%, 100%, 100%)" fill-opacity="1">
<use xlink:href="#glyph-0-5" x="132" y="22.023438"/>
<use xlink:href="#glyph-0-13" x="133" y="22.023438"/>
<use xlink:href="#glyph-0-7" x="134" y="22.023438"/>
<use xlink:href="#glyph-0-14" x="135" y="22.023438"/>
<use xlink:href="#glyph-0-3" x="136" y="22.023438"/>
<use xlink:href="#glyph-0-10" x="137" y="22.023438"/>
<use xlink:href="#glyph-0-15" x="138" y="22.023438"/>
<use xlink:href="#glyph-0-5" x="139" y="22.023438"/>
<use xlink:href="#glyph-0-5" x="140" y="22.023438"/>
<use xlink:href="#glyph-0-16" x="141" y="22.023438"/>
<use xlink:href="#glyph-0-5" x="142" y="22.023438"/>
<use xlink:href="#glyph-0-5" x="143" y="22.023438"/>
<use xlink:href="#glyph-0-0" x="144" y="22.023438"/>
<use xlink:href="#glyph-0-1" x="145" y="22.023438"/>
<use xlink:href="#glyph-0-2" x="146" y="22.023438"/>
<use xlink:href="#glyph-0-3" x="147" y="22.023438"/>
<use xlink:href="#glyph-0-4" x="148" y="22.023438"/>
<use xlink:href="#glyph-0-5" x="149" y="22.023438"/>
<use xlink:href="#glyph-0-21" x="150" y="22.023438"/>
<use xlink:href="#glyph-0-10" x="151" y="22.023438"/>
<use xlink:href="#glyph-0-9" x="152" y="22.023438"/>
<use xlink:href="#glyph-0-4" x="153" y="22.023438"/>
<use xlink:href="#glyph-0-5" x="154" y="22.023438"/>
<use xlink:href="#glyph-0-4" x="155" y="22.023438"/>
<use xlink:href="#glyph-0-7" x="156" y="22.023438"/>
<use xlink:href="#glyph-0-14" x="157" y="22.023438"/>
<use xlink:href="#glyph-0-7" x="158" y="22.023438"/>
<use xlink:href="#glyph-0-11" x="159" y="22.023438"/>
<use xlink:href="#glyph-0-7" x="160" y="22.023438"/>
<use xlink:href="#glyph-0-13" x="161" y="22.023438"/>
<use xlink:href="#glyph-0-12" x="162" y="22.023438"/>
<use xlink:href="#glyph-0-13" x="163" y="22.023438"/>
<use xlink:href="#glyph-0-5" x="164" y="22.023438"/>
<use xlink:href="#glyph-0-5" x="165" y="22.023438"/>
<use xlink:href="#glyph-0-16" x="166" y="22.023438"/>
<use xlink:href="#glyph-0-5" x="167" y="22.023438"/>
<use xlink:href="#glyph-0-5" x="168" y="22.023438"/>
</g>
<g fill="rgb(20%, 80%, 100%)" fill-opacity="1">
<use xlink:href="#glyph-0-22" x="169" y="22.023438"/>
<use xlink:href="#glyph-0-2" x="170" y="22.023438"/>
<use xlink:href="#glyph-0-4" x="171" y="22.023438"/>
<use xlink:href="#glyph-0-7" x="172" y="22.023438"/>
<use xlink:href="#glyph-0-1" x="173" y="22.023438"/>
<use xlink:href="#glyph-0-5" x="174" y="22.023438"/>
<use xlink:href="#glyph-0-9" x="175" y="22.023438"/>
<use xlink:href="#glyph-0-12" x="176" y="22.023438"/>
<use xlink:href="#glyph-0-21" x="177" y="22.023438"/>
<use xlink:href="#glyph-0-1" x="178" y="22.023438"/>
<use xlink:href="#glyph-0-6" x="179" y="22.023438"/>
<use xlink:href="#glyph-0-12" x="180" y="22.023438"/>
<use xlink:href="#glyph-0-9" x="181" y="22.023438"/>
<use xlink:href="#glyph-0-12" x="182" y="22.023438"/>
<use xlink:href="#glyph-0-4" x="183" y="22.023438"/>
</g>
<g fill="rgb(100%, 100%, 100%)" fill-opacity="1">
<use xlink:href="#glyph-0-5" x="184" y="22.023438"/>
<use xlink:href="#glyph-0-1" x="185" y="22.023438"/>
<use xlink:href="#glyph-0-3" x="186" y="22.023438"/>
<use xlink:href="#glyph-0-5" x="187" y="22.023438"/>
<use xlink:href="#glyph-0-15" x="188" y="22.023438"/>
<use xlink:href="#glyph-0-10" x="189" y="22.023438"/>
<use xlink:href="#glyph-0-23" x="190" y="22.023438"/>
<use xlink:href="#glyph-0-11" x="191" y="22.023438"/>
<use xlink:href="#glyph-0-1" x="192" y="22.023438"/>
<use xlink:href="#glyph-0-23" x="193" y="22.023438"/>
</g>
</svg>
