<?xml version="1.0" encoding="UTF-8"?>
<svg xmlns="http://www.w3.org/2000/svg" xmlns:xlink="http://www.w3.org/1999/xlink" width="1920" height="1080" viewBox="0 0 1920 1080">
<defs>
<g>
<g id="glyph-0-0">
</g>
<g id="glyph-0-1">
<path d="M 1.40625 -0.46875 C 1.40625 -0.320312 1.347656 -0.207031 1.234375 -0.125 C 1.128906 -0.0390625 0.976562 0 0.78125 0 L 0.203125 0 L 0.203125 -1.640625 L 0.703125 -1.640625 C 1.109375 -1.640625 1.3125 -1.507812 1.3125 -1.25 C 1.3125 -1.144531 1.28125 -1.0625 1.21875 -1 C 1.15625 -0.9375 1.078125 -0.894531 0.984375 -0.875 C 1.117188 -0.851562 1.222656 -0.804688 1.296875 -0.734375 C 1.367188 -0.660156 1.40625 -0.570312 1.40625 -0.46875 Z M 1.171875 -0.484375 C 1.171875 -0.578125 1.132812 -0.644531 1.0625 -0.6875 C 0.988281 -0.738281 0.878906 -0.765625 0.734375 -0.765625 L 0.4375 -0.765625 L 0.4375 -0.1875 L 0.75 -0.1875 C 0.894531 -0.1875 1 -0.207031 1.0625 -0.25 C 1.132812 -0.300781 1.171875 -0.378906 1.171875 -0.484375 Z M 1.078125 -1.21875 C 1.078125 -1.300781 1.046875 -1.359375 0.984375 -1.390625 C 0.921875 -1.429688 0.828125 -1.453125 0.703125 -1.453125 L 0.4375 -1.453125 L 0.4375 -0.953125 L 0.703125 -0.953125 C 0.953125 -0.953125 1.078125 -1.039062 1.078125 -1.21875 Z "/>
</g>
<g id="glyph-0-2">
<path d="M 0.390625 -0.609375 C 0.390625 -0.460938 0.421875 -0.347656 0.484375 -0.265625 C 0.554688 -0.179688 0.648438 -0.140625 0.765625 -0.140625 C 0.847656 -0.140625 0.921875 -0.15625 0.984375 -0.1875 C 1.046875 -0.226562 1.085938 -0.28125 1.109375 -0.34375 L 1.296875 -0.28125 C 1.265625 -0.1875 1.195312 -0.109375 1.09375 -0.046875 C 1 0.00390625 0.890625 0.03125 0.765625 0.03125 C 0.566406 0.03125 0.414062 -0.0234375 0.3125 -0.140625 C 0.207031 -0.265625 0.15625 -0.441406 0.15625 -0.671875 C 0.15625 -0.890625 0.207031 -1.054688 0.3125 -1.171875 C 0.414062 -1.285156 0.5625 -1.34375 0.75 -1.34375 C 0.945312 -1.34375 1.09375 -1.285156 1.1875 -1.171875 C 1.28125 -1.054688 1.328125 -0.878906 1.328125 -0.640625 L 1.328125 -0.609375 Z M 0.75 -1.1875 C 0.644531 -1.1875 0.5625 -1.148438 0.5 -1.078125 C 0.4375 -1.003906 0.398438 -0.90625 0.390625 -0.78125 L 1.109375 -0.78125 C 1.085938 -1.050781 0.96875 -1.1875 0.75 -1.1875 Z "/>
</g>
<g id="glyph-0-3">
<path d="M 1.34375 -0.140625 C 1.363281 -0.140625 1.390625 -0.140625 1.421875 -0.140625 L 1.421875 0 C 1.359375 0.0078125 1.300781 0.015625 1.25 0.015625 C 1.164062 0.015625 1.101562 -0.00390625 1.0625 -0.046875 C 1.03125 -0.0859375 1.007812 -0.15625 1 -0.25 C 0.945312 -0.15625 0.882812 -0.0820312 0.8125 -0.03125 C 0.738281 0.0078125 0.648438 0.03125 0.546875 0.03125 C 0.421875 0.03125 0.320312 -0.00390625 0.25 -0.078125 C 0.1875 -0.148438 0.15625 -0.25 0.15625 -0.375 C 0.15625 -0.65625 0.335938 -0.796875 0.703125 -0.796875 L 1 -0.8125 L 1 -0.875 C 1 -0.976562 0.976562 -1.050781 0.9375 -1.09375 C 0.894531 -1.144531 0.828125 -1.171875 0.734375 -1.171875 C 0.628906 -1.171875 0.554688 -1.15625 0.515625 -1.125 C 0.472656 -1.09375 0.445312 -1.039062 0.4375 -0.96875 L 0.21875 -0.984375 C 0.25 -1.222656 0.421875 -1.34375 0.734375 -1.34375 C 0.890625 -1.34375 1.007812 -1.300781 1.09375 -1.21875 C 1.175781 -1.144531 1.21875 -1.039062 1.21875 -0.90625 L 1.21875 -0.328125 C 1.21875 -0.265625 1.222656 -0.21875 1.234375 -0.1875 C 1.253906 -0.15625 1.289062 -0.140625 1.34375 -0.140625 Z M 0.59375 -0.140625 C 0.675781 -0.140625 0.75 -0.15625 0.8125 -0.1875 C 0.875 -0.226562 0.921875 -0.28125 0.953125 -0.34375 C 0.984375 -0.40625 1 -0.472656 1 -0.546875 L 1 -0.65625 L 0.765625 -0.640625 C 0.671875 -0.640625 0.597656 -0.628906 0.546875 -0.609375 C 0.492188 -0.597656 0.453125 -0.570312 0.421875 -0.53125 C 0.398438 -0.488281 0.390625 -0.429688 0.390625 -0.359375 C 0.390625 -0.296875 0.40625 -0.242188 0.4375 -0.203125 C 0.476562 -0.160156 0.53125 -0.140625 0.59375 -0.140625 Z "/>
</g>
<g id="glyph-0-4">
<path d="M 0.640625 0 L 0.640625 -0.84375 C 0.640625 -0.96875 0.628906 -1.050781 0.609375 -1.09375 C 0.597656 -1.144531 0.566406 -1.171875 0.515625 -1.171875 C 0.460938 -1.171875 0.414062 -1.128906 0.375 -1.046875 C 0.34375 -0.972656 0.328125 -0.867188 0.328125 -0.734375 L 0.328125 0 L 0.125 0 L 0.125 -1.03125 C 0.125 -1.1875 0.125 -1.285156 0.125 -1.328125 L 0.296875 -1.328125 L 0.3125 -1.171875 L 0.3125 -1.109375 C 0.34375 -1.191406 0.378906 -1.25 0.421875 -1.28125 C 0.460938 -1.320312 0.515625 -1.34375 0.578125 -1.34375 C 0.648438 -1.34375 0.703125 -1.320312 0.734375 -1.28125 C 0.773438 -1.25 0.800781 -1.191406 0.8125 -1.109375 C 0.84375 -1.191406 0.878906 -1.25 0.921875 -1.28125 C 0.972656 -1.320312 1.035156 -1.34375 1.109375 -1.34375 C 1.203125 -1.34375 1.269531 -1.304688 1.3125 -1.234375 C 1.351562 -1.171875 1.375 -1.050781 1.375 -0.875 L 1.375 0 L 1.171875 0 L 1.171875 -0.84375 C 1.171875 -0.96875 1.160156 -1.050781 1.140625 -1.09375 C 1.117188 -1.144531 1.082031 -1.171875 1.03125 -1.171875 C 0.976562 -1.171875 0.9375 -1.132812 0.90625 -1.0625 C 0.875 -1 0.859375 -0.898438 0.859375 -0.765625 L 0.859375 0 Z "/>
</g>
<g id="glyph-0-5">
<path d="M 0.453125 -0.984375 C 0.535156 -0.984375 0.628906 -0.960938 0.734375 -0.921875 C 0.859375 -0.878906 0.9375 -0.851562 0.96875 -0.84375 C 1.007812 -0.84375 1.039062 -0.84375 1.0625 -0.84375 C 1.175781 -0.84375 1.28125 -0.878906 1.375 -0.953125 L 1.375 -0.765625 C 1.320312 -0.734375 1.269531 -0.707031 1.21875 -0.6875 C 1.175781 -0.675781 1.117188 -0.671875 1.046875 -0.671875 C 0.992188 -0.671875 0.9375 -0.679688 0.875 -0.703125 C 0.8125 -0.722656 0.753906 -0.742188 0.703125 -0.765625 C 0.597656 -0.796875 0.507812 -0.8125 0.4375 -0.8125 C 0.382812 -0.8125 0.332031 -0.800781 0.28125 -0.78125 C 0.238281 -0.769531 0.1875 -0.742188 0.125 -0.703125 L 0.125 -0.875 C 0.21875 -0.945312 0.328125 -0.984375 0.453125 -0.984375 Z "/>
</g>
<g id="glyph-0-6">
<path d="M 1.34375 -0.453125 C 1.34375 -0.296875 1.289062 -0.175781 1.1875 -0.09375 C 1.082031 -0.0078125 0.941406 0.03125 0.765625 0.03125 C 0.585938 0.03125 0.445312 -0.0078125 0.34375 -0.09375 C 0.238281 -0.175781 0.175781 -0.289062 0.15625 -0.4375 L 0.390625 -0.46875 C 0.410156 -0.257812 0.535156 -0.15625 0.765625 -0.15625 C 0.867188 -0.15625 0.953125 -0.179688 1.015625 -0.234375 C 1.078125 -0.285156 1.109375 -0.359375 1.109375 -0.453125 C 1.109375 -0.515625 1.085938 -0.566406 1.046875 -0.609375 C 1.015625 -0.648438 0.96875 -0.679688 0.90625 -0.703125 C 0.84375 -0.734375 0.769531 -0.75 0.6875 -0.75 L 0.5625 -0.75 L 0.5625 -0.9375 L 0.6875 -0.9375 C 0.757812 -0.9375 0.820312 -0.945312 0.875 -0.96875 C 0.9375 -0.988281 0.984375 -1.019531 1.015625 -1.0625 C 1.046875 -1.101562 1.0625 -1.15625 1.0625 -1.21875 C 1.0625 -1.300781 1.035156 -1.363281 0.984375 -1.40625 C 0.929688 -1.457031 0.851562 -1.484375 0.75 -1.484375 C 0.644531 -1.484375 0.5625 -1.457031 0.5 -1.40625 C 0.445312 -1.363281 0.414062 -1.296875 0.40625 -1.203125 L 0.1875 -1.21875 C 0.195312 -1.363281 0.253906 -1.472656 0.359375 -1.546875 C 0.460938 -1.628906 0.59375 -1.671875 0.75 -1.671875 C 0.914062 -1.671875 1.046875 -1.628906 1.140625 -1.546875 C 1.242188 -1.472656 1.296875 -1.367188 1.296875 -1.234375 C 1.296875 -1.140625 1.257812 -1.054688 1.1875 -0.984375 C 1.125 -0.910156 1.039062 -0.863281 0.9375 -0.84375 C 1.0625 -0.832031 1.160156 -0.789062 1.234375 -0.71875 C 1.304688 -0.644531 1.34375 -0.554688 1.34375 -0.453125 Z "/>
</g>
<g id="glyph-0-7">
<path d="M 0.15625 -0.65625 C 0.15625 -0.875 0.207031 -1.039062 0.3125 -1.15625 C 0.414062 -1.28125 0.566406 -1.34375 0.765625 -1.34375 C 0.921875 -1.34375 1.046875 -1.304688 1.140625 -1.234375 C 1.234375 -1.160156 1.289062 -1.066406 1.3125 -0.953125 L 1.078125 -0.9375 C 1.066406 -1.007812 1.035156 -1.066406 0.984375 -1.109375 C 0.929688 -1.148438 0.859375 -1.171875 0.765625 -1.171875 C 0.628906 -1.171875 0.53125 -1.128906 0.46875 -1.046875 C 0.414062 -0.972656 0.390625 -0.847656 0.390625 -0.671875 C 0.390625 -0.484375 0.414062 -0.347656 0.46875 -0.265625 C 0.53125 -0.179688 0.628906 -0.140625 0.765625 -0.140625 C 0.847656 -0.140625 0.914062 -0.160156 0.96875 -0.203125 C 1.03125 -0.253906 1.070312 -0.320312 1.09375 -0.40625 L 1.3125 -0.390625 C 1.300781 -0.316406 1.269531 -0.242188 1.21875 -0.171875 C 1.175781 -0.109375 1.113281 -0.0546875 1.03125 -0.015625 C 0.957031 0.015625 0.867188 0.03125 0.765625 0.03125 C 0.566406 0.03125 0.414062 -0.0234375 0.3125 -0.140625 C 0.207031 -0.265625 0.15625 -0.4375 0.15625 -0.65625 Z "/>
</g>
<g id="glyph-0-8">
<path d="M 1.34375 -0.65625 C 1.34375 -0.4375 1.289062 -0.265625 1.1875 -0.140625 C 1.082031 -0.0234375 0.9375 0.03125 0.75 0.03125 C 0.550781 0.03125 0.398438 -0.0234375 0.296875 -0.140625 C 0.203125 -0.265625 0.15625 -0.4375 0.15625 -0.65625 C 0.15625 -0.882812 0.207031 -1.054688 0.3125 -1.171875 C 0.414062 -1.285156 0.5625 -1.34375 0.75 -1.34375 C 0.945312 -1.34375 1.09375 -1.285156 1.1875 -1.171875 C 1.289062 -1.054688 1.34375 -0.882812 1.34375 -0.65625 Z M 1.109375 -0.65625 C 1.109375 -0.832031 1.078125 -0.960938 1.015625 -1.046875 C 0.960938 -1.140625 0.875 -1.1875 0.75 -1.1875 C 0.625 -1.1875 0.53125 -1.140625 0.46875 -1.046875 C 0.414062 -0.960938 0.390625 -0.832031 0.390625 -0.65625 C 0.390625 -0.488281 0.414062 -0.359375 0.46875 -0.265625 C 0.53125 -0.179688 0.617188 -0.140625 0.734375 -0.140625 C 0.867188 -0.140625 0.960938 -0.179688 1.015625 -0.265625 C 1.078125 -0.359375 1.109375 -0.488281 1.109375 -0.65625 Z "/>
</g>
<g id="glyph-0-9">
<path d="M 0.90625 -0.171875 L 1.359375 -0.171875 L 1.359375 0 L 0.15625 0 L 0.15625 -0.171875 L 0.671875 -0.171875 L 0.671875 -1.640625 L 0.328125 -1.640625 L 0.328125 -1.8125 L 0.90625 -1.8125 Z "/>
</g>
<g id="glyph-0-10">
<path d="M 0.90625 -0.171875 L 1.375 -0.171875 L 1.375 0 L 0.171875 0 L 0.171875 -0.171875 L 0.6875 -0.171875 L 0.6875 -1.140625 L 0.296875 -1.140625 L 0.296875 -1.328125 L 0.90625 -1.328125 Z M 0.671875 -1.578125 L 0.671875 -1.8125 L 0.90625 -1.8125 L 0.90625 -1.578125 Z "/>
</g>
<g id="glyph-0-11">
<path d="M 0.234375 -1.140625 L 0.234375 -1.328125 L 0.4375 -1.328125 L 0.515625 -1.671875 L 0.65625 -1.671875 L 0.65625 -1.328125 L 1.1875 -1.328125 L 1.1875 -1.140625 L 0.65625 -1.140625 L 0.65625 -0.359375 C 0.65625 -0.285156 0.671875 -0.234375 0.703125 -0.203125 C 0.742188 -0.171875 0.800781 -0.15625 0.875 -0.15625 C 0.988281 -0.15625 1.109375 -0.171875 1.234375 -0.203125 L 1.234375 -0.03125 C 1.097656 0 0.960938 0.015625 0.828125 0.015625 C 0.703125 0.015625 0.601562 -0.0078125 0.53125 -0.0625 C 0.46875 -0.113281 0.4375 -0.203125 0.4375 -0.328125 L 0.4375 -1.140625 Z "/>
</g>
<g id="glyph-0-12">
<path d="M 1.046875 -0.21875 C 1.015625 -0.125 0.960938 -0.0546875 0.890625 -0.015625 C 0.828125 0.015625 0.742188 0.03125 0.640625 0.03125 C 0.484375 0.03125 0.363281 -0.0234375 0.28125 -0.140625 C 0.207031 -0.253906 0.171875 -0.425781 0.171875 -0.65625 C 0.171875 -1.113281 0.328125 -1.34375 0.640625 -1.34375 C 0.742188 -1.34375 0.828125 -1.320312 0.890625 -1.28125 C 0.960938 -1.25 1.015625 -1.191406 1.046875 -1.109375 L 1.0625 -1.109375 L 1.046875 -1.296875 L 1.046875 -1.8125 L 1.265625 -1.8125 L 1.265625 -0.265625 C 1.265625 -0.128906 1.269531 -0.0390625 1.28125 0 L 1.078125 0 C 1.066406 -0.0078125 1.0625 -0.0351562 1.0625 -0.078125 C 1.0625 -0.128906 1.0625 -0.175781 1.0625 -0.21875 Z M 0.390625 -0.65625 C 0.390625 -0.476562 0.414062 -0.347656 0.46875 -0.265625 C 0.519531 -0.179688 0.597656 -0.140625 0.703125 -0.140625 C 0.816406 -0.140625 0.898438 -0.179688 0.953125 -0.265625 C 1.015625 -0.347656 1.046875 -0.484375 1.046875 -0.671875 C 1.046875 -0.847656 1.019531 -0.972656 0.96875 -1.046875 C 0.914062 -1.128906 0.828125 -1.171875 0.703125 -1.171875 C 0.597656 -1.171875 0.519531 -1.128906 0.46875 -1.046875 C 0.414062 -0.960938 0.390625 -0.832031 0.390625 -0.65625 Z "/>
</g>
<g id="glyph-1-0">
<path d="M 1.390625 -1.21875 C 1.390625 -1.25 1.375 -1.265625 1.34375 -1.265625 C 1.328125 -1.265625 1.3125 -1.265625 1.3125 -1.25 L 1.125 -1.078125 C 1.03125 -1.15625 0.890625 -1.203125 0.75 -1.203125 C 0.4375 -1.203125 0.171875 -0.953125 0.171875 -0.625 C 0.171875 -0.484375 0.21875 -0.359375 0.3125 -0.25 L 0.125 -0.0625 C 0.109375 -0.0625 0.109375 -0.046875 0.109375 -0.03125 C 0.109375 0 0.125 0.015625 0.15625 0.015625 C 0.171875 0.015625 0.1875 0.015625 0.1875 0 L 0.375 -0.1875 C 0.484375 -0.09375 0.609375 -0.046875 0.75 -0.046875 C 1.078125 -0.046875 1.328125 -0.3125 1.328125 -0.625 C 1.328125 -0.765625 1.28125 -0.90625 1.203125 -1 L 1.375 -1.1875 C 1.390625 -1.1875 1.390625 -1.203125 1.390625 -1.21875 Z M 1.234375 -0.625 C 1.234375 -0.359375 1.015625 -0.15625 0.75 -0.15625 C 0.640625 -0.15625 0.53125 -0.1875 0.453125 -0.25 L 1.125 -0.921875 C 1.1875 -0.84375 1.234375 -0.734375 1.234375 -0.625 Z M 1.046875 -1 L 0.375 -0.328125 C 0.3125 -0.40625 0.28125 -0.515625 0.28125 -0.625 C 0.28125 -0.890625 0.484375 -1.109375 0.75 -1.109375 C 0.859375 -1.109375 0.96875 -1.0625 1.046875 -1 Z "/>
</g>
</g>
</defs>
<g fill="rgb(100%, 100%, 100%)" fill-opacity="1">
<use xlink:href="#glyph-0-0" x="30" y="22.37793"/>
<use xlink:href="#glyph-0-0" x="32" y="22.37793"/>
<use xlink:href="#glyph-0-1" x="34" y="22.37793"/>
<use xlink:href="#glyph-0-2" x="36" y="22.37793"/>
<use xlink:href="#glyph-0-3" x="38" y="22.37793"/>
<use xlink:href="#glyph-0-4" x="40" y="22.37793"/>
<use xlink:href="#glyph-0-0" x="42" y="22.37793"/>
</g>
<g fill="rgb(100%, 100%, 100%)" fill-opacity="1">
<use xlink:href="#glyph-1-0" x="44" y="22.37793"/>
</g>
<g fill="rgb(100%, 100%, 100%)" fill-opacity="1">
<use xlink:href="#glyph-0-0" x="46" y="22.37793"/>
<use xlink:href="#glyph-0-0" x="48" y="22.37793"/>
<use xlink:href="#glyph-0-0" x="50" y="22.37793"/>
<use xlink:href="#glyph-0-0" x="52" y="22.37793"/>
<use xlink:href="#glyph-0-0" x="54" y="22.37793"/>
<use xlink:href="#glyph-0-0" x="56" y="22.37793"/>
<use xlink:href="#glyph-0-0" x="58" y="22.37793"/>
<use xlink:href="#glyph-0-0" x="60" y="22.37793"/>
<use xlink:href="#glyph-0-5" x="62" y="22.37793"/>
<use xlink:href="#glyph-0-6" x="64" y="22.37793"/>
<use xlink:href="#glyph-0-0" x="66" y="22.37793"/>
<use xlink:href="#glyph-0-4" x="68" y="22.37793"/>
<use xlink:href="#glyph-0-4" x="70" y="22.37793"/>
<use xlink:href="#glyph-0-0" x="72" y="22.37793"/>
<use xlink:href="#glyph-0-7" x="74" y="22.37793"/>
<use xlink:href="#glyph-0-8" x="76" y="22.37793"/>
<use xlink:href="#glyph-0-9" x="78" y="22.37793"/>
<use xlink:href="#glyph-0-9" x="80" y="22.37793"/>
<use xlink:href="#glyph-0-10" x="82" y="22.37793"/>
<use xlink:href="#glyph-0-4" x="84" y="22.37793"/>
<use xlink:href="#glyph-0-3" x="86" y="22.37793"/>
<use xlink:href="#glyph-0-11" x="88" y="22.37793"/>
<use xlink:href="#glyph-0-2" x="90" y="22.37793"/>
<use xlink:href="#glyph-0-12" x="92" y="22.37793"/>
</g>
</svg>
