<?xml version="1.0" encoding="UTF-8"?>
<svg xmlns="http://www.w3.org/2000/svg" xmlns:xlink="http://www.w3.org/1999/xlink" width="1920" height="1080" viewBox="0 0 1920 1080">
<defs>
<g>
<g id="glyph-0-0">
<path d="M 1.0625 -0.640625 C 1.0625 -0.429688 1.019531 -0.269531 0.9375 -0.15625 C 0.851562 -0.0390625 0.734375 0.015625 0.578125 0.015625 C 0.421875 0.015625 0.300781 -0.0351562 0.21875 -0.140625 C 0.132812 -0.253906 0.09375 -0.421875 0.09375 -0.640625 C 0.09375 -0.859375 0.132812 -1.019531 0.21875 -1.125 C 0.300781 -1.238281 0.421875 -1.296875 0.578125 -1.296875 C 0.734375 -1.296875 0.851562 -1.238281 0.9375 -1.125 C 1.019531 -1.019531 1.0625 -0.859375 1.0625 -0.640625 Z M 0.875 -0.640625 C 0.875 -0.984375 0.773438 -1.15625 0.578125 -1.15625 C 0.378906 -1.15625 0.28125 -0.984375 0.28125 -0.640625 C 0.28125 -0.472656 0.304688 -0.34375 0.359375 -0.25 C 0.410156 -0.164062 0.484375 -0.125 0.578125 -0.125 C 0.679688 -0.125 0.753906 -0.164062 0.796875 -0.25 C 0.847656 -0.34375 0.875 -0.472656 0.875 -0.640625 Z "/>
</g>
<g id="glyph-0-1">
<path d="M 1.0625 -0.890625 C 1.0625 -0.816406 1.039062 -0.75 1 -0.6875 C 0.96875 -0.625 0.914062 -0.570312 0.84375 -0.53125 C 0.769531 -0.5 0.6875 -0.484375 0.59375 -0.484375 L 0.328125 -0.484375 L 0.328125 0 L 0.15625 0 L 0.15625 -1.28125 L 0.59375 -1.28125 C 0.738281 -1.28125 0.851562 -1.242188 0.9375 -1.171875 C 1.019531 -1.109375 1.0625 -1.015625 1.0625 -0.890625 Z M 0.875 -0.890625 C 0.875 -1.046875 0.769531 -1.125 0.5625 -1.125 L 0.328125 -1.125 L 0.328125 -0.625 L 0.578125 -0.625 C 0.671875 -0.625 0.742188 -0.644531 0.796875 -0.6875 C 0.847656 -0.738281 0.875 -0.804688 0.875 -0.890625 Z "/>
</g>
<g id="glyph-0-2">
<path d="M 0.671875 -1.125 L 0.671875 0 L 0.484375 0 L 0.484375 -1.125 L 0.078125 -1.125 L 0.078125 -1.28125 L 1.09375 -1.28125 L 1.09375 -1.125 Z "/>
</g>
<g id="glyph-0-3">
<path d="M 0.3125 -0.4375 L 0.3125 -0.59375 L 0.84375 -0.59375 L 0.84375 -0.4375 Z "/>
</g>
<g id="glyph-0-4">
<path d="M 0.15625 0 L 0.15625 -0.140625 L 0.5625 -0.140625 L 0.5625 -1.109375 C 0.539062 -1.054688 0.484375 -1.007812 0.390625 -0.96875 C 0.304688 -0.9375 0.222656 -0.921875 0.140625 -0.921875 L 0.140625 -1.0625 C 0.234375 -1.0625 0.320312 -1.082031 0.40625 -1.125 C 0.488281 -1.164062 0.546875 -1.21875 0.578125 -1.28125 L 0.734375 -1.28125 L 0.734375 -0.140625 L 1.0625 -0.140625 L 1.0625 0 Z "/>
</g>
<g id="glyph-0-5">
<path d="M 1.046875 -0.640625 C 1.046875 -0.421875 1.003906 -0.253906 0.921875 -0.140625 C 0.847656 -0.0351562 0.734375 0.015625 0.578125 0.015625 C 0.421875 0.015625 0.304688 -0.0351562 0.234375 -0.140625 C 0.160156 -0.253906 0.125 -0.421875 0.125 -0.640625 C 0.125 -0.859375 0.160156 -1.019531 0.234375 -1.125 C 0.304688 -1.238281 0.421875 -1.296875 0.578125 -1.296875 C 0.734375 -1.296875 0.847656 -1.238281 0.921875 -1.125 C 1.003906 -1.019531 1.046875 -0.859375 1.046875 -0.640625 Z M 0.875 -0.640625 C 0.875 -0.816406 0.847656 -0.945312 0.796875 -1.03125 C 0.753906 -1.113281 0.679688 -1.15625 0.578125 -1.15625 C 0.472656 -1.15625 0.398438 -1.113281 0.359375 -1.03125 C 0.316406 -0.957031 0.296875 -0.828125 0.296875 -0.640625 C 0.296875 -0.460938 0.316406 -0.332031 0.359375 -0.25 C 0.398438 -0.164062 0.472656 -0.125 0.578125 -0.125 C 0.679688 -0.125 0.753906 -0.164062 0.796875 -0.25 C 0.847656 -0.332031 0.875 -0.460938 0.875 -0.640625 Z M 0.46875 -0.53125 L 0.46875 -0.765625 L 0.6875 -0.765625 L 0.6875 -0.53125 Z "/>
</g>
</g>
</defs>
<g fill="rgb(100%, 84.313725%, 0%)" fill-opacity="1">
<use xlink:href="#glyph-0-0" x="30" y="21.619141"/>
<use xlink:href="#glyph-0-1" x="31" y="21.619141"/>
<use xlink:href="#glyph-0-2" x="32" y="21.619141"/>
<use xlink:href="#glyph-0-3" x="33" y="21.619141"/>
<use xlink:href="#glyph-0-4" x="34" y="21.619141"/>
<use xlink:href="#glyph-0-5" x="35" y="21.619141"/>
<use xlink:href="#glyph-0-4" x="36" y="21.619141"/>
</g>
</svg>
