<?xml version="1.0" encoding="UTF-8"?>
<svg xmlns="http://www.w3.org/2000/svg" xmlns:xlink="http://www.w3.org/1999/xlink" width="1920" height="1080" viewBox="0 0 1920 1080">
<defs>
<g>
<g id="glyph-0-0">
<path d="M 1.140625 0 L 1.140625 -1.0625 C 1.140625 -1.164062 1.140625 -1.25 1.140625 -1.3125 L 1.15625 -1.421875 C 1.101562 -1.253906 1.0625 -1.140625 1.03125 -1.078125 L 0.828125 -0.53125 L 0.671875 -0.53125 L 0.46875 -1.078125 C 0.445312 -1.109375 0.40625 -1.222656 0.34375 -1.421875 L 0.359375 -1.0625 L 0.359375 0 L 0.15625 0 L 0.15625 -1.640625 L 0.453125 -1.640625 L 0.671875 -1.046875 C 0.691406 -1.003906 0.71875 -0.910156 0.75 -0.765625 L 0.78125 -0.875 L 0.84375 -1.046875 L 1.0625 -1.640625 L 1.34375 -1.640625 L 1.34375 0 Z "/>
</g>
<g id="glyph-0-1">
<path d="M 0.25 -1.640625 L 1.25 -1.640625 L 1.25 -1.453125 L 0.859375 -1.453125 L 0.859375 -0.1875 L 1.25 -0.1875 L 1.25 0 L 0.25 0 L 0.25 -0.1875 L 0.625 -0.1875 L 0.625 -1.453125 L 0.25 -1.453125 Z "/>
</g>
<g id="glyph-0-2">
<path d="M 0.390625 -0.828125 C 0.390625 -0.609375 0.421875 -0.441406 0.484375 -0.328125 C 0.554688 -0.222656 0.664062 -0.171875 0.8125 -0.171875 C 0.894531 -0.171875 0.96875 -0.195312 1.03125 -0.25 C 1.09375 -0.300781 1.148438 -0.390625 1.203125 -0.515625 L 1.390625 -0.4375 C 1.273438 -0.125 1.078125 0.03125 0.796875 0.03125 C 0.585938 0.03125 0.425781 -0.0390625 0.3125 -0.1875 C 0.195312 -0.34375 0.140625 -0.554688 0.140625 -0.828125 C 0.140625 -1.390625 0.359375 -1.671875 0.796875 -1.671875 C 1.066406 -1.671875 1.253906 -1.535156 1.359375 -1.265625 L 1.15625 -1.1875 C 1.125 -1.28125 1.078125 -1.351562 1.015625 -1.40625 C 0.953125 -1.457031 0.878906 -1.484375 0.796875 -1.484375 C 0.648438 -1.484375 0.546875 -1.429688 0.484375 -1.328125 C 0.421875 -1.222656 0.390625 -1.054688 0.390625 -0.828125 Z "/>
</g>
<g id="glyph-0-3">
<path d="M 1.171875 0 L 0.71875 -0.703125 L 0.4375 -0.703125 L 0.4375 0 L 0.203125 0 L 0.203125 -1.640625 L 0.78125 -1.640625 C 0.976562 -1.640625 1.125 -1.597656 1.21875 -1.515625 C 1.320312 -1.441406 1.375 -1.332031 1.375 -1.1875 C 1.375 -1.070312 1.332031 -0.972656 1.25 -0.890625 C 1.175781 -0.804688 1.078125 -0.753906 0.953125 -0.734375 L 1.4375 0 Z M 1.140625 -1.1875 C 1.140625 -1.363281 1.015625 -1.453125 0.765625 -1.453125 L 0.4375 -1.453125 L 0.4375 -0.890625 L 0.765625 -0.890625 C 0.890625 -0.890625 0.984375 -0.914062 1.046875 -0.96875 C 1.109375 -1.019531 1.140625 -1.09375 1.140625 -1.1875 Z "/>
</g>
<g id="glyph-0-4">
<path d="M 1.375 -0.828125 C 1.375 -0.554688 1.316406 -0.34375 1.203125 -0.1875 C 1.097656 -0.0390625 0.945312 0.03125 0.75 0.03125 C 0.539062 0.03125 0.382812 -0.0390625 0.28125 -0.1875 C 0.175781 -0.332031 0.125 -0.546875 0.125 -0.828125 C 0.125 -1.109375 0.175781 -1.316406 0.28125 -1.453125 C 0.382812 -1.597656 0.539062 -1.671875 0.75 -1.671875 C 0.945312 -1.671875 1.097656 -1.597656 1.203125 -1.453125 C 1.316406 -1.316406 1.375 -1.109375 1.375 -0.828125 Z M 1.125 -0.828125 C 1.125 -1.265625 1 -1.484375 0.75 -1.484375 C 0.5 -1.484375 0.375 -1.265625 0.375 -0.828125 C 0.375 -0.609375 0.40625 -0.441406 0.46875 -0.328125 C 0.53125 -0.222656 0.625 -0.171875 0.75 -0.171875 C 0.882812 -0.171875 0.976562 -0.222656 1.03125 -0.328125 C 1.09375 -0.441406 1.125 -0.609375 1.125 -0.828125 Z "/>
</g>
<g id="glyph-0-5">
<path d="M 0.40625 -0.5625 L 0.40625 -0.765625 L 1.09375 -0.765625 L 1.09375 -0.5625 Z "/>
</g>
<g id="glyph-0-6">
<path d="M 0.875 0 L 0.625 0 L 0.015625 -1.640625 L 0.25 -1.640625 L 0.640625 -0.546875 C 0.671875 -0.472656 0.707031 -0.359375 0.75 -0.203125 C 0.78125 -0.328125 0.816406 -0.441406 0.859375 -0.546875 L 1.234375 -1.640625 L 1.484375 -1.640625 Z "/>
</g>
<g id="glyph-0-7">
<path d="M 1.40625 -0.46875 C 1.40625 -0.320312 1.347656 -0.207031 1.234375 -0.125 C 1.128906 -0.0390625 0.976562 0 0.78125 0 L 0.203125 0 L 0.203125 -1.640625 L 0.703125 -1.640625 C 1.109375 -1.640625 1.3125 -1.507812 1.3125 -1.25 C 1.3125 -1.144531 1.28125 -1.0625 1.21875 -1 C 1.15625 -0.9375 1.078125 -0.894531 0.984375 -0.875 C 1.117188 -0.851562 1.222656 -0.804688 1.296875 -0.734375 C 1.367188 -0.660156 1.40625 -0.570312 1.40625 -0.46875 Z M 1.171875 -0.484375 C 1.171875 -0.578125 1.132812 -0.644531 1.0625 -0.6875 C 0.988281 -0.738281 0.878906 -0.765625 0.734375 -0.765625 L 0.4375 -0.765625 L 0.4375 -0.1875 L 0.75 -0.1875 C 0.894531 -0.1875 1 -0.207031 1.0625 -0.25 C 1.132812 -0.300781 1.171875 -0.378906 1.171875 -0.484375 Z M 1.078125 -1.21875 C 1.078125 -1.300781 1.046875 -1.359375 0.984375 -1.390625 C 0.921875 -1.429688 0.828125 -1.453125 0.703125 -1.453125 L 0.4375 -1.453125 L 0.4375 -0.953125 L 0.703125 -0.953125 C 0.953125 -0.953125 1.078125 -1.039062 1.078125 -1.21875 Z "/>
</g>
<g id="glyph-0-8">
<path d="M 1.265625 0 L 1.09375 -0.46875 L 0.40625 -0.46875 L 0.234375 0 L 0 0 L 0.625 -1.640625 L 0.890625 -1.640625 L 1.5 0 Z M 0.75 -1.46875 L 0.734375 -1.421875 L 0.65625 -1.171875 L 0.46875 -0.640625 L 1.03125 -0.640625 L 0.828125 -1.265625 Z "/>
</g>
<g id="glyph-0-9">
<path d="M 0.859375 -1.453125 L 0.859375 0 L 0.640625 0 L 0.640625 -1.453125 L 0.09375 -1.453125 L 0.09375 -1.640625 L 1.40625 -1.640625 L 1.40625 -1.453125 Z "/>
</g>
<g id="glyph-0-10">
<path d="M 1.015625 0 L 0.390625 -1.375 C 0.398438 -1.238281 0.40625 -1.132812 0.40625 -1.0625 L 0.40625 0 L 0.203125 0 L 0.203125 -1.640625 L 0.46875 -1.640625 L 1.109375 -0.25 C 1.097656 -0.375 1.09375 -0.488281 1.09375 -0.59375 L 1.09375 -1.640625 L 1.296875 -1.640625 L 1.296875 0 Z "/>
</g>
</g>
</defs>
<g fill="rgb(65.882353%, 84.705882%, 91.764706%)" fill-opacity="1">
<use xlink:href="#glyph-0-0" x="30" y="22.081055"/>
<use xlink:href="#glyph-0-1" x="32" y="22.081055"/>
<use xlink:href="#glyph-0-2" x="34" y="22.081055"/>
<use xlink:href="#glyph-0-3" x="36" y="22.081055"/>
<use xlink:href="#glyph-0-4" x="38" y="22.081055"/>
<use xlink:href="#glyph-0-5" x="40" y="22.081055"/>
<use xlink:href="#glyph-0-6" x="42" y="22.081055"/>
<use xlink:href="#glyph-0-1" x="44" y="22.081055"/>
<use xlink:href="#glyph-0-7" x="46" y="22.081055"/>
<use xlink:href="#glyph-0-3" x="48" y="22.081055"/>
<use xlink:href="#glyph-0-8" x="50" y="22.081055"/>
<use xlink:href="#glyph-0-9" x="52" y="22.081055"/>
<use xlink:href="#glyph-0-1" x="54" y="22.081055"/>
<use xlink:href="#glyph-0-4" x="56" y="22.081055"/>
<use xlink:href="#glyph-0-10" x="58" y="22.081055"/>
</g>
</svg>
