<?xml version="1.0" encoding="UTF-8"?>
<svg xmlns="http://www.w3.org/2000/svg" xmlns:xlink="http://www.w3.org/1999/xlink" width="1920" height="1080" viewBox="0 0 1920 1080">
<defs>
<g>
<g id="glyph-0-0">
<path d="M 0.765625 0 L 0.765625 -0.703125 C 0.765625 -0.773438 0.765625 -0.832031 0.765625 -0.875 L 0.765625 -0.953125 C 0.734375 -0.835938 0.707031 -0.757812 0.6875 -0.71875 L 0.5625 -0.359375 L 0.453125 -0.359375 L 0.3125 -0.71875 C 0.300781 -0.738281 0.273438 -0.816406 0.234375 -0.953125 L 0.234375 0 L 0.109375 0 L 0.109375 -1.09375 L 0.296875 -1.09375 L 0.453125 -0.703125 C 0.460938 -0.671875 0.476562 -0.609375 0.5 -0.515625 L 0.53125 -0.59375 L 0.5625 -0.703125 L 0.71875 -1.09375 L 0.890625 -1.09375 L 0.890625 0 Z "/>
</g>
<g id="glyph-0-1">
<path d="M 0.890625 -0.4375 C 0.890625 -0.289062 0.851562 -0.175781 0.78125 -0.09375 C 0.71875 -0.0195312 0.625 0.015625 0.5 0.015625 C 0.375 0.015625 0.273438 -0.0195312 0.203125 -0.09375 C 0.140625 -0.175781 0.109375 -0.289062 0.109375 -0.4375 C 0.109375 -0.59375 0.140625 -0.707031 0.203125 -0.78125 C 0.273438 -0.863281 0.375 -0.90625 0.5 -0.90625 C 0.632812 -0.90625 0.734375 -0.863281 0.796875 -0.78125 C 0.859375 -0.707031 0.890625 -0.59375 0.890625 -0.4375 Z M 0.734375 -0.4375 C 0.734375 -0.5625 0.710938 -0.648438 0.671875 -0.703125 C 0.640625 -0.765625 0.582031 -0.796875 0.5 -0.796875 C 0.414062 -0.796875 0.351562 -0.765625 0.3125 -0.703125 C 0.28125 -0.640625 0.265625 -0.550781 0.265625 -0.4375 C 0.265625 -0.320312 0.28125 -0.234375 0.3125 -0.171875 C 0.351562 -0.117188 0.414062 -0.09375 0.5 -0.09375 C 0.582031 -0.09375 0.640625 -0.117188 0.671875 -0.171875 C 0.710938 -0.234375 0.734375 -0.320312 0.734375 -0.4375 Z "/>
</g>
<g id="glyph-0-2">
<path d="M 0.703125 -0.140625 C 0.671875 -0.0859375 0.632812 -0.046875 0.59375 -0.015625 C 0.550781 0.00390625 0.5 0.015625 0.4375 0.015625 C 0.320312 0.015625 0.238281 -0.0195312 0.1875 -0.09375 C 0.132812 -0.164062 0.109375 -0.28125 0.109375 -0.4375 C 0.109375 -0.738281 0.21875 -0.890625 0.4375 -0.890625 C 0.5 -0.890625 0.550781 -0.878906 0.59375 -0.859375 C 0.644531 -0.835938 0.679688 -0.800781 0.703125 -0.75 L 0.703125 -1.21875 L 0.84375 -1.21875 L 0.84375 -0.1875 C 0.84375 -0.09375 0.847656 -0.03125 0.859375 0 L 0.71875 0 C 0.71875 -0.0078125 0.710938 -0.03125 0.703125 -0.0625 C 0.703125 -0.09375 0.703125 -0.117188 0.703125 -0.140625 Z M 0.265625 -0.4375 C 0.265625 -0.320312 0.28125 -0.234375 0.3125 -0.171875 C 0.34375 -0.117188 0.394531 -0.09375 0.46875 -0.09375 C 0.550781 -0.09375 0.609375 -0.117188 0.640625 -0.171875 C 0.679688 -0.234375 0.703125 -0.328125 0.703125 -0.453125 C 0.703125 -0.566406 0.679688 -0.648438 0.640625 -0.703125 C 0.609375 -0.753906 0.550781 -0.78125 0.46875 -0.78125 C 0.394531 -0.78125 0.34375 -0.753906 0.3125 -0.703125 C 0.28125 -0.648438 0.265625 -0.5625 0.265625 -0.4375 Z "/>
</g>
<g id="glyph-0-3">
<path d="M 0.296875 -0.890625 L 0.296875 -0.328125 C 0.296875 -0.242188 0.304688 -0.179688 0.328125 -0.140625 C 0.359375 -0.109375 0.410156 -0.09375 0.484375 -0.09375 C 0.554688 -0.09375 0.609375 -0.113281 0.640625 -0.15625 C 0.679688 -0.207031 0.703125 -0.28125 0.703125 -0.375 L 0.703125 -0.890625 L 0.859375 -0.890625 L 0.859375 -0.1875 C 0.859375 -0.0820312 0.859375 -0.0195312 0.859375 0 L 0.71875 0 C 0.71875 0 0.71875 -0.00390625 0.71875 -0.015625 C 0.71875 -0.0351562 0.71875 -0.0507812 0.71875 -0.0625 C 0.71875 -0.0820312 0.71875 -0.113281 0.71875 -0.15625 C 0.675781 -0.09375 0.632812 -0.046875 0.59375 -0.015625 C 0.550781 0.00390625 0.5 0.015625 0.4375 0.015625 C 0.332031 0.015625 0.257812 -0.00390625 0.21875 -0.046875 C 0.175781 -0.0976562 0.15625 -0.179688 0.15625 -0.296875 L 0.15625 -0.890625 Z "/>
</g>
<g id="glyph-0-4">
<path d="M 0.59375 -0.109375 L 0.90625 -0.109375 L 0.90625 0 L 0.109375 0 L 0.109375 -0.109375 L 0.453125 -0.109375 L 0.453125 -1.09375 L 0.21875 -1.09375 L 0.21875 -1.21875 L 0.59375 -1.21875 Z "/>
</g>
<g id="glyph-0-5">
<path d="M 0.90625 -0.09375 C 0.914062 -0.09375 0.929688 -0.09375 0.953125 -0.09375 L 0.953125 0 C 0.910156 0.0078125 0.867188 0.015625 0.828125 0.015625 C 0.773438 0.015625 0.734375 0 0.703125 -0.03125 C 0.679688 -0.0625 0.671875 -0.109375 0.671875 -0.171875 C 0.628906 -0.0976562 0.582031 -0.046875 0.53125 -0.015625 C 0.488281 0.00390625 0.429688 0.015625 0.359375 0.015625 C 0.273438 0.015625 0.210938 -0.00390625 0.171875 -0.046875 C 0.128906 -0.0976562 0.109375 -0.164062 0.109375 -0.25 C 0.109375 -0.4375 0.226562 -0.53125 0.46875 -0.53125 L 0.671875 -0.53125 L 0.671875 -0.59375 C 0.671875 -0.65625 0.65625 -0.703125 0.625 -0.734375 C 0.59375 -0.765625 0.546875 -0.78125 0.484375 -0.78125 C 0.421875 -0.78125 0.375 -0.769531 0.34375 -0.75 C 0.320312 -0.726562 0.304688 -0.691406 0.296875 -0.640625 L 0.140625 -0.65625 C 0.171875 -0.820312 0.285156 -0.90625 0.484375 -0.90625 C 0.597656 -0.90625 0.679688 -0.878906 0.734375 -0.828125 C 0.785156 -0.773438 0.8125 -0.703125 0.8125 -0.609375 L 0.8125 -0.21875 C 0.8125 -0.175781 0.816406 -0.144531 0.828125 -0.125 C 0.835938 -0.101562 0.863281 -0.09375 0.90625 -0.09375 Z M 0.40625 -0.09375 C 0.457031 -0.09375 0.5 -0.101562 0.53125 -0.125 C 0.570312 -0.15625 0.601562 -0.191406 0.625 -0.234375 C 0.65625 -0.273438 0.671875 -0.316406 0.671875 -0.359375 L 0.671875 -0.4375 L 0.515625 -0.4375 C 0.453125 -0.4375 0.398438 -0.425781 0.359375 -0.40625 C 0.328125 -0.394531 0.300781 -0.375 0.28125 -0.34375 C 0.269531 -0.320312 0.265625 -0.285156 0.265625 -0.234375 C 0.265625 -0.191406 0.273438 -0.15625 0.296875 -0.125 C 0.316406 -0.101562 0.351562 -0.09375 0.40625 -0.09375 Z "/>
</g>
<g id="glyph-0-6">
<path d="M 0.15625 -0.765625 L 0.15625 -0.890625 L 0.296875 -0.890625 L 0.34375 -1.109375 L 0.4375 -1.109375 L 0.4375 -0.890625 L 0.796875 -0.890625 L 0.796875 -0.765625 L 0.4375 -0.765625 L 0.4375 -0.234375 C 0.4375 -0.191406 0.445312 -0.160156 0.46875 -0.140625 C 0.5 -0.117188 0.539062 -0.109375 0.59375 -0.109375 C 0.664062 -0.109375 0.742188 -0.117188 0.828125 -0.140625 L 0.828125 -0.03125 C 0.734375 0 0.644531 0.015625 0.5625 0.015625 C 0.46875 0.015625 0.398438 0 0.359375 -0.03125 C 0.316406 -0.0703125 0.296875 -0.132812 0.296875 -0.21875 L 0.296875 -0.765625 Z "/>
</g>
<g id="glyph-0-7">
<path d="M 0.265625 -0.40625 C 0.265625 -0.3125 0.285156 -0.234375 0.328125 -0.171875 C 0.367188 -0.117188 0.429688 -0.09375 0.515625 -0.09375 C 0.566406 -0.09375 0.613281 -0.101562 0.65625 -0.125 C 0.695312 -0.15625 0.722656 -0.191406 0.734375 -0.234375 L 0.875 -0.1875 C 0.84375 -0.125 0.796875 -0.0703125 0.734375 -0.03125 C 0.671875 0 0.597656 0.015625 0.515625 0.015625 C 0.378906 0.015625 0.273438 -0.0195312 0.203125 -0.09375 C 0.140625 -0.175781 0.109375 -0.296875 0.109375 -0.453125 C 0.109375 -0.597656 0.140625 -0.707031 0.203125 -0.78125 C 0.273438 -0.863281 0.375 -0.90625 0.5 -0.90625 C 0.632812 -0.90625 0.734375 -0.863281 0.796875 -0.78125 C 0.859375 -0.707031 0.890625 -0.59375 0.890625 -0.4375 L 0.890625 -0.40625 Z M 0.5 -0.796875 C 0.425781 -0.796875 0.367188 -0.769531 0.328125 -0.71875 C 0.285156 -0.664062 0.265625 -0.597656 0.265625 -0.515625 L 0.734375 -0.515625 C 0.722656 -0.703125 0.644531 -0.796875 0.5 -0.796875 Z "/>
</g>
<g id="glyph-0-8">
</g>
<g id="glyph-0-9">
<path d="M 0.78125 0 L 0.484375 -0.46875 L 0.28125 -0.46875 L 0.28125 0 L 0.125 0 L 0.125 -1.09375 L 0.53125 -1.09375 C 0.65625 -1.09375 0.75 -1.066406 0.8125 -1.015625 C 0.882812 -0.960938 0.921875 -0.890625 0.921875 -0.796875 C 0.921875 -0.710938 0.894531 -0.644531 0.84375 -0.59375 C 0.789062 -0.539062 0.722656 -0.503906 0.640625 -0.484375 L 0.953125 0 Z M 0.765625 -0.796875 C 0.765625 -0.910156 0.679688 -0.96875 0.515625 -0.96875 L 0.28125 -0.96875 L 0.28125 -0.59375 L 0.515625 -0.59375 C 0.597656 -0.59375 0.660156 -0.609375 0.703125 -0.640625 C 0.742188 -0.679688 0.765625 -0.734375 0.765625 -0.796875 Z "/>
</g>
<g id="glyph-0-10">
<path d="M 0.46875 -0.765625 L 0.46875 0 L 0.328125 0 L 0.328125 -0.765625 L 0.109375 -0.765625 L 0.109375 -0.890625 L 0.328125 -0.890625 L 0.328125 -0.90625 C 0.328125 -1.019531 0.351562 -1.097656 0.40625 -1.140625 C 0.457031 -1.191406 0.546875 -1.21875 0.671875 -1.21875 C 0.703125 -1.21875 0.738281 -1.210938 0.78125 -1.203125 C 0.832031 -1.203125 0.867188 -1.195312 0.890625 -1.1875 L 0.890625 -1.078125 C 0.878906 -1.078125 0.847656 -1.078125 0.796875 -1.078125 C 0.742188 -1.085938 0.707031 -1.09375 0.6875 -1.09375 C 0.625 -1.09375 0.578125 -1.082031 0.546875 -1.0625 C 0.523438 -1.050781 0.503906 -1.03125 0.484375 -1 C 0.472656 -0.976562 0.46875 -0.941406 0.46875 -0.890625 L 0.875 -0.890625 L 0.875 -0.765625 Z "/>
</g>
<g id="glyph-0-11">
<path d="M 0.109375 -0.4375 C 0.109375 -0.582031 0.140625 -0.695312 0.203125 -0.78125 C 0.273438 -0.863281 0.378906 -0.90625 0.515625 -0.90625 C 0.617188 -0.90625 0.703125 -0.878906 0.765625 -0.828125 C 0.828125 -0.773438 0.863281 -0.710938 0.875 -0.640625 L 0.71875 -0.625 C 0.707031 -0.675781 0.6875 -0.710938 0.65625 -0.734375 C 0.625 -0.765625 0.578125 -0.78125 0.515625 -0.78125 C 0.421875 -0.78125 0.351562 -0.753906 0.3125 -0.703125 C 0.28125 -0.648438 0.265625 -0.566406 0.265625 -0.453125 C 0.265625 -0.328125 0.28125 -0.234375 0.3125 -0.171875 C 0.351562 -0.117188 0.421875 -0.09375 0.515625 -0.09375 C 0.566406 -0.09375 0.613281 -0.109375 0.65625 -0.140625 C 0.695312 -0.171875 0.71875 -0.210938 0.71875 -0.265625 L 0.875 -0.265625 C 0.875 -0.210938 0.859375 -0.164062 0.828125 -0.125 C 0.796875 -0.0820312 0.75 -0.046875 0.6875 -0.015625 C 0.632812 0.00390625 0.578125 0.015625 0.515625 0.015625 C 0.378906 0.015625 0.273438 -0.0195312 0.203125 -0.09375 C 0.140625 -0.175781 0.109375 -0.289062 0.109375 -0.4375 Z "/>
</g>
<g id="glyph-0-12">
<path d="M 0.609375 -0.109375 L 0.921875 -0.109375 L 0.921875 0 L 0.109375 0 L 0.109375 -0.109375 L 0.46875 -0.109375 L 0.46875 -0.765625 L 0.203125 -0.765625 L 0.203125 -0.890625 L 0.609375 -0.890625 Z M 0.4375 -1.0625 L 0.4375 -1.21875 L 0.609375 -1.21875 L 0.609375 -1.0625 Z "/>
</g>
<g id="glyph-0-13">
<path d="M 0.703125 0 L 0.703125 -0.5625 C 0.703125 -0.632812 0.6875 -0.6875 0.65625 -0.71875 C 0.632812 -0.757812 0.59375 -0.78125 0.53125 -0.78125 C 0.457031 -0.78125 0.398438 -0.753906 0.359375 -0.703125 C 0.316406 -0.660156 0.296875 -0.597656 0.296875 -0.515625 L 0.296875 0 L 0.15625 0 L 0.15625 -0.6875 C 0.15625 -0.789062 0.148438 -0.859375 0.140625 -0.890625 L 0.28125 -0.890625 C 0.28125 -0.878906 0.28125 -0.867188 0.28125 -0.859375 C 0.28125 -0.847656 0.28125 -0.832031 0.28125 -0.8125 C 0.289062 -0.800781 0.296875 -0.773438 0.296875 -0.734375 C 0.347656 -0.847656 0.441406 -0.90625 0.578125 -0.90625 C 0.671875 -0.90625 0.738281 -0.878906 0.78125 -0.828125 C 0.832031 -0.773438 0.859375 -0.695312 0.859375 -0.59375 L 0.859375 0 Z "/>
</g>
</g>
</defs>
<g fill="rgb(82.745098%, 27.843137%, 18.431373%)" fill-opacity="1">
<use xlink:href="#glyph-0-0" x="30" y="21.387695"/>
<use xlink:href="#glyph-0-1" x="31" y="21.387695"/>
<use xlink:href="#glyph-0-2" x="32" y="21.387695"/>
<use xlink:href="#glyph-0-3" x="33" y="21.387695"/>
<use xlink:href="#glyph-0-4" x="34" y="21.387695"/>
<use xlink:href="#glyph-0-5" x="35" y="21.387695"/>
<use xlink:href="#glyph-0-6" x="36" y="21.387695"/>
<use xlink:href="#glyph-0-7" x="37" y="21.387695"/>
<use xlink:href="#glyph-0-2" x="38" y="21.387695"/>
<use xlink:href="#glyph-0-8" x="39" y="21.387695"/>
</g>
<g fill="rgb(82.745098%, 27.843137%, 18.431373%)" fill-opacity="1">
<use xlink:href="#glyph-0-9" x="30" y="23.700195"/>
<use xlink:href="#glyph-0-7" x="31" y="23.700195"/>
<use xlink:href="#glyph-0-10" x="32" y="23.700195"/>
<use xlink:href="#glyph-0-4" x="33" y="23.700195"/>
<use xlink:href="#glyph-0-7" x="34" y="23.700195"/>
<use xlink:href="#glyph-0-11" x="35" y="23.700195"/>
<use xlink:href="#glyph-0-6" x="36" y="23.700195"/>
<use xlink:href="#glyph-0-12" x="37" y="23.700195"/>
<use xlink:href="#glyph-0-1" x="38" y="23.700195"/>
<use xlink:href="#glyph-0-13" x="39" y="23.700195"/>
</g>
</svg>
