<?xml version="1.0" encoding="UTF-8"?>
<svg xmlns="http://www.w3.org/2000/svg" xmlns:xlink="http://www.w3.org/1999/xlink" width="1920" height="1080" viewBox="0 0 1920 1080">
<defs>
<g>
<g id="glyph-0-0">
<path d="M 1.6875 -0.546875 C 1.6875 -0.367188 1.617188 -0.226562 1.484375 -0.125 C 1.347656 -0.0195312 1.15625 0.03125 0.90625 0.03125 C 0.457031 0.03125 0.195312 -0.144531 0.125 -0.5 L 0.390625 -0.5625 C 0.421875 -0.4375 0.476562 -0.34375 0.5625 -0.28125 C 0.65625 -0.21875 0.773438 -0.1875 0.921875 -0.1875 C 1.078125 -0.1875 1.195312 -0.21875 1.28125 -0.28125 C 1.363281 -0.34375 1.40625 -0.429688 1.40625 -0.546875 C 1.40625 -0.617188 1.390625 -0.675781 1.359375 -0.71875 C 1.328125 -0.757812 1.285156 -0.796875 1.234375 -0.828125 C 1.179688 -0.859375 1.117188 -0.878906 1.046875 -0.890625 C 0.984375 -0.910156 0.914062 -0.929688 0.84375 -0.953125 C 0.6875 -0.992188 0.570312 -1.03125 0.5 -1.0625 C 0.4375 -1.09375 0.382812 -1.128906 0.34375 -1.171875 C 0.300781 -1.210938 0.269531 -1.257812 0.25 -1.3125 C 0.226562 -1.375 0.21875 -1.441406 0.21875 -1.515625 C 0.21875 -1.679688 0.273438 -1.8125 0.390625 -1.90625 C 0.515625 -2 0.691406 -2.046875 0.921875 -2.046875 C 1.128906 -2.046875 1.289062 -2.007812 1.40625 -1.9375 C 1.519531 -1.863281 1.597656 -1.738281 1.640625 -1.5625 L 1.359375 -1.515625 C 1.335938 -1.628906 1.289062 -1.707031 1.21875 -1.75 C 1.144531 -1.800781 1.046875 -1.828125 0.921875 -1.828125 C 0.640625 -1.828125 0.5 -1.722656 0.5 -1.515625 C 0.5 -1.453125 0.507812 -1.398438 0.53125 -1.359375 C 0.5625 -1.328125 0.597656 -1.296875 0.640625 -1.265625 C 0.679688 -1.242188 0.734375 -1.222656 0.796875 -1.203125 C 0.859375 -1.191406 0.925781 -1.179688 1 -1.171875 C 1.132812 -1.128906 1.234375 -1.097656 1.296875 -1.078125 C 1.359375 -1.054688 1.410156 -1.03125 1.453125 -1 C 1.503906 -0.96875 1.546875 -0.929688 1.578125 -0.890625 C 1.609375 -0.847656 1.632812 -0.800781 1.65625 -0.75 C 1.675781 -0.695312 1.6875 -0.628906 1.6875 -0.546875 Z "/>
</g>
<g id="glyph-0-1">
<path d="M 1.640625 -0.8125 C 1.640625 -0.539062 1.578125 -0.332031 1.453125 -0.1875 C 1.328125 -0.0390625 1.144531 0.03125 0.90625 0.03125 C 0.675781 0.03125 0.5 -0.0390625 0.375 -0.1875 C 0.25 -0.332031 0.1875 -0.539062 0.1875 -0.8125 C 0.1875 -1.09375 0.25 -1.300781 0.375 -1.4375 C 0.507812 -1.570312 0.691406 -1.640625 0.921875 -1.640625 C 1.160156 -1.640625 1.335938 -1.570312 1.453125 -1.4375 C 1.578125 -1.300781 1.640625 -1.09375 1.640625 -0.8125 Z M 1.359375 -0.8125 C 1.359375 -1.019531 1.320312 -1.175781 1.25 -1.28125 C 1.1875 -1.394531 1.078125 -1.453125 0.921875 -1.453125 C 0.765625 -1.453125 0.648438 -1.394531 0.578125 -1.28125 C 0.515625 -1.175781 0.484375 -1.019531 0.484375 -0.8125 C 0.484375 -0.601562 0.515625 -0.441406 0.578125 -0.328125 C 0.648438 -0.222656 0.757812 -0.171875 0.90625 -0.171875 C 1.0625 -0.171875 1.175781 -0.222656 1.25 -0.328125 C 1.320312 -0.429688 1.359375 -0.59375 1.359375 -0.8125 Z "/>
</g>
<g id="glyph-0-2">
<path d="M 0.546875 -1.625 L 0.546875 -0.59375 C 0.546875 -0.4375 0.566406 -0.328125 0.609375 -0.265625 C 0.660156 -0.203125 0.75 -0.171875 0.875 -0.171875 C 1.007812 -0.171875 1.113281 -0.210938 1.1875 -0.296875 C 1.257812 -0.390625 1.296875 -0.519531 1.296875 -0.6875 L 1.296875 -1.625 L 1.5625 -1.625 L 1.5625 -0.34375 C 1.5625 -0.15625 1.566406 -0.0390625 1.578125 0 L 1.328125 0 C 1.328125 0 1.320312 -0.0078125 1.3125 -0.03125 C 1.3125 -0.0625 1.3125 -0.0859375 1.3125 -0.109375 C 1.3125 -0.140625 1.3125 -0.195312 1.3125 -0.28125 C 1.25 -0.164062 1.175781 -0.0820312 1.09375 -0.03125 C 1.007812 0.0078125 0.910156 0.03125 0.796875 0.03125 C 0.609375 0.03125 0.472656 -0.0078125 0.390625 -0.09375 C 0.316406 -0.1875 0.28125 -0.335938 0.28125 -0.546875 L 0.28125 -1.625 Z "/>
</g>
<g id="glyph-0-3">
<path d="M 1.296875 0 L 1.296875 -1.046875 C 1.296875 -1.179688 1.269531 -1.28125 1.21875 -1.34375 C 1.164062 -1.40625 1.082031 -1.4375 0.96875 -1.4375 C 0.84375 -1.4375 0.738281 -1.390625 0.65625 -1.296875 C 0.582031 -1.210938 0.546875 -1.09375 0.546875 -0.9375 L 0.546875 0 L 0.28125 0 L 0.28125 -1.265625 C 0.28125 -1.460938 0.273438 -1.582031 0.265625 -1.625 L 0.515625 -1.625 C 0.515625 -1.613281 0.515625 -1.597656 0.515625 -1.578125 C 0.523438 -1.554688 0.53125 -1.53125 0.53125 -1.5 C 0.53125 -1.46875 0.53125 -1.414062 0.53125 -1.34375 C 0.644531 -1.539062 0.820312 -1.640625 1.0625 -1.640625 C 1.226562 -1.640625 1.351562 -1.59375 1.4375 -1.5 C 1.519531 -1.414062 1.5625 -1.273438 1.5625 -1.078125 L 1.5625 0 Z "/>
</g>
<g id="glyph-0-4">
<path d="M 1.28125 -0.265625 C 1.238281 -0.160156 1.175781 -0.0820312 1.09375 -0.03125 C 1.007812 0.0078125 0.910156 0.03125 0.796875 0.03125 C 0.585938 0.03125 0.4375 -0.0351562 0.34375 -0.171875 C 0.25 -0.304688 0.203125 -0.515625 0.203125 -0.796875 C 0.203125 -1.359375 0.398438 -1.640625 0.796875 -1.640625 C 0.910156 -1.640625 1.007812 -1.617188 1.09375 -1.578125 C 1.175781 -1.535156 1.242188 -1.460938 1.296875 -1.359375 L 1.296875 -2.21875 L 1.5625 -2.21875 L 1.5625 -0.328125 C 1.5625 -0.160156 1.5625 -0.0507812 1.5625 0 L 1.3125 0 C 1.3125 -0.0078125 1.304688 -0.046875 1.296875 -0.109375 C 1.296875 -0.171875 1.296875 -0.222656 1.296875 -0.265625 Z M 0.484375 -0.796875 C 0.484375 -0.578125 0.507812 -0.414062 0.5625 -0.3125 C 0.625 -0.21875 0.722656 -0.171875 0.859375 -0.171875 C 1.003906 -0.171875 1.113281 -0.222656 1.1875 -0.328125 C 1.257812 -0.429688 1.296875 -0.597656 1.296875 -0.828125 C 1.296875 -1.046875 1.257812 -1.203125 1.1875 -1.296875 C 1.125 -1.390625 1.015625 -1.4375 0.859375 -1.4375 C 0.722656 -1.4375 0.625 -1.382812 0.5625 -1.28125 C 0.507812 -1.1875 0.484375 -1.023438 0.484375 -0.796875 Z "/>
</g>
<g id="glyph-0-5">
</g>
<g id="glyph-0-6">
<path d="M 1.0625 0 L 0.75 0 L 0.109375 -1.625 L 0.40625 -1.625 L 0.8125 -0.5625 L 0.828125 -0.484375 L 0.90625 -0.203125 L 0.96875 -0.390625 L 1.015625 -0.5625 L 1.4375 -1.625 L 1.734375 -1.625 Z "/>
</g>
<g id="glyph-0-7">
<path d="M 1.109375 -0.21875 L 1.6875 -0.21875 L 1.6875 0 L 0.21875 0 L 0.21875 -0.21875 L 0.84375 -0.21875 L 0.84375 -1.40625 L 0.375 -1.40625 L 0.375 -1.625 L 1.109375 -1.625 Z M 0.8125 -1.9375 L 0.8125 -2.21875 L 1.109375 -2.21875 L 1.109375 -1.9375 Z "/>
</g>
<g id="glyph-0-8">
<path d="M 1.625 -0.8125 C 1.625 -0.53125 1.570312 -0.316406 1.46875 -0.171875 C 1.375 -0.0351562 1.234375 0.03125 1.046875 0.03125 C 0.796875 0.03125 0.628906 -0.0625 0.546875 -0.25 C 0.546875 -0.195312 0.539062 -0.144531 0.53125 -0.09375 C 0.53125 -0.0390625 0.53125 -0.0078125 0.53125 0 L 0.265625 0 C 0.273438 -0.0507812 0.28125 -0.160156 0.28125 -0.328125 L 0.28125 -2.21875 L 0.546875 -2.21875 L 0.546875 -1.59375 C 0.546875 -1.519531 0.546875 -1.441406 0.546875 -1.359375 C 0.640625 -1.554688 0.804688 -1.65625 1.046875 -1.65625 C 1.429688 -1.65625 1.625 -1.375 1.625 -0.8125 Z M 1.359375 -0.8125 C 1.359375 -1.03125 1.328125 -1.1875 1.265625 -1.28125 C 1.203125 -1.382812 1.101562 -1.4375 0.96875 -1.4375 C 0.820312 -1.4375 0.710938 -1.378906 0.640625 -1.265625 C 0.578125 -1.160156 0.546875 -1 0.546875 -0.78125 C 0.546875 -0.570312 0.578125 -0.414062 0.640625 -0.3125 C 0.710938 -0.21875 0.820312 -0.171875 0.96875 -0.171875 C 1.101562 -0.171875 1.203125 -0.222656 1.265625 -0.328125 C 1.328125 -0.429688 1.359375 -0.59375 1.359375 -0.8125 Z "/>
</g>
<g id="glyph-0-9">
<path d="M 1.5625 -1.375 C 1.445312 -1.394531 1.34375 -1.40625 1.25 -1.40625 C 1.082031 -1.40625 0.945312 -1.34375 0.84375 -1.21875 C 0.75 -1.101562 0.703125 -0.953125 0.703125 -0.765625 L 0.703125 0 L 0.4375 0 L 0.4375 -1.046875 C 0.4375 -1.117188 0.429688 -1.207031 0.421875 -1.3125 C 0.410156 -1.414062 0.390625 -1.519531 0.359375 -1.625 L 0.625 -1.625 C 0.65625 -1.476562 0.675781 -1.351562 0.6875 -1.25 L 0.703125 -1.25 C 0.742188 -1.351562 0.789062 -1.429688 0.84375 -1.484375 C 0.894531 -1.535156 0.953125 -1.570312 1.015625 -1.59375 C 1.078125 -1.625 1.15625 -1.640625 1.25 -1.640625 C 1.351562 -1.640625 1.457031 -1.632812 1.5625 -1.625 Z "/>
</g>
<g id="glyph-0-10">
<path d="M 1.640625 -0.171875 C 1.671875 -0.171875 1.703125 -0.171875 1.734375 -0.171875 L 1.734375 -0.015625 C 1.671875 0.00390625 1.601562 0.015625 1.53125 0.015625 C 1.425781 0.015625 1.347656 -0.0078125 1.296875 -0.0625 C 1.253906 -0.113281 1.234375 -0.195312 1.234375 -0.3125 L 1.21875 -0.3125 C 1.15625 -0.1875 1.078125 -0.0976562 0.984375 -0.046875 C 0.898438 0.00390625 0.796875 0.03125 0.671875 0.03125 C 0.515625 0.03125 0.394531 -0.0078125 0.3125 -0.09375 C 0.226562 -0.1875 0.1875 -0.304688 0.1875 -0.453125 C 0.1875 -0.796875 0.414062 -0.972656 0.875 -0.984375 L 1.21875 -0.984375 L 1.21875 -1.078125 C 1.21875 -1.203125 1.191406 -1.289062 1.140625 -1.34375 C 1.085938 -1.40625 1.003906 -1.4375 0.890625 -1.4375 C 0.773438 -1.4375 0.691406 -1.414062 0.640625 -1.375 C 0.585938 -1.332031 0.554688 -1.269531 0.546875 -1.1875 L 0.265625 -1.21875 C 0.304688 -1.5 0.515625 -1.640625 0.890625 -1.640625 C 1.085938 -1.640625 1.238281 -1.59375 1.34375 -1.5 C 1.445312 -1.414062 1.5 -1.285156 1.5 -1.109375 L 1.5 -0.40625 C 1.5 -0.320312 1.507812 -0.257812 1.53125 -0.21875 C 1.550781 -0.1875 1.585938 -0.171875 1.640625 -0.171875 Z M 0.734375 -0.171875 C 0.828125 -0.171875 0.910156 -0.191406 0.984375 -0.234375 C 1.054688 -0.285156 1.113281 -0.347656 1.15625 -0.421875 C 1.195312 -0.503906 1.21875 -0.585938 1.21875 -0.671875 L 1.21875 -0.796875 L 0.9375 -0.796875 C 0.820312 -0.796875 0.734375 -0.78125 0.671875 -0.75 C 0.609375 -0.726562 0.554688 -0.691406 0.515625 -0.640625 C 0.484375 -0.585938 0.46875 -0.519531 0.46875 -0.4375 C 0.46875 -0.363281 0.488281 -0.300781 0.53125 -0.25 C 0.582031 -0.195312 0.648438 -0.171875 0.734375 -0.171875 Z "/>
</g>
<g id="glyph-0-11">
<path d="M 0.28125 -1.40625 L 0.28125 -1.625 L 0.53125 -1.625 L 0.625 -2.046875 L 0.796875 -2.046875 L 0.796875 -1.625 L 1.453125 -1.625 L 1.453125 -1.40625 L 0.796875 -1.40625 L 0.796875 -0.4375 C 0.796875 -0.351562 0.816406 -0.289062 0.859375 -0.25 C 0.910156 -0.21875 0.984375 -0.203125 1.078125 -0.203125 C 1.210938 -0.203125 1.359375 -0.21875 1.515625 -0.25 L 1.515625 -0.046875 C 1.347656 0.00390625 1.179688 0.03125 1.015625 0.03125 C 0.859375 0.03125 0.738281 -0.00390625 0.65625 -0.078125 C 0.570312 -0.148438 0.53125 -0.257812 0.53125 -0.40625 L 0.53125 -1.40625 Z "/>
</g>
<g id="glyph-0-12">
<path d="M 0.484375 -0.75 C 0.484375 -0.570312 0.519531 -0.429688 0.59375 -0.328125 C 0.675781 -0.222656 0.789062 -0.171875 0.9375 -0.171875 C 1.03125 -0.171875 1.113281 -0.191406 1.1875 -0.234375 C 1.269531 -0.285156 1.328125 -0.347656 1.359375 -0.421875 L 1.59375 -0.359375 C 1.550781 -0.234375 1.46875 -0.132812 1.34375 -0.0625 C 1.226562 0 1.09375 0.03125 0.9375 0.03125 C 0.695312 0.03125 0.515625 -0.0390625 0.390625 -0.1875 C 0.265625 -0.332031 0.203125 -0.539062 0.203125 -0.8125 C 0.203125 -1.082031 0.265625 -1.285156 0.390625 -1.421875 C 0.515625 -1.566406 0.691406 -1.640625 0.921875 -1.640625 C 1.160156 -1.640625 1.335938 -1.566406 1.453125 -1.421875 C 1.578125 -1.285156 1.640625 -1.070312 1.640625 -0.78125 L 1.640625 -0.75 Z M 0.921875 -1.453125 C 0.785156 -1.453125 0.675781 -1.40625 0.59375 -1.3125 C 0.519531 -1.226562 0.484375 -1.109375 0.484375 -0.953125 L 1.359375 -0.953125 C 1.328125 -1.285156 1.179688 -1.453125 0.921875 -1.453125 Z "/>
</g>
<g id="glyph-0-13">
<path d="M 1.578125 -0.46875 C 1.578125 -0.3125 1.519531 -0.1875 1.40625 -0.09375 C 1.289062 -0.0078125 1.128906 0.03125 0.921875 0.03125 C 0.722656 0.03125 0.566406 0 0.453125 -0.0625 C 0.347656 -0.125 0.28125 -0.226562 0.25 -0.375 L 0.484375 -0.421875 C 0.503906 -0.328125 0.546875 -0.257812 0.609375 -0.21875 C 0.671875 -0.1875 0.773438 -0.171875 0.921875 -0.171875 C 1.191406 -0.171875 1.328125 -0.253906 1.328125 -0.421875 C 1.328125 -0.484375 1.300781 -0.535156 1.25 -0.578125 C 1.207031 -0.617188 1.132812 -0.648438 1.03125 -0.671875 C 0.769531 -0.742188 0.601562 -0.796875 0.53125 -0.828125 C 0.457031 -0.867188 0.398438 -0.914062 0.359375 -0.96875 C 0.328125 -1.019531 0.3125 -1.085938 0.3125 -1.171875 C 0.3125 -1.316406 0.363281 -1.429688 0.46875 -1.515625 C 0.570312 -1.597656 0.726562 -1.640625 0.9375 -1.640625 C 1.101562 -1.640625 1.238281 -1.601562 1.34375 -1.53125 C 1.457031 -1.46875 1.523438 -1.375 1.546875 -1.25 L 1.3125 -1.21875 C 1.289062 -1.289062 1.25 -1.34375 1.1875 -1.375 C 1.132812 -1.414062 1.050781 -1.4375 0.9375 -1.4375 C 0.6875 -1.4375 0.5625 -1.363281 0.5625 -1.21875 C 0.5625 -1.15625 0.582031 -1.101562 0.625 -1.0625 C 0.664062 -1.03125 0.734375 -1.003906 0.828125 -0.984375 L 1 -0.9375 C 1.164062 -0.894531 1.285156 -0.851562 1.359375 -0.8125 C 1.429688 -0.78125 1.484375 -0.734375 1.515625 -0.671875 C 1.554688 -0.617188 1.578125 -0.550781 1.578125 -0.46875 Z "/>
</g>
<g id="glyph-0-14">
<path d="M 0.921875 0.640625 C 0.753906 0.640625 0.617188 0.601562 0.515625 0.53125 C 0.410156 0.457031 0.347656 0.359375 0.328125 0.234375 L 0.59375 0.203125 C 0.613281 0.273438 0.648438 0.332031 0.703125 0.375 C 0.765625 0.414062 0.835938 0.4375 0.921875 0.4375 C 1.171875 0.4375 1.296875 0.273438 1.296875 -0.046875 L 1.296875 -0.328125 C 1.242188 -0.222656 1.175781 -0.144531 1.09375 -0.09375 C 1.007812 -0.0390625 0.90625 -0.015625 0.78125 -0.015625 C 0.582031 -0.015625 0.4375 -0.078125 0.34375 -0.203125 C 0.257812 -0.335938 0.21875 -0.546875 0.21875 -0.828125 C 0.21875 -1.109375 0.265625 -1.3125 0.359375 -1.4375 C 0.453125 -1.570312 0.601562 -1.640625 0.8125 -1.640625 C 0.925781 -1.640625 1.023438 -1.613281 1.109375 -1.5625 C 1.191406 -1.507812 1.253906 -1.4375 1.296875 -1.34375 C 1.296875 -1.375 1.296875 -1.421875 1.296875 -1.484375 C 1.304688 -1.554688 1.316406 -1.601562 1.328125 -1.625 L 1.578125 -1.625 C 1.566406 -1.5625 1.5625 -1.445312 1.5625 -1.28125 L 1.5625 -0.046875 C 1.5625 0.179688 1.507812 0.351562 1.40625 0.46875 C 1.300781 0.582031 1.140625 0.640625 0.921875 0.640625 Z M 1.296875 -0.828125 C 1.296875 -1.015625 1.257812 -1.160156 1.1875 -1.265625 C 1.113281 -1.378906 1.007812 -1.4375 0.875 -1.4375 C 0.738281 -1.4375 0.640625 -1.390625 0.578125 -1.296875 C 0.515625 -1.203125 0.484375 -1.046875 0.484375 -0.828125 C 0.484375 -0.671875 0.492188 -0.550781 0.515625 -0.46875 C 0.546875 -0.382812 0.585938 -0.320312 0.640625 -0.28125 C 0.703125 -0.238281 0.78125 -0.21875 0.875 -0.21875 C 0.957031 -0.21875 1.03125 -0.238281 1.09375 -0.28125 C 1.15625 -0.332031 1.203125 -0.398438 1.234375 -0.484375 C 1.273438 -0.578125 1.296875 -0.691406 1.296875 -0.828125 Z "/>
</g>
<g id="glyph-0-15">
<path d="M 1.09375 -0.21875 L 1.671875 -0.21875 L 1.671875 0 L 0.203125 0 L 0.203125 -0.21875 L 0.828125 -0.21875 L 0.828125 -2 L 0.40625 -2 L 0.40625 -2.21875 L 1.09375 -2.21875 Z "/>
</g>
<g id="glyph-0-16">
<path d="M 1.484375 -0.859375 C 1.429688 -0.921875 1.375 -1.019531 1.3125 -1.15625 L 1.421875 -1.15625 C 1.546875 -1 1.679688 -0.882812 1.828125 -0.8125 L 1.828125 -0.765625 C 1.679688 -0.691406 1.546875 -0.582031 1.421875 -0.4375 L 1.3125 -0.4375 C 1.375 -0.5625 1.429688 -0.660156 1.484375 -0.734375 L 0.015625 -0.734375 L 0.015625 -0.859375 Z "/>
</g>
<g id="glyph-0-17">
<path d="M 1.640625 -0.203125 C 1.410156 -0.046875 1.179688 0.03125 0.953125 0.03125 C 0.703125 0.03125 0.507812 -0.0625 0.375 -0.25 C 0.238281 -0.4375 0.171875 -0.691406 0.171875 -1.015625 C 0.171875 -1.359375 0.234375 -1.613281 0.359375 -1.78125 C 0.492188 -1.957031 0.691406 -2.046875 0.953125 -2.046875 C 1.304688 -2.046875 1.539062 -1.878906 1.65625 -1.546875 L 1.390625 -1.46875 C 1.316406 -1.695312 1.175781 -1.8125 0.96875 -1.8125 C 0.789062 -1.8125 0.660156 -1.75 0.578125 -1.625 C 0.503906 -1.5 0.46875 -1.296875 0.46875 -1.015625 C 0.46875 -0.472656 0.640625 -0.203125 0.984375 -0.203125 C 1.046875 -0.203125 1.113281 -0.210938 1.1875 -0.234375 C 1.257812 -0.253906 1.320312 -0.28125 1.375 -0.3125 L 1.375 -0.8125 L 0.9375 -0.8125 L 0.9375 -1.046875 L 1.640625 -1.046875 Z "/>
</g>
<g id="glyph-0-18">
<path d="M 0.796875 0 L 0.796875 -1.03125 C 0.796875 -1.175781 0.78125 -1.28125 0.75 -1.34375 C 0.726562 -1.40625 0.6875 -1.4375 0.625 -1.4375 C 0.5625 -1.4375 0.507812 -1.390625 0.46875 -1.296875 C 0.425781 -1.203125 0.40625 -1.070312 0.40625 -0.90625 L 0.40625 0 L 0.15625 0 L 0.15625 -1.265625 C 0.15625 -1.460938 0.148438 -1.582031 0.140625 -1.625 L 0.375 -1.625 L 0.375 -1.359375 L 0.390625 -1.359375 C 0.421875 -1.460938 0.460938 -1.535156 0.515625 -1.578125 C 0.566406 -1.617188 0.628906 -1.640625 0.703125 -1.640625 C 0.796875 -1.640625 0.863281 -1.613281 0.90625 -1.5625 C 0.945312 -1.519531 0.976562 -1.453125 1 -1.359375 C 1.039062 -1.460938 1.085938 -1.535156 1.140625 -1.578125 C 1.191406 -1.617188 1.265625 -1.640625 1.359375 -1.640625 C 1.472656 -1.640625 1.554688 -1.597656 1.609375 -1.515625 C 1.660156 -1.429688 1.6875 -1.285156 1.6875 -1.078125 L 1.6875 0 L 1.421875 0 L 1.421875 -1.03125 C 1.421875 -1.175781 1.410156 -1.28125 1.390625 -1.34375 C 1.367188 -1.40625 1.328125 -1.4375 1.265625 -1.4375 C 1.191406 -1.4375 1.132812 -1.394531 1.09375 -1.3125 C 1.0625 -1.226562 1.046875 -1.101562 1.046875 -0.9375 L 1.046875 0 Z "/>
</g>
<g id="glyph-0-19">
<path d="M 1.671875 -1.40625 C 1.671875 -1.28125 1.640625 -1.171875 1.578125 -1.078125 C 1.523438 -0.984375 1.441406 -0.90625 1.328125 -0.84375 C 1.222656 -0.789062 1.097656 -0.765625 0.953125 -0.765625 L 0.53125 -0.765625 L 0.53125 0 L 0.25 0 L 0.25 -2.015625 L 0.9375 -2.015625 C 1.164062 -2.015625 1.34375 -1.960938 1.46875 -1.859375 C 1.601562 -1.753906 1.671875 -1.601562 1.671875 -1.40625 Z M 1.390625 -1.40625 C 1.390625 -1.65625 1.222656 -1.78125 0.890625 -1.78125 L 0.53125 -1.78125 L 0.53125 -1 L 0.90625 -1 C 1.050781 -1 1.164062 -1.035156 1.25 -1.109375 C 1.34375 -1.179688 1.390625 -1.28125 1.390625 -1.40625 Z "/>
</g>
<g id="glyph-0-20">
<path d="M 0.28125 -2.21875 L 0.546875 -2.21875 L 0.546875 -1.640625 C 0.546875 -1.578125 0.539062 -1.476562 0.53125 -1.34375 C 0.644531 -1.539062 0.816406 -1.640625 1.046875 -1.640625 C 1.390625 -1.640625 1.5625 -1.453125 1.5625 -1.078125 L 1.5625 0 L 1.296875 0 L 1.296875 -1.046875 C 1.296875 -1.179688 1.269531 -1.28125 1.21875 -1.34375 C 1.164062 -1.40625 1.082031 -1.4375 0.96875 -1.4375 C 0.84375 -1.4375 0.738281 -1.390625 0.65625 -1.296875 C 0.582031 -1.210938 0.546875 -1.09375 0.546875 -0.9375 L 0.546875 0 L 0.28125 0 Z "/>
</g>
<g id="glyph-0-21">
<path d="M 0.1875 -0.8125 C 0.1875 -1.082031 0.25 -1.285156 0.375 -1.421875 C 0.507812 -1.566406 0.695312 -1.640625 0.9375 -1.640625 C 1.125 -1.640625 1.273438 -1.597656 1.390625 -1.515625 C 1.503906 -1.429688 1.578125 -1.316406 1.609375 -1.171875 L 1.328125 -1.140625 C 1.304688 -1.234375 1.265625 -1.304688 1.203125 -1.359375 C 1.140625 -1.410156 1.050781 -1.4375 0.9375 -1.4375 C 0.78125 -1.4375 0.664062 -1.382812 0.59375 -1.28125 C 0.519531 -1.1875 0.484375 -1.03125 0.484375 -0.8125 C 0.484375 -0.59375 0.519531 -0.429688 0.59375 -0.328125 C 0.664062 -0.222656 0.78125 -0.171875 0.9375 -0.171875 C 1.039062 -0.171875 1.128906 -0.195312 1.203125 -0.25 C 1.273438 -0.3125 1.316406 -0.394531 1.328125 -0.5 L 1.609375 -0.484375 C 1.597656 -0.390625 1.5625 -0.300781 1.5 -0.21875 C 1.445312 -0.144531 1.367188 -0.0820312 1.265625 -0.03125 C 1.171875 0.0078125 1.0625 0.03125 0.9375 0.03125 C 0.695312 0.03125 0.507812 -0.0390625 0.375 -0.1875 C 0.25 -0.332031 0.1875 -0.539062 0.1875 -0.8125 Z "/>
</g>
</g>
</defs>
<g fill="rgb(0%, 100%, 80%)" fill-opacity="1">
<use xlink:href="#glyph-0-0" x="30" y="22.543945"/>
<use xlink:href="#glyph-0-1" x="32" y="22.543945"/>
<use xlink:href="#glyph-0-2" x="34" y="22.543945"/>
<use xlink:href="#glyph-0-3" x="36" y="22.543945"/>
<use xlink:href="#glyph-0-4" x="38" y="22.543945"/>
<use xlink:href="#glyph-0-5" x="40" y="22.543945"/>
<use xlink:href="#glyph-0-6" x="42" y="22.543945"/>
<use xlink:href="#glyph-0-7" x="44" y="22.543945"/>
<use xlink:href="#glyph-0-8" x="46" y="22.543945"/>
<use xlink:href="#glyph-0-9" x="48" y="22.543945"/>
<use xlink:href="#glyph-0-10" x="50" y="22.543945"/>
<use xlink:href="#glyph-0-11" x="52" y="22.543945"/>
<use xlink:href="#glyph-0-12" x="54" y="22.543945"/>
<use xlink:href="#glyph-0-13" x="56" y="22.543945"/>
<use xlink:href="#glyph-0-5" x="58" y="22.543945"/>
<use xlink:href="#glyph-0-14" x="60" y="22.543945"/>
<use xlink:href="#glyph-0-15" x="62" y="22.543945"/>
<use xlink:href="#glyph-0-10" x="64" y="22.543945"/>
<use xlink:href="#glyph-0-13" x="66" y="22.543945"/>
<use xlink:href="#glyph-0-13" x="68" y="22.543945"/>
</g>
<g fill="rgb(100%, 100%, 100%)" fill-opacity="1">
<use xlink:href="#glyph-0-5" x="70" y="22.543945"/>
<use xlink:href="#glyph-0-5" x="72" y="22.543945"/>
<use xlink:href="#glyph-0-16" x="74" y="22.543945"/>
<use xlink:href="#glyph-0-5" x="76" y="22.543945"/>
<use xlink:href="#glyph-0-5" x="78" y="22.543945"/>
<use xlink:href="#glyph-0-17" x="80" y="22.543945"/>
<use xlink:href="#glyph-0-15" x="82" y="22.543945"/>
<use xlink:href="#glyph-0-10" x="84" y="22.543945"/>
<use xlink:href="#glyph-0-13" x="86" y="22.543945"/>
<use xlink:href="#glyph-0-13" x="88" y="22.543945"/>
<use xlink:href="#glyph-0-5" x="90" y="22.543945"/>
</g>
<g fill="rgb(49.411765%, 84.705882%, 5.882353%)" fill-opacity="1">
<use xlink:href="#glyph-0-18" x="92" y="22.543945"/>
<use xlink:href="#glyph-0-1" x="94" y="22.543945"/>
<use xlink:href="#glyph-0-4" x="96" y="22.543945"/>
<use xlink:href="#glyph-0-2" x="98" y="22.543945"/>
<use xlink:href="#glyph-0-15" x="100" y="22.543945"/>
<use xlink:href="#glyph-0-10" x="102" y="22.543945"/>
<use xlink:href="#glyph-0-11" x="104" y="22.543945"/>
<use xlink:href="#glyph-0-12" x="106" y="22.543945"/>
<use xlink:href="#glyph-0-13" x="108" y="22.543945"/>
<use xlink:href="#glyph-0-5" x="110" y="22.543945"/>
<use xlink:href="#glyph-0-15" x="112" y="22.543945"/>
<use xlink:href="#glyph-0-10" x="114" y="22.543945"/>
<use xlink:href="#glyph-0-13" x="116" y="22.543945"/>
<use xlink:href="#glyph-0-12" x="118" y="22.543945"/>
<use xlink:href="#glyph-0-9" x="120" y="22.543945"/>
</g>
<g fill="rgb(100%, 100%, 100%)" fill-opacity="1">
<use xlink:href="#glyph-0-5" x="122" y="22.543945"/>
<use xlink:href="#glyph-0-5" x="124" y="22.543945"/>
<use xlink:href="#glyph-0-16" x="126" y="22.543945"/>
<use xlink:href="#glyph-0-5" x="128" y="22.543945"/>
<use xlink:href="#glyph-0-5" x="130" y="22.543945"/>
</g>
<g fill="rgb(100%, 84.313725%, 0%)" fill-opacity="1">
<use xlink:href="#glyph-0-19" x="132" y="22.543945"/>
<use xlink:href="#glyph-0-20" x="134" y="22.543945"/>
<use xlink:href="#glyph-0-1" x="136" y="22.543945"/>
<use xlink:href="#glyph-0-11" x="138" y="22.543945"/>
<use xlink:href="#glyph-0-1" x="140" y="22.543945"/>
<use xlink:href="#glyph-0-4" x="142" y="22.543945"/>
<use xlink:href="#glyph-0-7" x="144" y="22.543945"/>
<use xlink:href="#glyph-0-1" x="146" y="22.543945"/>
<use xlink:href="#glyph-0-4" x="148" y="22.543945"/>
<use xlink:href="#glyph-0-12" x="150" y="22.543945"/>
</g>
<g fill="rgb(100%, 100%, 100%)" fill-opacity="1">
<use xlink:href="#glyph-0-5" x="152" y="22.543945"/>
<use xlink:href="#glyph-0-21" x="154" y="22.543945"/>
<use xlink:href="#glyph-0-1" x="156" y="22.543945"/>
<use xlink:href="#glyph-0-3" x="158" y="22.543945"/>
<use xlink:href="#glyph-0-6" x="160" y="22.543945"/>
<use xlink:href="#glyph-0-12" x="162" y="22.543945"/>
<use xlink:href="#glyph-0-9" x="164" y="22.543945"/>
<use xlink:href="#glyph-0-11" x="166" y="22.543945"/>
<use xlink:href="#glyph-0-13" x="168" y="22.543945"/>
<use xlink:href="#glyph-0-5" x="170" y="22.543945"/>
<use xlink:href="#glyph-0-15" x="172" y="22.543945"/>
<use xlink:href="#glyph-0-7" x="174" y="22.543945"/>
<use xlink:href="#glyph-0-14" x="176" y="22.543945"/>
<use xlink:href="#glyph-0-20" x="178" y="22.543945"/>
<use xlink:href="#glyph-0-11" x="180" y="22.543945"/>
<use xlink:href="#glyph-0-5" x="182" y="22.543945"/>
<use xlink:href="#glyph-0-11" x="184" y="22.543945"/>
<use xlink:href="#glyph-0-1" x="186" y="22.543945"/>
<use xlink:href="#glyph-0-5" x="188" y="22.543945"/>
<use xlink:href="#glyph-0-6" x="190" y="22.543945"/>
<use xlink:href="#glyph-0-1" x="192" y="22.543945"/>
<use xlink:href="#glyph-0-15" x="194" y="22.543945"/>
<use xlink:href="#glyph-0-11" x="196" y="22.543945"/>
<use xlink:href="#glyph-0-10" x="198" y="22.543945"/>
<use xlink:href="#glyph-0-14" x="200" y="22.543945"/>
<use xlink:href="#glyph-0-12" x="202" y="22.543945"/>
</g>
</svg>
