<?xml version="1.0" encoding="UTF-8"?>
<svg xmlns="http://www.w3.org/2000/svg" xmlns:xlink="http://www.w3.org/1999/xlink" width="1920" height="1080" viewBox="0 0 1920 1080">
<defs>
<g>
<g id="glyph-0-0">
<path d="M 1.734375 -0.578125 C 1.734375 -0.390625 1.660156 -0.238281 1.515625 -0.125 C 1.367188 -0.0195312 1.164062 0.03125 0.90625 0.03125 C 0.675781 0.03125 0.488281 -0.015625 0.34375 -0.109375 C 0.195312 -0.210938 0.101562 -0.359375 0.0625 -0.546875 L 0.484375 -0.609375 C 0.503906 -0.515625 0.550781 -0.4375 0.625 -0.375 C 0.695312 -0.320312 0.796875 -0.296875 0.921875 -0.296875 C 1.054688 -0.296875 1.15625 -0.316406 1.21875 -0.359375 C 1.28125 -0.398438 1.3125 -0.46875 1.3125 -0.5625 C 1.3125 -0.625 1.28125 -0.675781 1.21875 -0.71875 C 1.164062 -0.769531 1.085938 -0.804688 0.984375 -0.828125 C 0.765625 -0.878906 0.613281 -0.925781 0.53125 -0.96875 C 0.445312 -1.007812 0.375 -1.050781 0.3125 -1.09375 C 0.257812 -1.144531 0.21875 -1.203125 0.1875 -1.265625 C 0.164062 -1.328125 0.15625 -1.398438 0.15625 -1.484375 C 0.15625 -1.660156 0.222656 -1.796875 0.359375 -1.890625 C 0.503906 -1.992188 0.691406 -2.046875 0.921875 -2.046875 C 1.140625 -2.046875 1.3125 -2 1.4375 -1.90625 C 1.5625 -1.820312 1.644531 -1.6875 1.6875 -1.5 L 1.265625 -1.46875 C 1.210938 -1.644531 1.09375 -1.734375 0.90625 -1.734375 C 0.800781 -1.734375 0.71875 -1.710938 0.65625 -1.671875 C 0.601562 -1.640625 0.578125 -1.582031 0.578125 -1.5 C 0.578125 -1.457031 0.59375 -1.421875 0.625 -1.390625 C 0.65625 -1.359375 0.691406 -1.328125 0.734375 -1.296875 C 0.773438 -1.273438 0.867188 -1.25 1.015625 -1.21875 C 1.203125 -1.164062 1.34375 -1.109375 1.4375 -1.046875 C 1.539062 -0.992188 1.613281 -0.925781 1.65625 -0.84375 C 1.707031 -0.769531 1.734375 -0.679688 1.734375 -0.578125 Z "/>
</g>
<g id="glyph-0-1">
<path d="M 1.734375 -1.015625 C 1.734375 -0.671875 1.660156 -0.410156 1.515625 -0.234375 C 1.378906 -0.0546875 1.179688 0.03125 0.921875 0.03125 C 0.660156 0.03125 0.457031 -0.0546875 0.3125 -0.234375 C 0.175781 -0.410156 0.109375 -0.671875 0.109375 -1.015625 C 0.109375 -1.359375 0.175781 -1.613281 0.3125 -1.78125 C 0.457031 -1.957031 0.660156 -2.046875 0.921875 -2.046875 C 1.179688 -2.046875 1.378906 -1.957031 1.515625 -1.78125 C 1.660156 -1.613281 1.734375 -1.359375 1.734375 -1.015625 Z M 1.28125 -1.015625 C 1.28125 -1.472656 1.160156 -1.703125 0.921875 -1.703125 C 0.679688 -1.703125 0.5625 -1.472656 0.5625 -1.015625 C 0.5625 -0.785156 0.585938 -0.609375 0.640625 -0.484375 C 0.703125 -0.367188 0.789062 -0.3125 0.90625 -0.3125 C 1.03125 -0.3125 1.125 -0.367188 1.1875 -0.484375 C 1.25 -0.609375 1.28125 -0.785156 1.28125 -1.015625 Z "/>
</g>
<g id="glyph-0-2">
<path d="M 0.890625 0.03125 C 0.648438 0.03125 0.472656 -0.0351562 0.359375 -0.171875 C 0.242188 -0.304688 0.1875 -0.515625 0.1875 -0.796875 L 0.1875 -2.015625 L 0.640625 -2.015625 L 0.640625 -0.796875 C 0.640625 -0.617188 0.65625 -0.492188 0.6875 -0.421875 C 0.726562 -0.347656 0.800781 -0.3125 0.90625 -0.3125 C 1.007812 -0.3125 1.082031 -0.347656 1.125 -0.421875 C 1.175781 -0.503906 1.203125 -0.632812 1.203125 -0.8125 L 1.203125 -2.015625 L 1.640625 -2.015625 L 1.640625 -0.8125 C 1.640625 -0.53125 1.578125 -0.316406 1.453125 -0.171875 C 1.335938 -0.0351562 1.148438 0.03125 0.890625 0.03125 Z "/>
</g>
<g id="glyph-0-3">
<path d="M 1.125 0 L 0.546875 -1.515625 C 0.578125 -1.265625 0.59375 -1.085938 0.59375 -0.984375 L 0.59375 0 L 0.203125 0 L 0.203125 -2.015625 L 0.703125 -2.015625 L 1.296875 -0.46875 C 1.265625 -0.695312 1.25 -0.878906 1.25 -1.015625 L 1.25 -2.015625 L 1.640625 -2.015625 L 1.640625 0 Z "/>
</g>
<g id="glyph-0-4">
<path d="M 1.71875 -1.03125 C 1.71875 -0.695312 1.640625 -0.441406 1.484375 -0.265625 C 1.328125 -0.0859375 1.109375 0 0.828125 0 L 0.203125 0 L 0.203125 -2.015625 L 0.734375 -2.015625 C 1.066406 -2.015625 1.3125 -1.929688 1.46875 -1.765625 C 1.632812 -1.609375 1.71875 -1.363281 1.71875 -1.03125 Z M 1.28125 -1.03125 C 1.28125 -1.25 1.234375 -1.410156 1.140625 -1.515625 C 1.054688 -1.617188 0.921875 -1.671875 0.734375 -1.671875 L 0.640625 -1.671875 L 0.640625 -0.34375 L 0.796875 -0.34375 C 1.117188 -0.34375 1.28125 -0.570312 1.28125 -1.03125 Z "/>
</g>
<g id="glyph-0-5">
</g>
<g id="glyph-0-6">
<path d="M 0.5625 -1.015625 C 0.5625 -0.796875 0.597656 -0.625 0.671875 -0.5 C 0.742188 -0.375 0.847656 -0.3125 0.984375 -0.3125 C 1.148438 -0.3125 1.269531 -0.4375 1.34375 -0.6875 L 1.75 -0.609375 C 1.613281 -0.179688 1.359375 0.03125 0.984375 0.03125 C 0.703125 0.03125 0.488281 -0.0546875 0.34375 -0.234375 C 0.195312 -0.410156 0.125 -0.671875 0.125 -1.015625 C 0.125 -1.703125 0.40625 -2.046875 0.96875 -2.046875 C 1.15625 -2.046875 1.3125 -1.992188 1.4375 -1.890625 C 1.5625 -1.796875 1.648438 -1.65625 1.703125 -1.46875 L 1.296875 -1.375 C 1.273438 -1.476562 1.234375 -1.554688 1.171875 -1.609375 C 1.117188 -1.671875 1.050781 -1.703125 0.96875 -1.703125 C 0.695312 -1.703125 0.5625 -1.472656 0.5625 -1.015625 Z "/>
</g>
<g id="glyph-0-7">
<path d="M 1.84375 0 L 1.390625 0 L 1.265625 -0.5 L 0.578125 -0.5 L 0.4375 0 L 0 0 L 0.65625 -2.015625 L 1.171875 -2.015625 Z M 0.921875 -1.75 C 0.910156 -1.707031 0.894531 -1.644531 0.875 -1.5625 C 0.851562 -1.476562 0.785156 -1.234375 0.671875 -0.828125 L 1.171875 -0.828125 C 1.054688 -1.234375 0.988281 -1.476562 0.96875 -1.5625 C 0.945312 -1.644531 0.929688 -1.707031 0.921875 -1.75 Z "/>
</g>
<g id="glyph-0-8">
<path d="M 1.34375 0 L 0.90625 -0.765625 L 0.640625 -0.765625 L 0.640625 0 L 0.203125 0 L 0.203125 -2.015625 L 0.9375 -2.015625 C 1.207031 -2.015625 1.40625 -1.960938 1.53125 -1.859375 C 1.664062 -1.753906 1.734375 -1.609375 1.734375 -1.421875 C 1.734375 -1.285156 1.695312 -1.164062 1.625 -1.0625 C 1.550781 -0.96875 1.445312 -0.90625 1.3125 -0.875 L 1.828125 0 Z M 1.28125 -1.40625 C 1.28125 -1.5 1.25 -1.566406 1.1875 -1.609375 C 1.125 -1.648438 1.023438 -1.671875 0.890625 -1.671875 L 0.640625 -1.671875 L 0.640625 -1.109375 L 0.90625 -1.109375 C 1.15625 -1.109375 1.28125 -1.207031 1.28125 -1.40625 Z "/>
</g>
</g>
</defs>
<g fill="rgb(20%, 80%, 100%)" fill-opacity="1">
<use xlink:href="#glyph-0-0" x="30" y="22.543945"/>
<use xlink:href="#glyph-0-1" x="32" y="22.543945"/>
<use xlink:href="#glyph-0-2" x="34" y="22.543945"/>
<use xlink:href="#glyph-0-3" x="36" y="22.543945"/>
<use xlink:href="#glyph-0-4" x="38" y="22.543945"/>
<use xlink:href="#glyph-0-5" x="40" y="22.543945"/>
<use xlink:href="#glyph-0-6" x="42" y="22.543945"/>
<use xlink:href="#glyph-0-7" x="44" y="22.543945"/>
<use xlink:href="#glyph-0-8" x="46" y="22.543945"/>
<use xlink:href="#glyph-0-4" x="48" y="22.543945"/>
</g>
</svg>
