<?xml version="1.0" encoding="UTF-8"?>
<svg xmlns="http://www.w3.org/2000/svg" xmlns:xlink="http://www.w3.org/1999/xlink" width="1920" height="1080" viewBox="0 0 1920 1080">
<defs>
<g>
<g id="glyph-0-0">
<path d="M 0.15625 -1.140625 C 0.113281 -1.023438 0.09375 -0.90625 0.09375 -0.78125 C 0.09375 -0.65625 0.113281 -0.53125 0.15625 -0.40625 C 0.207031 -0.289062 0.273438 -0.191406 0.359375 -0.109375 C 0.453125 -0.0234375 0.554688 0.0390625 0.671875 0.09375 C 0.785156 0.144531 0.90625 0.171875 1.03125 0.171875 C 1.164062 0.171875 1.289062 0.144531 1.40625 0.09375 C 1.519531 0.0390625 1.617188 -0.0234375 1.703125 -0.109375 C 1.796875 -0.191406 1.863281 -0.289062 1.90625 -0.40625 C 1.957031 -0.53125 1.984375 -0.65625 1.984375 -0.78125 C 1.984375 -0.90625 1.957031 -1.023438 1.90625 -1.140625 C 1.863281 -1.265625 1.796875 -1.367188 1.703125 -1.453125 C 1.617188 -1.535156 1.519531 -1.601562 1.40625 -1.65625 C 1.289062 -1.707031 1.164062 -1.734375 1.03125 -1.734375 C 0.90625 -1.734375 0.785156 -1.707031 0.671875 -1.65625 C 0.554688 -1.601562 0.453125 -1.535156 0.359375 -1.453125 C 0.273438 -1.367188 0.207031 -1.265625 0.15625 -1.140625 Z M 0.171875 -0.28125 C 0.0859375 -0.4375 0.046875 -0.601562 0.046875 -0.78125 C 0.046875 -0.957031 0.0859375 -1.125 0.171875 -1.28125 C 0.265625 -1.4375 0.382812 -1.554688 0.53125 -1.640625 C 0.6875 -1.734375 0.851562 -1.78125 1.03125 -1.78125 C 1.21875 -1.78125 1.382812 -1.734375 1.53125 -1.640625 C 1.6875 -1.554688 1.804688 -1.4375 1.890625 -1.28125 C 1.984375 -1.125 2.03125 -0.957031 2.03125 -0.78125 C 2.03125 -0.601562 1.984375 -0.4375 1.890625 -0.28125 C 1.804688 -0.125 1.6875 -0.00390625 1.53125 0.078125 C 1.382812 0.171875 1.21875 0.21875 1.03125 0.21875 C 0.851562 0.21875 0.6875 0.171875 0.53125 0.078125 C 0.382812 -0.00390625 0.265625 -0.125 0.171875 -0.28125 Z M 0.75 -1.21875 C 0.84375 -1.351562 0.957031 -1.421875 1.09375 -1.421875 C 1.164062 -1.421875 1.234375 -1.398438 1.296875 -1.359375 C 1.359375 -1.316406 1.390625 -1.265625 1.390625 -1.203125 C 1.390625 -1.179688 1.382812 -1.164062 1.375 -1.15625 C 1.351562 -1.144531 1.335938 -1.140625 1.328125 -1.140625 C 1.304688 -1.140625 1.289062 -1.144531 1.28125 -1.15625 C 1.269531 -1.164062 1.265625 -1.179688 1.265625 -1.203125 C 1.265625 -1.234375 1.269531 -1.253906 1.28125 -1.265625 C 1.28125 -1.285156 1.265625 -1.3125 1.234375 -1.34375 C 1.191406 -1.375 1.144531 -1.390625 1.09375 -1.390625 C 1 -1.390625 0.914062 -1.332031 0.84375 -1.21875 C 0.757812 -1.113281 0.710938 -0.960938 0.703125 -0.765625 C 0.847656 -0.878906 0.976562 -0.941406 1.09375 -0.953125 C 1.175781 -0.953125 1.253906 -0.921875 1.328125 -0.859375 C 1.398438 -0.785156 1.4375 -0.675781 1.4375 -0.53125 C 1.4375 -0.414062 1.394531 -0.316406 1.3125 -0.234375 C 1.238281 -0.171875 1.144531 -0.140625 1.03125 -0.140625 C 0.90625 -0.140625 0.800781 -0.1875 0.71875 -0.28125 C 0.632812 -0.375 0.59375 -0.503906 0.59375 -0.671875 C 0.59375 -0.890625 0.644531 -1.070312 0.75 -1.21875 Z M 0.703125 -0.671875 C 0.703125 -0.503906 0.734375 -0.378906 0.796875 -0.296875 C 0.859375 -0.222656 0.9375 -0.1875 1.03125 -0.1875 C 1.113281 -0.1875 1.1875 -0.210938 1.25 -0.265625 C 1.300781 -0.316406 1.328125 -0.40625 1.328125 -0.53125 C 1.328125 -0.65625 1.304688 -0.738281 1.265625 -0.78125 C 1.210938 -0.832031 1.140625 -0.859375 1.046875 -0.859375 C 0.972656 -0.859375 0.859375 -0.804688 0.703125 -0.703125 C 0.703125 -0.691406 0.703125 -0.679688 0.703125 -0.671875 Z "/>
</g>
<g id="glyph-1-0">
</g>
<g id="glyph-1-1">
<path d="M 1.140625 -0.703125 C 1.140625 -0.472656 1.085938 -0.296875 0.984375 -0.171875 C 0.878906 -0.0546875 0.734375 0 0.546875 0 L 0.171875 0 L 0.171875 -1.375 L 0.484375 -1.375 C 0.703125 -1.375 0.863281 -1.316406 0.96875 -1.203125 C 1.082031 -1.085938 1.140625 -0.921875 1.140625 -0.703125 Z M 0.953125 -0.703125 C 0.953125 -0.878906 0.910156 -1.003906 0.828125 -1.078125 C 0.753906 -1.160156 0.640625 -1.203125 0.484375 -1.203125 L 0.359375 -1.203125 L 0.359375 -0.15625 L 0.515625 -0.15625 C 0.660156 -0.15625 0.769531 -0.195312 0.84375 -0.28125 C 0.914062 -0.375 0.953125 -0.515625 0.953125 -0.703125 Z "/>
</g>
<g id="glyph-1-2">
<path d="M 0.75 -0.140625 L 1.140625 -0.140625 L 1.140625 0 L 0.140625 0 L 0.140625 -0.140625 L 0.578125 -0.140625 L 0.578125 -0.953125 L 0.25 -0.953125 L 0.25 -1.09375 L 0.75 -1.09375 Z M 0.546875 -1.3125 L 0.546875 -1.5 L 0.75 -1.5 L 0.75 -1.3125 Z "/>
</g>
<g id="glyph-1-3">
<path d="M 0.625 0.4375 C 0.507812 0.4375 0.414062 0.410156 0.34375 0.359375 C 0.28125 0.316406 0.238281 0.25 0.21875 0.15625 L 0.40625 0.140625 C 0.414062 0.179688 0.4375 0.21875 0.46875 0.25 C 0.507812 0.28125 0.5625 0.296875 0.625 0.296875 C 0.789062 0.296875 0.875 0.1875 0.875 -0.03125 L 0.875 -0.21875 C 0.84375 -0.15625 0.796875 -0.101562 0.734375 -0.0625 C 0.679688 -0.03125 0.613281 -0.015625 0.53125 -0.015625 C 0.394531 -0.015625 0.296875 -0.0546875 0.234375 -0.140625 C 0.171875 -0.234375 0.140625 -0.375 0.140625 -0.5625 C 0.140625 -0.75 0.171875 -0.882812 0.234375 -0.96875 C 0.304688 -1.0625 0.410156 -1.109375 0.546875 -1.109375 C 0.628906 -1.109375 0.695312 -1.09375 0.75 -1.0625 C 0.800781 -1.03125 0.84375 -0.976562 0.875 -0.90625 L 0.890625 -0.90625 C 0.890625 -0.925781 0.890625 -0.957031 0.890625 -1 C 0.890625 -1.050781 0.890625 -1.082031 0.890625 -1.09375 L 1.0625 -1.09375 C 1.0625 -1.0625 1.0625 -0.988281 1.0625 -0.875 L 1.0625 -0.03125 C 1.0625 0.125 1.023438 0.238281 0.953125 0.3125 C 0.878906 0.394531 0.769531 0.4375 0.625 0.4375 Z M 0.875 -0.5625 C 0.875 -0.6875 0.847656 -0.785156 0.796875 -0.859375 C 0.753906 -0.941406 0.6875 -0.984375 0.59375 -0.984375 C 0.5 -0.984375 0.429688 -0.945312 0.390625 -0.875 C 0.347656 -0.8125 0.328125 -0.707031 0.328125 -0.5625 C 0.328125 -0.457031 0.335938 -0.375 0.359375 -0.3125 C 0.378906 -0.257812 0.40625 -0.21875 0.4375 -0.1875 C 0.476562 -0.15625 0.53125 -0.140625 0.59375 -0.140625 C 0.65625 -0.140625 0.707031 -0.15625 0.75 -0.1875 C 0.789062 -0.226562 0.820312 -0.273438 0.84375 -0.328125 C 0.863281 -0.390625 0.875 -0.46875 0.875 -0.5625 Z "/>
</g>
<g id="glyph-1-4">
<path d="M 0.1875 -0.953125 L 0.1875 -1.09375 L 0.359375 -1.09375 L 0.421875 -1.390625 L 0.546875 -1.390625 L 0.546875 -1.09375 L 0.984375 -1.09375 L 0.984375 -0.953125 L 0.546875 -0.953125 L 0.546875 -0.296875 C 0.546875 -0.242188 0.554688 -0.203125 0.578125 -0.171875 C 0.609375 -0.148438 0.660156 -0.140625 0.734375 -0.140625 C 0.816406 -0.140625 0.914062 -0.148438 1.03125 -0.171875 L 1.03125 -0.03125 C 0.914062 0 0.800781 0.015625 0.6875 0.015625 C 0.582031 0.015625 0.5 -0.00390625 0.4375 -0.046875 C 0.382812 -0.0976562 0.359375 -0.171875 0.359375 -0.265625 L 0.359375 -0.953125 Z "/>
</g>
<g id="glyph-1-5">
<path d="M 1.078125 -0.3125 C 1.078125 -0.207031 1.035156 -0.125 0.953125 -0.0625 C 0.878906 -0.0078125 0.769531 0.015625 0.625 0.015625 C 0.488281 0.015625 0.382812 -0.00390625 0.3125 -0.046875 C 0.238281 -0.0859375 0.191406 -0.15625 0.171875 -0.25 L 0.328125 -0.28125 C 0.335938 -0.226562 0.363281 -0.1875 0.40625 -0.15625 C 0.457031 -0.125 0.53125 -0.109375 0.625 -0.109375 C 0.8125 -0.109375 0.90625 -0.171875 0.90625 -0.296875 C 0.90625 -0.335938 0.882812 -0.367188 0.84375 -0.390625 C 0.8125 -0.421875 0.765625 -0.441406 0.703125 -0.453125 C 0.523438 -0.503906 0.410156 -0.539062 0.359375 -0.5625 C 0.316406 -0.582031 0.28125 -0.613281 0.25 -0.65625 C 0.226562 -0.695312 0.21875 -0.742188 0.21875 -0.796875 C 0.21875 -0.898438 0.25 -0.976562 0.3125 -1.03125 C 0.382812 -1.082031 0.488281 -1.109375 0.625 -1.109375 C 0.75 -1.109375 0.847656 -1.085938 0.921875 -1.046875 C 0.992188 -1.003906 1.035156 -0.9375 1.046875 -0.84375 L 0.890625 -0.828125 C 0.878906 -0.878906 0.851562 -0.914062 0.8125 -0.9375 C 0.769531 -0.96875 0.707031 -0.984375 0.625 -0.984375 C 0.46875 -0.984375 0.390625 -0.929688 0.390625 -0.828125 C 0.390625 -0.785156 0.398438 -0.75 0.421875 -0.71875 C 0.453125 -0.695312 0.5 -0.679688 0.5625 -0.671875 L 0.6875 -0.640625 C 0.789062 -0.609375 0.867188 -0.578125 0.921875 -0.546875 C 0.972656 -0.523438 1.007812 -0.492188 1.03125 -0.453125 C 1.0625 -0.421875 1.078125 -0.375 1.078125 -0.3125 Z "/>
</g>
<g id="glyph-1-6">
<path d="M 0.328125 -0.515625 C 0.328125 -0.390625 0.351562 -0.289062 0.40625 -0.21875 C 0.457031 -0.144531 0.53125 -0.109375 0.625 -0.109375 C 0.695312 -0.109375 0.757812 -0.125 0.8125 -0.15625 C 0.863281 -0.1875 0.898438 -0.226562 0.921875 -0.28125 L 1.078125 -0.234375 C 1.046875 -0.148438 0.988281 -0.0859375 0.90625 -0.046875 C 0.832031 -0.00390625 0.738281 0.015625 0.625 0.015625 C 0.46875 0.015625 0.347656 -0.03125 0.265625 -0.125 C 0.179688 -0.226562 0.140625 -0.375 0.140625 -0.5625 C 0.140625 -0.738281 0.179688 -0.875 0.265625 -0.96875 C 0.347656 -1.070312 0.46875 -1.125 0.625 -1.125 C 0.78125 -1.125 0.898438 -1.070312 0.984375 -0.96875 C 1.066406 -0.875 1.109375 -0.726562 1.109375 -0.53125 L 1.109375 -0.515625 Z M 0.625 -0.984375 C 0.53125 -0.984375 0.457031 -0.953125 0.40625 -0.890625 C 0.351562 -0.835938 0.328125 -0.757812 0.328125 -0.65625 L 0.921875 -0.65625 C 0.898438 -0.875 0.800781 -0.984375 0.625 -0.984375 Z "/>
</g>
<g id="glyph-1-7">
<path d="M 1.046875 0 L 0.90625 -0.390625 L 0.34375 -0.390625 L 0.203125 0 L 0 0 L 0.515625 -1.375 L 0.734375 -1.375 L 1.25 0 Z M 0.625 -1.21875 L 0.609375 -1.1875 L 0.546875 -0.96875 L 0.390625 -0.53125 L 0.859375 -0.53125 L 0.6875 -1.046875 Z "/>
</g>
<g id="glyph-1-8">
<path d="M 0.375 -1.09375 L 0.375 -0.40625 C 0.375 -0.300781 0.390625 -0.226562 0.421875 -0.1875 C 0.453125 -0.144531 0.507812 -0.125 0.59375 -0.125 C 0.6875 -0.125 0.753906 -0.148438 0.796875 -0.203125 C 0.847656 -0.265625 0.875 -0.351562 0.875 -0.46875 L 0.875 -1.09375 L 1.0625 -1.09375 L 1.0625 -0.234375 C 1.0625 -0.109375 1.066406 -0.03125 1.078125 0 L 0.890625 0 C 0.890625 0 0.890625 -0.00390625 0.890625 -0.015625 C 0.890625 -0.0351562 0.890625 -0.0546875 0.890625 -0.078125 C 0.890625 -0.0976562 0.890625 -0.132812 0.890625 -0.1875 C 0.847656 -0.113281 0.796875 -0.0625 0.734375 -0.03125 C 0.679688 0 0.613281 0.015625 0.53125 0.015625 C 0.414062 0.015625 0.328125 -0.0078125 0.265625 -0.0625 C 0.210938 -0.125 0.1875 -0.222656 0.1875 -0.359375 L 0.1875 -1.09375 Z "/>
</g>
<g id="glyph-1-9">
<path d="M 0.875 -0.171875 C 0.84375 -0.0976562 0.796875 -0.046875 0.734375 -0.015625 C 0.679688 0.015625 0.613281 0.03125 0.53125 0.03125 C 0.394531 0.03125 0.296875 -0.015625 0.234375 -0.109375 C 0.171875 -0.203125 0.140625 -0.347656 0.140625 -0.546875 C 0.140625 -0.921875 0.269531 -1.109375 0.53125 -1.109375 C 0.613281 -1.109375 0.679688 -1.09375 0.734375 -1.0625 C 0.796875 -1.039062 0.84375 -0.992188 0.875 -0.921875 L 0.875 -1.5 L 1.0625 -1.5 L 1.0625 -0.21875 C 1.0625 -0.113281 1.0625 -0.0390625 1.0625 0 L 0.890625 0 C 0.890625 -0.0078125 0.882812 -0.0351562 0.875 -0.078125 C 0.875 -0.117188 0.875 -0.148438 0.875 -0.171875 Z M 0.328125 -0.546875 C 0.328125 -0.398438 0.347656 -0.289062 0.390625 -0.21875 C 0.429688 -0.144531 0.492188 -0.109375 0.578125 -0.109375 C 0.679688 -0.109375 0.753906 -0.144531 0.796875 -0.21875 C 0.847656 -0.289062 0.875 -0.40625 0.875 -0.5625 C 0.875 -0.707031 0.847656 -0.8125 0.796875 -0.875 C 0.753906 -0.945312 0.6875 -0.984375 0.59375 -0.984375 C 0.5 -0.984375 0.429688 -0.945312 0.390625 -0.875 C 0.347656 -0.800781 0.328125 -0.691406 0.328125 -0.546875 Z "/>
</g>
<g id="glyph-1-10">
<path d="M 1.109375 -0.546875 C 1.109375 -0.359375 1.066406 -0.21875 0.984375 -0.125 C 0.898438 -0.03125 0.78125 0.015625 0.625 0.015625 C 0.457031 0.015625 0.332031 -0.03125 0.25 -0.125 C 0.164062 -0.226562 0.125 -0.367188 0.125 -0.546875 C 0.125 -0.734375 0.164062 -0.875 0.25 -0.96875 C 0.34375 -1.070312 0.46875 -1.125 0.625 -1.125 C 0.789062 -1.125 0.910156 -1.078125 0.984375 -0.984375 C 1.066406 -0.890625 1.109375 -0.742188 1.109375 -0.546875 Z M 0.921875 -0.546875 C 0.921875 -0.691406 0.894531 -0.800781 0.84375 -0.875 C 0.800781 -0.945312 0.726562 -0.984375 0.625 -0.984375 C 0.519531 -0.984375 0.441406 -0.945312 0.390625 -0.875 C 0.347656 -0.800781 0.328125 -0.691406 0.328125 -0.546875 C 0.328125 -0.410156 0.347656 -0.300781 0.390625 -0.21875 C 0.441406 -0.144531 0.515625 -0.109375 0.609375 -0.109375 C 0.722656 -0.109375 0.800781 -0.144531 0.84375 -0.21875 C 0.894531 -0.289062 0.921875 -0.398438 0.921875 -0.546875 Z "/>
</g>
</g>
</defs>
<g fill="rgb(20%, 80%, 100%)" fill-opacity="1">
<use xlink:href="#glyph-0-0" x="30" y="21.865234"/>
</g>
<g fill="rgb(20%, 80%, 100%)" fill-opacity="1">
<use xlink:href="#glyph-1-0" x="32" y="21.865234"/>
<use xlink:href="#glyph-1-1" x="33" y="21.865234"/>
<use xlink:href="#glyph-1-2" x="34" y="21.865234"/>
<use xlink:href="#glyph-1-3" x="35" y="21.865234"/>
<use xlink:href="#glyph-1-2" x="36" y="21.865234"/>
<use xlink:href="#glyph-1-4" x="37" y="21.865234"/>
<use xlink:href="#glyph-1-2" x="38" y="21.865234"/>
<use xlink:href="#glyph-1-5" x="39" y="21.865234"/>
<use xlink:href="#glyph-1-6" x="40" y="21.865234"/>
<use xlink:href="#glyph-1-0" x="41" y="21.865234"/>
</g>
<g fill="rgb(20%, 80%, 100%)" fill-opacity="1">
<use xlink:href="#glyph-1-7" x="30" y="24.625"/>
<use xlink:href="#glyph-1-8" x="31" y="24.625"/>
<use xlink:href="#glyph-1-9" x="32" y="24.625"/>
<use xlink:href="#glyph-1-2" x="33" y="24.625"/>
<use xlink:href="#glyph-1-10" x="34" y="24.625"/>
</g>
</svg>
