<?xml version="1.0" encoding="UTF-8"?>
<svg xmlns="http://www.w3.org/2000/svg" xmlns:xlink="http://www.w3.org/1999/xlink" width="1920" height="1080" viewBox="0 0 1920 1080">
<defs>
<g>
<g id="glyph-0-0">
<path d="M 1.1875 -0.140625 C 1.019531 -0.0351562 0.851562 0.015625 0.6875 0.015625 C 0.507812 0.015625 0.367188 -0.046875 0.265625 -0.171875 C 0.171875 -0.304688 0.125 -0.492188 0.125 -0.734375 C 0.125 -0.984375 0.171875 -1.171875 0.265625 -1.296875 C 0.359375 -1.421875 0.503906 -1.484375 0.703125 -1.484375 C 0.953125 -1.484375 1.113281 -1.363281 1.1875 -1.125 L 1.015625 -1.0625 C 0.953125 -1.226562 0.847656 -1.3125 0.703125 -1.3125 C 0.578125 -1.3125 0.484375 -1.265625 0.421875 -1.171875 C 0.367188 -1.085938 0.34375 -0.941406 0.34375 -0.734375 C 0.34375 -0.335938 0.460938 -0.140625 0.703125 -0.140625 C 0.753906 -0.140625 0.804688 -0.144531 0.859375 -0.15625 C 0.910156 -0.175781 0.953125 -0.195312 0.984375 -0.21875 L 0.984375 -0.59375 L 0.671875 -0.59375 L 0.671875 -0.765625 L 1.1875 -0.765625 Z "/>
</g>
<g id="glyph-0-1">
<path d="M 1.1875 -0.125 C 1.207031 -0.125 1.226562 -0.125 1.25 -0.125 L 1.25 0 C 1.207031 0.0078125 1.160156 0.015625 1.109375 0.015625 C 1.035156 0.015625 0.984375 -0.00390625 0.953125 -0.046875 C 0.921875 -0.0859375 0.898438 -0.144531 0.890625 -0.21875 C 0.835938 -0.132812 0.78125 -0.0703125 0.71875 -0.03125 C 0.65625 0 0.578125 0.015625 0.484375 0.015625 C 0.367188 0.015625 0.28125 -0.015625 0.21875 -0.078125 C 0.164062 -0.140625 0.140625 -0.222656 0.140625 -0.328125 C 0.140625 -0.578125 0.300781 -0.703125 0.625 -0.703125 L 0.890625 -0.71875 L 0.890625 -0.78125 C 0.890625 -0.875 0.867188 -0.941406 0.828125 -0.984375 C 0.785156 -1.023438 0.722656 -1.046875 0.640625 -1.046875 C 0.554688 -1.046875 0.492188 -1.03125 0.453125 -1 C 0.421875 -0.96875 0.398438 -0.921875 0.390625 -0.859375 L 0.1875 -0.875 C 0.21875 -1.082031 0.375 -1.1875 0.65625 -1.1875 C 0.789062 -1.1875 0.894531 -1.148438 0.96875 -1.078125 C 1.039062 -1.015625 1.078125 -0.921875 1.078125 -0.796875 L 1.078125 -0.296875 C 1.078125 -0.234375 1.082031 -0.1875 1.09375 -0.15625 C 1.113281 -0.132812 1.144531 -0.125 1.1875 -0.125 Z M 0.53125 -0.125 C 0.601562 -0.125 0.664062 -0.140625 0.71875 -0.171875 C 0.769531 -0.203125 0.8125 -0.242188 0.84375 -0.296875 C 0.875 -0.359375 0.890625 -0.421875 0.890625 -0.484375 L 0.890625 -0.578125 L 0.6875 -0.578125 C 0.59375 -0.578125 0.523438 -0.566406 0.484375 -0.546875 C 0.441406 -0.523438 0.40625 -0.492188 0.375 -0.453125 C 0.351562 -0.421875 0.34375 -0.375 0.34375 -0.3125 C 0.34375 -0.257812 0.359375 -0.210938 0.390625 -0.171875 C 0.421875 -0.140625 0.46875 -0.125 0.53125 -0.125 Z "/>
</g>
<g id="glyph-0-2">
<path d="M 0.8125 -0.15625 L 1.21875 -0.15625 L 1.21875 0 L 0.15625 0 L 0.15625 -0.15625 L 0.609375 -0.15625 L 0.609375 -1.015625 L 0.265625 -1.015625 L 0.265625 -1.171875 L 0.8125 -1.171875 Z M 0.59375 -1.40625 L 0.59375 -1.609375 L 0.8125 -1.609375 L 0.8125 -1.40625 Z "/>
</g>
<g id="glyph-0-3">
<path d="M 0.9375 0 L 0.9375 -0.75 C 0.9375 -0.851562 0.914062 -0.925781 0.875 -0.96875 C 0.84375 -1.019531 0.785156 -1.046875 0.703125 -1.046875 C 0.609375 -1.046875 0.53125 -1.007812 0.46875 -0.9375 C 0.414062 -0.875 0.390625 -0.785156 0.390625 -0.671875 L 0.390625 0 L 0.203125 0 L 0.203125 -0.921875 C 0.203125 -1.054688 0.195312 -1.140625 0.1875 -1.171875 L 0.375 -1.171875 C 0.375 -1.171875 0.375 -1.160156 0.375 -1.140625 C 0.375 -1.128906 0.375 -1.113281 0.375 -1.09375 C 0.382812 -1.070312 0.390625 -1.03125 0.390625 -0.96875 C 0.460938 -1.113281 0.585938 -1.1875 0.765625 -1.1875 C 0.890625 -1.1875 0.984375 -1.148438 1.046875 -1.078125 C 1.109375 -1.015625 1.140625 -0.914062 1.140625 -0.78125 L 1.140625 0 Z "/>
</g>
<g id="glyph-0-4">
</g>
<g id="glyph-0-5">
<path d="M 0.125 -0.375 L 0.125 -0.53125 L 1.203125 -0.53125 L 1.203125 -0.375 Z M 0.125 -0.921875 L 0.125 -1.09375 L 1.203125 -1.09375 L 1.203125 -0.921875 Z "/>
</g>
<g id="glyph-0-6">
<path d="M 0.15625 0 L 0.15625 -0.125 C 0.1875 -0.207031 0.238281 -0.285156 0.3125 -0.359375 C 0.394531 -0.441406 0.5 -0.535156 0.625 -0.640625 C 0.738281 -0.734375 0.820312 -0.8125 0.875 -0.875 C 0.925781 -0.945312 0.953125 -1.015625 0.953125 -1.078125 C 0.953125 -1.148438 0.925781 -1.207031 0.875 -1.25 C 0.820312 -1.300781 0.75 -1.328125 0.65625 -1.328125 C 0.570312 -1.328125 0.503906 -1.300781 0.453125 -1.25 C 0.410156 -1.207031 0.382812 -1.144531 0.375 -1.0625 L 0.171875 -1.078125 C 0.179688 -1.203125 0.226562 -1.300781 0.3125 -1.375 C 0.40625 -1.445312 0.519531 -1.484375 0.65625 -1.484375 C 0.8125 -1.484375 0.929688 -1.445312 1.015625 -1.375 C 1.109375 -1.3125 1.15625 -1.210938 1.15625 -1.078125 C 1.15625 -1.003906 1.125 -0.925781 1.0625 -0.84375 C 1.007812 -0.757812 0.929688 -0.671875 0.828125 -0.578125 C 0.671875 -0.460938 0.5625 -0.375 0.5 -0.3125 C 0.445312 -0.257812 0.410156 -0.207031 0.390625 -0.15625 L 1.171875 -0.15625 L 1.171875 0 Z "/>
</g>
<g id="glyph-0-7">
<path d="M 1.1875 -0.734375 C 1.1875 -0.484375 1.140625 -0.296875 1.046875 -0.171875 C 0.960938 -0.046875 0.832031 0.015625 0.65625 0.015625 C 0.488281 0.015625 0.359375 -0.046875 0.265625 -0.171875 C 0.179688 -0.296875 0.140625 -0.484375 0.140625 -0.734375 C 0.140625 -0.984375 0.179688 -1.171875 0.265625 -1.296875 C 0.347656 -1.421875 0.484375 -1.484375 0.671875 -1.484375 C 0.847656 -1.484375 0.976562 -1.421875 1.0625 -1.296875 C 1.144531 -1.171875 1.1875 -0.984375 1.1875 -0.734375 Z M 1 -0.734375 C 1 -0.941406 0.972656 -1.09375 0.921875 -1.1875 C 0.867188 -1.28125 0.785156 -1.328125 0.671875 -1.328125 C 0.546875 -1.328125 0.457031 -1.28125 0.40625 -1.1875 C 0.351562 -1.09375 0.328125 -0.941406 0.328125 -0.734375 C 0.328125 -0.523438 0.351562 -0.375 0.40625 -0.28125 C 0.457031 -0.1875 0.546875 -0.140625 0.671875 -0.140625 C 0.785156 -0.140625 0.867188 -0.1875 0.921875 -0.28125 C 0.972656 -0.382812 1 -0.535156 1 -0.734375 Z M 0.53125 -0.59375 L 0.53125 -0.875 L 0.796875 -0.875 L 0.796875 -0.59375 Z "/>
</g>
<g id="glyph-0-8">
<path d="M 0.171875 -0.359375 L 0.546875 -0.734375 L 0.171875 -1.125 L 0.28125 -1.234375 L 0.671875 -0.84375 L 1.046875 -1.234375 L 1.15625 -1.125 L 0.78125 -0.734375 L 1.15625 -0.359375 L 1.046875 -0.25 L 0.671875 -0.625 L 0.28125 -0.25 Z "/>
</g>
</g>
</defs>
<g fill="rgb(66.666667%, 26.666667%, 100%)" fill-opacity="1">
<use xlink:href="#glyph-0-0" x="30" y="21.850586"/>
<use xlink:href="#glyph-0-1" x="31" y="21.850586"/>
<use xlink:href="#glyph-0-2" x="32" y="21.850586"/>
<use xlink:href="#glyph-0-3" x="33" y="21.850586"/>
<use xlink:href="#glyph-0-4" x="34" y="21.850586"/>
<use xlink:href="#glyph-0-5" x="35" y="21.850586"/>
<use xlink:href="#glyph-0-4" x="36" y="21.850586"/>
<use xlink:href="#glyph-0-6" x="37" y="21.850586"/>
<use xlink:href="#glyph-0-7" x="38" y="21.850586"/>
<use xlink:href="#glyph-0-8" x="39" y="21.850586"/>
</g>
</svg>
