<?xml version="1.0" encoding="UTF-8"?>
<svg xmlns="http://www.w3.org/2000/svg" xmlns:xlink="http://www.w3.org/1999/xlink" width="1920" height="1080" viewBox="0 0 1920 1080">
<defs>
<g>
<g id="glyph-0-0">
<path d="M 1.484375 0 L 1.484375 -9.515625 L 3.5625 -9.515625 L 3.5625 -1.609375 L 7.90625 -1.609375 L 7.90625 0 Z "/>
</g>
<g id="glyph-0-1">
<path d="M 8.65625 0 L 6.59375 0 L 5.9375 -2.328125 L 2.734375 -2.328125 L 2.078125 0 L 0 0 L 3.125 -9.515625 L 5.546875 -9.515625 Z M 4.328125 -8.234375 C 4.296875 -8.035156 4.226562 -7.738281 4.125 -7.34375 C 4.019531 -6.945312 3.703125 -5.796875 3.171875 -3.890625 L 5.5 -3.890625 C 4.957031 -5.828125 4.632812 -6.984375 4.53125 -7.359375 C 4.4375 -7.742188 4.367188 -8.035156 4.328125 -8.234375 Z "/>
</g>
<g id="glyph-0-2">
<path d="M 8.21875 -2.75 C 8.21875 -1.851562 7.867188 -1.144531 7.171875 -0.625 C 6.484375 -0.113281 5.53125 0.140625 4.3125 0.140625 C 3.207031 0.140625 2.304688 -0.0859375 1.609375 -0.546875 C 0.910156 -1.015625 0.460938 -1.695312 0.265625 -2.59375 L 2.28125 -2.84375 C 2.382812 -2.40625 2.609375 -2.054688 2.953125 -1.796875 C 3.296875 -1.546875 3.765625 -1.421875 4.359375 -1.421875 C 4.984375 -1.421875 5.441406 -1.519531 5.734375 -1.71875 C 6.035156 -1.914062 6.1875 -2.222656 6.1875 -2.640625 C 6.1875 -2.953125 6.054688 -3.210938 5.796875 -3.421875 C 5.535156 -3.640625 5.148438 -3.804688 4.640625 -3.921875 C 3.628906 -4.171875 2.914062 -4.382812 2.5 -4.5625 C 2.082031 -4.75 1.75 -4.953125 1.5 -5.171875 C 1.257812 -5.398438 1.070312 -5.664062 0.9375 -5.96875 C 0.800781 -6.269531 0.734375 -6.609375 0.734375 -6.984375 C 0.734375 -7.804688 1.0625 -8.457031 1.71875 -8.9375 C 2.382812 -9.414062 3.253906 -9.65625 4.328125 -9.65625 C 5.390625 -9.65625 6.210938 -9.445312 6.796875 -9.03125 C 7.390625 -8.613281 7.773438 -7.96875 7.953125 -7.09375 L 5.9375 -6.890625 C 5.726562 -7.753906 5.179688 -8.1875 4.296875 -8.1875 C 3.796875 -8.1875 3.410156 -8.09375 3.140625 -7.90625 C 2.878906 -7.71875 2.75 -7.453125 2.75 -7.109375 C 2.75 -6.878906 2.8125 -6.6875 2.9375 -6.53125 C 3.070312 -6.375 3.25 -6.242188 3.46875 -6.140625 C 3.6875 -6.035156 4.128906 -5.894531 4.796875 -5.71875 C 5.679688 -5.507812 6.359375 -5.269531 6.828125 -5 C 7.304688 -4.738281 7.65625 -4.414062 7.875 -4.03125 C 8.101562 -3.65625 8.21875 -3.226562 8.21875 -2.75 Z "/>
</g>
<g id="glyph-0-3">
<path d="M 0.96875 0 L 0.96875 -9.515625 L 7.796875 -9.515625 L 7.796875 -7.90625 L 3.046875 -7.90625 L 3.046875 -5.625 L 7.359375 -5.625 L 7.359375 -4.015625 L 3.046875 -4.015625 L 3.046875 -1.609375 L 8.078125 -1.609375 L 8.078125 0 Z "/>
</g>
<g id="glyph-0-4">
<path d="M 6.3125 0 L 4.265625 -3.625 L 3.046875 -3.625 L 3.046875 0 L 0.96875 0 L 0.96875 -9.515625 L 4.453125 -9.515625 C 5.691406 -9.515625 6.617188 -9.269531 7.234375 -8.78125 C 7.847656 -8.300781 8.15625 -7.601562 8.15625 -6.6875 C 8.15625 -6.039062 7.976562 -5.492188 7.625 -5.046875 C 7.28125 -4.597656 6.800781 -4.28125 6.1875 -4.09375 L 8.65625 0 Z M 6.0625 -6.609375 C 6.0625 -7.046875 5.914062 -7.367188 5.625 -7.578125 C 5.332031 -7.785156 4.867188 -7.890625 4.234375 -7.890625 L 3.046875 -7.890625 L 3.046875 -5.25 L 4.28125 -5.25 C 5.46875 -5.25 6.0625 -5.703125 6.0625 -6.609375 Z "/>
</g>
<g id="glyph-0-5">
</g>
<g id="glyph-0-6">
<path d="M 6.40625 0 L 6.40625 -6.125 C 6.40625 -6.613281 6.441406 -7.316406 6.515625 -8.234375 C 6.234375 -6.878906 6.054688 -6.082031 5.984375 -5.84375 L 5.109375 -2.53125 L 3.578125 -2.53125 L 2.6875 -5.84375 C 2.550781 -6.34375 2.375 -7.140625 2.15625 -8.234375 L 2.203125 -7.53125 C 2.234375 -7.039062 2.25 -6.570312 2.25 -6.125 L 2.25 0 L 0.703125 0 L 0.703125 -9.515625 L 3.140625 -9.515625 L 4.09375 -5.984375 C 4.164062 -5.765625 4.253906 -5.222656 4.359375 -4.359375 C 4.453125 -5.085938 4.546875 -5.628906 4.640625 -5.984375 L 5.609375 -9.515625 L 7.96875 -9.515625 L 7.96875 0 Z "/>
</g>
<g id="glyph-0-7">
<path d="M 1.109375 -9.515625 L 7.5625 -9.515625 L 7.5625 -7.90625 L 5.375 -7.90625 L 5.375 -1.609375 L 7.5625 -1.609375 L 7.5625 0 L 1.109375 0 L 1.109375 -1.609375 L 3.296875 -1.609375 L 3.296875 -7.90625 L 1.109375 -7.90625 Z "/>
</g>
<g id="glyph-0-8">
<path d="M 2.671875 -4.796875 C 2.671875 -3.742188 2.835938 -2.929688 3.171875 -2.359375 C 3.503906 -1.785156 3.992188 -1.5 4.640625 -1.5 C 5.398438 -1.5 5.96875 -2.070312 6.34375 -3.21875 L 8.265625 -2.84375 C 7.640625 -0.851562 6.425781 0.140625 4.625 0.140625 C 3.300781 0.140625 2.289062 -0.273438 1.59375 -1.109375 C 0.90625 -1.953125 0.5625 -3.179688 0.5625 -4.796875 C 0.5625 -8.035156 1.894531 -9.65625 4.5625 -9.65625 C 5.4375 -9.65625 6.171875 -9.425781 6.765625 -8.96875 C 7.359375 -8.507812 7.789062 -7.828125 8.0625 -6.921875 L 6.140625 -6.453125 C 6.003906 -6.953125 5.800781 -7.335938 5.53125 -7.609375 C 5.257812 -7.878906 4.945312 -8.015625 4.59375 -8.015625 C 3.3125 -8.015625 2.671875 -6.941406 2.671875 -4.796875 Z "/>
</g>
<g id="glyph-0-9">
<path d="M 8.15625 -4.78125 C 8.15625 -3.164062 7.828125 -1.941406 7.171875 -1.109375 C 6.515625 -0.273438 5.566406 0.140625 4.328125 0.140625 C 3.097656 0.140625 2.148438 -0.273438 1.484375 -1.109375 C 0.828125 -1.941406 0.5 -3.164062 0.5 -4.78125 C 0.5 -6.40625 0.828125 -7.625 1.484375 -8.4375 C 2.148438 -9.25 3.097656 -9.65625 4.328125 -9.65625 C 5.566406 -9.65625 6.515625 -9.25 7.171875 -8.4375 C 7.828125 -7.625 8.15625 -6.40625 8.15625 -4.78125 Z M 6.046875 -4.78125 C 6.046875 -6.9375 5.472656 -8.015625 4.328125 -8.015625 C 3.179688 -8.015625 2.609375 -6.9375 2.609375 -4.78125 C 2.609375 -3.707031 2.753906 -2.890625 3.046875 -2.328125 C 3.335938 -1.773438 3.765625 -1.5 4.328125 -1.5 C 4.898438 -1.5 5.328125 -1.773438 5.609375 -2.328125 C 5.898438 -2.890625 6.046875 -3.707031 6.046875 -4.78125 Z "/>
</g>
<g id="glyph-0-10">
<path d="M 8.046875 -6.5 C 8.046875 -5.875 7.898438 -5.320312 7.609375 -4.84375 C 7.328125 -4.363281 6.914062 -3.992188 6.375 -3.734375 C 5.832031 -3.484375 5.179688 -3.359375 4.421875 -3.359375 L 3.03125 -3.359375 L 3.03125 0 L 0.953125 0 L 0.953125 -9.515625 L 4.34375 -9.515625 C 5.550781 -9.515625 6.46875 -9.257812 7.09375 -8.75 C 7.726562 -8.238281 8.046875 -7.488281 8.046875 -6.5 Z M 5.953125 -6.46875 C 5.953125 -6.976562 5.796875 -7.34375 5.484375 -7.5625 C 5.179688 -7.78125 4.722656 -7.890625 4.109375 -7.890625 L 3.03125 -7.890625 L 3.03125 -4.953125 L 4.171875 -4.953125 C 4.785156 -4.953125 5.234375 -5.078125 5.515625 -5.328125 C 5.804688 -5.585938 5.953125 -5.96875 5.953125 -6.46875 Z "/>
</g>
<g id="glyph-0-11">
<path d="M 5.609375 0 L 5.609375 -4.046875 L 3.046875 -4.046875 L 3.046875 0 L 0.96875 0 L 0.96875 -9.515625 L 3.046875 -9.515625 L 3.046875 -5.765625 L 5.609375 -5.765625 L 5.609375 -9.515625 L 7.6875 -9.515625 L 7.6875 0 Z "/>
</g>
<g id="glyph-0-12">
<path d="M 5.265625 0 L 2.5625 -7.125 C 2.695312 -5.9375 2.765625 -5.101562 2.765625 -4.625 L 2.765625 0 L 0.953125 0 L 0.953125 -9.515625 L 3.328125 -9.515625 L 6.09375 -2.203125 C 5.96875 -3.304688 5.90625 -4.160156 5.90625 -4.765625 L 5.90625 -9.515625 L 7.71875 -9.515625 L 7.71875 0 Z "/>
</g>
</g>
</defs>
<g fill="rgb(100%, 100%, 100%)" fill-opacity="1">
<use xlink:href="#glyph-0-0" x="30" y="32.025391"/>
<use xlink:href="#glyph-0-1" x="39" y="32.025391"/>
<use xlink:href="#glyph-0-2" x="48" y="32.025391"/>
<use xlink:href="#glyph-0-3" x="57" y="32.025391"/>
<use xlink:href="#glyph-0-4" x="66" y="32.025391"/>
<use xlink:href="#glyph-0-5" x="75" y="32.025391"/>
<use xlink:href="#glyph-0-6" x="84" y="32.025391"/>
<use xlink:href="#glyph-0-7" x="93" y="32.025391"/>
<use xlink:href="#glyph-0-8" x="102" y="32.025391"/>
<use xlink:href="#glyph-0-4" x="111" y="32.025391"/>
<use xlink:href="#glyph-0-9" x="120" y="32.025391"/>
<use xlink:href="#glyph-0-10" x="129" y="32.025391"/>
<use xlink:href="#glyph-0-11" x="138" y="32.025391"/>
<use xlink:href="#glyph-0-9" x="147" y="32.025391"/>
<use xlink:href="#glyph-0-12" x="156" y="32.025391"/>
<use xlink:href="#glyph-0-3" x="165" y="32.025391"/>
</g>
</svg>
