<?xml version="1.0" encoding="UTF-8"?>
<svg xmlns="http://www.w3.org/2000/svg" xmlns:xlink="http://www.w3.org/1999/xlink" width="1920" height="1080" viewBox="0 0 1920 1080">
<defs>
<g>
<g id="glyph-0-0">
<path d="M 1.5 -0.5 C 1.5 -0.332031 1.441406 -0.203125 1.328125 -0.109375 C 1.210938 -0.015625 1.050781 0.03125 0.84375 0.03125 C 0.644531 0.03125 0.488281 -0.0078125 0.375 -0.09375 C 0.257812 -0.1875 0.191406 -0.316406 0.171875 -0.484375 L 0.421875 -0.515625 C 0.453125 -0.285156 0.59375 -0.171875 0.84375 -0.171875 C 0.96875 -0.171875 1.0625 -0.195312 1.125 -0.25 C 1.195312 -0.3125 1.234375 -0.398438 1.234375 -0.515625 C 1.234375 -0.578125 1.210938 -0.628906 1.171875 -0.671875 C 1.128906 -0.722656 1.070312 -0.757812 1 -0.78125 C 0.9375 -0.8125 0.859375 -0.828125 0.765625 -0.828125 L 0.640625 -0.828125 L 0.640625 -1.03125 L 0.765625 -1.03125 C 0.835938 -1.03125 0.90625 -1.039062 0.96875 -1.0625 C 1.039062 -1.09375 1.09375 -1.128906 1.125 -1.171875 C 1.164062 -1.222656 1.1875 -1.285156 1.1875 -1.359375 C 1.1875 -1.453125 1.15625 -1.523438 1.09375 -1.578125 C 1.03125 -1.628906 0.941406 -1.65625 0.828125 -1.65625 C 0.722656 -1.65625 0.632812 -1.628906 0.5625 -1.578125 C 0.5 -1.523438 0.460938 -1.445312 0.453125 -1.34375 L 0.203125 -1.359375 C 0.222656 -1.515625 0.285156 -1.632812 0.390625 -1.71875 C 0.503906 -1.8125 0.648438 -1.859375 0.828125 -1.859375 C 1.023438 -1.859375 1.175781 -1.816406 1.28125 -1.734375 C 1.382812 -1.648438 1.4375 -1.53125 1.4375 -1.375 C 1.4375 -1.269531 1.398438 -1.175781 1.328125 -1.09375 C 1.253906 -1.019531 1.15625 -0.96875 1.03125 -0.9375 C 1.175781 -0.914062 1.289062 -0.863281 1.375 -0.78125 C 1.457031 -0.707031 1.5 -0.613281 1.5 -0.5 Z "/>
</g>
<g id="glyph-0-1">
<path d="M 0.671875 0 L 0.671875 -0.40625 L 1 -0.40625 L 1 0 Z "/>
</g>
<g id="glyph-0-2">
</g>
<g id="glyph-0-3">
<path d="M 1.515625 -1.28125 C 1.515625 -1.164062 1.488281 -1.0625 1.4375 -0.96875 C 1.382812 -0.882812 1.304688 -0.816406 1.203125 -0.765625 C 1.109375 -0.722656 0.992188 -0.703125 0.859375 -0.703125 L 0.484375 -0.703125 L 0.484375 0 L 0.21875 0 L 0.21875 -1.828125 L 0.84375 -1.828125 C 1.0625 -1.828125 1.226562 -1.78125 1.34375 -1.6875 C 1.457031 -1.59375 1.515625 -1.457031 1.515625 -1.28125 Z M 1.265625 -1.28125 C 1.265625 -1.507812 1.113281 -1.625 0.8125 -1.625 L 0.484375 -1.625 L 0.484375 -0.90625 L 0.828125 -0.90625 C 0.960938 -0.90625 1.066406 -0.9375 1.140625 -1 C 1.222656 -1.0625 1.265625 -1.15625 1.265625 -1.28125 Z "/>
</g>
<g id="glyph-0-4">
<path d="M 0.25 -2.015625 L 0.5 -2.015625 L 0.5 -1.484375 C 0.5 -1.429688 0.492188 -1.34375 0.484375 -1.21875 C 0.578125 -1.40625 0.734375 -1.5 0.953125 -1.5 C 1.265625 -1.5 1.421875 -1.328125 1.421875 -0.984375 L 1.421875 0 L 1.171875 0 L 1.171875 -0.9375 C 1.171875 -1.0625 1.144531 -1.15625 1.09375 -1.21875 C 1.050781 -1.28125 0.976562 -1.3125 0.875 -1.3125 C 0.769531 -1.3125 0.679688 -1.269531 0.609375 -1.1875 C 0.535156 -1.101562 0.5 -0.988281 0.5 -0.84375 L 0.5 0 L 0.25 0 Z "/>
</g>
<g id="glyph-0-5">
<path d="M 1.484375 -0.734375 C 1.484375 -0.484375 1.425781 -0.289062 1.3125 -0.15625 C 1.207031 -0.03125 1.046875 0.03125 0.828125 0.03125 C 0.617188 0.03125 0.457031 -0.0351562 0.34375 -0.171875 C 0.226562 -0.304688 0.171875 -0.492188 0.171875 -0.734375 C 0.171875 -0.984375 0.226562 -1.171875 0.34375 -1.296875 C 0.457031 -1.429688 0.617188 -1.5 0.828125 -1.5 C 1.054688 -1.5 1.222656 -1.4375 1.328125 -1.3125 C 1.429688 -1.1875 1.484375 -0.992188 1.484375 -0.734375 Z M 1.234375 -0.734375 C 1.234375 -0.929688 1.203125 -1.078125 1.140625 -1.171875 C 1.078125 -1.265625 0.976562 -1.3125 0.84375 -1.3125 C 0.695312 -1.3125 0.59375 -1.257812 0.53125 -1.15625 C 0.46875 -1.0625 0.4375 -0.921875 0.4375 -0.734375 C 0.4375 -0.546875 0.46875 -0.398438 0.53125 -0.296875 C 0.59375 -0.203125 0.691406 -0.15625 0.828125 -0.15625 C 0.972656 -0.15625 1.078125 -0.203125 1.140625 -0.296875 C 1.203125 -0.390625 1.234375 -0.535156 1.234375 -0.734375 Z "/>
</g>
<g id="glyph-0-6">
<path d="M 0.265625 -1.28125 L 0.265625 -1.46875 L 0.484375 -1.46875 L 0.5625 -1.859375 L 0.734375 -1.859375 L 0.734375 -1.46875 L 1.3125 -1.46875 L 1.3125 -1.28125 L 0.734375 -1.28125 L 0.734375 -0.390625 C 0.734375 -0.316406 0.75 -0.265625 0.78125 -0.234375 C 0.820312 -0.203125 0.890625 -0.1875 0.984375 -0.1875 C 1.097656 -0.1875 1.226562 -0.203125 1.375 -0.234375 L 1.375 -0.046875 C 1.226562 -0.00390625 1.078125 0.015625 0.921875 0.015625 C 0.773438 0.015625 0.664062 -0.015625 0.59375 -0.078125 C 0.519531 -0.140625 0.484375 -0.234375 0.484375 -0.359375 L 0.484375 -1.28125 Z "/>
</g>
<g id="glyph-0-7">
<path d="M 0.171875 -0.734375 C 0.171875 -0.984375 0.226562 -1.171875 0.34375 -1.296875 C 0.46875 -1.429688 0.640625 -1.5 0.859375 -1.5 C 1.023438 -1.5 1.160156 -1.457031 1.265625 -1.375 C 1.367188 -1.300781 1.4375 -1.195312 1.46875 -1.0625 L 1.203125 -1.03125 C 1.191406 -1.113281 1.15625 -1.179688 1.09375 -1.234375 C 1.03125 -1.285156 0.945312 -1.3125 0.84375 -1.3125 C 0.707031 -1.3125 0.601562 -1.265625 0.53125 -1.171875 C 0.46875 -1.078125 0.4375 -0.929688 0.4375 -0.734375 C 0.4375 -0.535156 0.46875 -0.390625 0.53125 -0.296875 C 0.601562 -0.203125 0.707031 -0.15625 0.84375 -0.15625 C 0.945312 -0.15625 1.03125 -0.179688 1.09375 -0.234375 C 1.15625 -0.285156 1.191406 -0.359375 1.203125 -0.453125 L 1.46875 -0.4375 C 1.457031 -0.351562 1.421875 -0.273438 1.359375 -0.203125 C 1.304688 -0.128906 1.234375 -0.0703125 1.140625 -0.03125 C 1.054688 0.0078125 0.960938 0.03125 0.859375 0.03125 C 0.640625 0.03125 0.46875 -0.03125 0.34375 -0.15625 C 0.226562 -0.289062 0.171875 -0.484375 0.171875 -0.734375 Z "/>
</g>
<g id="glyph-0-8">
<path d="M 0.5 -1.46875 L 0.5 -0.53125 C 0.5 -0.394531 0.519531 -0.296875 0.5625 -0.234375 C 0.601562 -0.179688 0.679688 -0.15625 0.796875 -0.15625 C 0.910156 -0.15625 1 -0.195312 1.0625 -0.28125 C 1.132812 -0.363281 1.171875 -0.476562 1.171875 -0.625 L 1.171875 -1.46875 L 1.421875 -1.46875 L 1.421875 -0.3125 C 1.421875 -0.144531 1.425781 -0.0390625 1.4375 0 L 1.203125 0 C 1.203125 0 1.203125 -0.0078125 1.203125 -0.03125 C 1.203125 -0.0507812 1.195312 -0.0703125 1.1875 -0.09375 C 1.1875 -0.125 1.1875 -0.175781 1.1875 -0.25 C 1.132812 -0.144531 1.066406 -0.0703125 0.984375 -0.03125 C 0.910156 0.0078125 0.820312 0.03125 0.71875 0.03125 C 0.550781 0.03125 0.429688 -0.0078125 0.359375 -0.09375 C 0.285156 -0.175781 0.25 -0.304688 0.25 -0.484375 L 0.25 -1.46875 Z "/>
</g>
<g id="glyph-0-9">
<path d="M 1.421875 -1.25 C 1.316406 -1.257812 1.21875 -1.265625 1.125 -1.265625 C 0.976562 -1.265625 0.859375 -1.207031 0.765625 -1.09375 C 0.679688 -0.988281 0.640625 -0.851562 0.640625 -0.6875 L 0.640625 0 L 0.40625 0 L 0.40625 -0.953125 C 0.40625 -1.023438 0.394531 -1.101562 0.375 -1.1875 C 0.363281 -1.28125 0.347656 -1.375 0.328125 -1.46875 L 0.5625 -1.46875 C 0.59375 -1.34375 0.613281 -1.226562 0.625 -1.125 L 0.640625 -1.125 C 0.679688 -1.226562 0.722656 -1.300781 0.765625 -1.34375 C 0.804688 -1.394531 0.859375 -1.429688 0.921875 -1.453125 C 0.984375 -1.484375 1.054688 -1.5 1.140625 -1.5 C 1.234375 -1.5 1.328125 -1.488281 1.421875 -1.46875 Z "/>
</g>
<g id="glyph-0-10">
<path d="M 0.4375 -0.6875 C 0.4375 -0.519531 0.472656 -0.390625 0.546875 -0.296875 C 0.617188 -0.203125 0.71875 -0.15625 0.84375 -0.15625 C 0.9375 -0.15625 1.019531 -0.175781 1.09375 -0.21875 C 1.164062 -0.257812 1.210938 -0.3125 1.234375 -0.375 L 1.453125 -0.328125 C 1.410156 -0.210938 1.332031 -0.125 1.21875 -0.0625 C 1.113281 0 0.988281 0.03125 0.84375 0.03125 C 0.632812 0.03125 0.472656 -0.0351562 0.359375 -0.171875 C 0.242188 -0.304688 0.1875 -0.5 0.1875 -0.75 C 0.1875 -0.988281 0.238281 -1.171875 0.34375 -1.296875 C 0.457031 -1.429688 0.617188 -1.5 0.828125 -1.5 C 1.046875 -1.5 1.207031 -1.429688 1.3125 -1.296875 C 1.425781 -1.171875 1.484375 -0.976562 1.484375 -0.71875 L 1.484375 -0.6875 Z M 0.84375 -1.3125 C 0.71875 -1.3125 0.617188 -1.269531 0.546875 -1.1875 C 0.484375 -1.113281 0.445312 -1.007812 0.4375 -0.875 L 1.234375 -0.875 C 1.203125 -1.164062 1.070312 -1.3125 0.84375 -1.3125 Z "/>
</g>
<g id="glyph-0-11">
<path d="M 1.171875 0 L 1.171875 -0.9375 C 1.171875 -1.0625 1.144531 -1.15625 1.09375 -1.21875 C 1.050781 -1.28125 0.976562 -1.3125 0.875 -1.3125 C 0.769531 -1.3125 0.679688 -1.269531 0.609375 -1.1875 C 0.535156 -1.101562 0.5 -0.988281 0.5 -0.84375 L 0.5 0 L 0.25 0 L 0.25 -1.15625 C 0.25 -1.320312 0.25 -1.425781 0.25 -1.46875 L 0.46875 -1.46875 C 0.46875 -1.46875 0.46875 -1.457031 0.46875 -1.4375 C 0.476562 -1.414062 0.484375 -1.390625 0.484375 -1.359375 C 0.484375 -1.335938 0.484375 -1.289062 0.484375 -1.21875 C 0.578125 -1.40625 0.734375 -1.5 0.953125 -1.5 C 1.109375 -1.5 1.222656 -1.457031 1.296875 -1.375 C 1.378906 -1.289062 1.421875 -1.160156 1.421875 -0.984375 L 1.421875 0 Z "/>
</g>
<g id="glyph-0-12">
<path d="M 1.484375 -0.734375 C 1.484375 -0.484375 1.4375 -0.289062 1.34375 -0.15625 C 1.25 -0.03125 1.117188 0.03125 0.953125 0.03125 C 0.722656 0.03125 0.570312 -0.0507812 0.5 -0.21875 L 0.484375 -0.21875 C 0.484375 -0.175781 0.484375 -0.128906 0.484375 -0.078125 C 0.484375 -0.0351562 0.484375 -0.0078125 0.484375 0 L 0.25 0 C 0.25 -0.0507812 0.25 -0.148438 0.25 -0.296875 L 0.25 -2.015625 L 0.5 -2.015625 L 0.5 -1.4375 C 0.5 -1.382812 0.492188 -1.316406 0.484375 -1.234375 L 0.5 -1.234375 C 0.582031 -1.410156 0.734375 -1.5 0.953125 -1.5 C 1.304688 -1.5 1.484375 -1.242188 1.484375 -0.734375 Z M 1.234375 -0.734375 C 1.234375 -0.929688 1.203125 -1.078125 1.140625 -1.171875 C 1.085938 -1.265625 1 -1.3125 0.875 -1.3125 C 0.75 -1.3125 0.65625 -1.257812 0.59375 -1.15625 C 0.53125 -1.0625 0.5 -0.914062 0.5 -0.71875 C 0.5 -0.519531 0.523438 -0.375 0.578125 -0.28125 C 0.640625 -0.195312 0.738281 -0.15625 0.875 -0.15625 C 1 -0.15625 1.085938 -0.203125 1.140625 -0.296875 C 1.203125 -0.390625 1.234375 -0.535156 1.234375 -0.734375 Z "/>
</g>
<g id="glyph-0-13">
<path d="M 1.5 -0.15625 C 1.519531 -0.15625 1.546875 -0.15625 1.578125 -0.15625 L 1.578125 -0.015625 C 1.515625 0.00390625 1.453125 0.015625 1.390625 0.015625 C 1.296875 0.015625 1.226562 -0.00390625 1.1875 -0.046875 C 1.144531 -0.0976562 1.125 -0.175781 1.125 -0.28125 L 1.109375 -0.28125 C 1.046875 -0.164062 0.972656 -0.0820312 0.890625 -0.03125 C 0.816406 0.0078125 0.722656 0.03125 0.609375 0.03125 C 0.460938 0.03125 0.351562 -0.00390625 0.28125 -0.078125 C 0.207031 -0.160156 0.171875 -0.269531 0.171875 -0.40625 C 0.171875 -0.726562 0.378906 -0.890625 0.796875 -0.890625 L 1.109375 -0.890625 L 1.109375 -0.96875 C 1.109375 -1.09375 1.082031 -1.179688 1.03125 -1.234375 C 0.988281 -1.285156 0.914062 -1.3125 0.8125 -1.3125 C 0.707031 -1.3125 0.628906 -1.289062 0.578125 -1.25 C 0.535156 -1.21875 0.507812 -1.160156 0.5 -1.078125 L 0.234375 -1.09375 C 0.273438 -1.363281 0.46875 -1.5 0.8125 -1.5 C 0.988281 -1.5 1.125 -1.457031 1.21875 -1.375 C 1.3125 -1.289062 1.359375 -1.164062 1.359375 -1 L 1.359375 -0.375 C 1.359375 -0.300781 1.367188 -0.242188 1.390625 -0.203125 C 1.410156 -0.171875 1.445312 -0.15625 1.5 -0.15625 Z M 0.671875 -0.15625 C 0.753906 -0.15625 0.828125 -0.175781 0.890625 -0.21875 C 0.960938 -0.257812 1.015625 -0.316406 1.046875 -0.390625 C 1.085938 -0.460938 1.109375 -0.535156 1.109375 -0.609375 L 1.109375 -0.71875 L 0.859375 -0.71875 C 0.742188 -0.71875 0.660156 -0.707031 0.609375 -0.6875 C 0.554688 -0.664062 0.515625 -0.628906 0.484375 -0.578125 C 0.453125 -0.535156 0.4375 -0.476562 0.4375 -0.40625 C 0.4375 -0.332031 0.453125 -0.269531 0.484375 -0.21875 C 0.523438 -0.175781 0.585938 -0.15625 0.671875 -0.15625 Z "/>
</g>
<g id="glyph-0-14">
<path d="M 0.71875 0 L 0.71875 -0.9375 C 0.71875 -1.070312 0.707031 -1.164062 0.6875 -1.21875 C 0.664062 -1.28125 0.625 -1.3125 0.5625 -1.3125 C 0.507812 -1.3125 0.460938 -1.265625 0.421875 -1.171875 C 0.390625 -1.085938 0.375 -0.972656 0.375 -0.828125 L 0.375 0 L 0.140625 0 L 0.140625 -1.15625 C 0.140625 -1.320312 0.140625 -1.425781 0.140625 -1.46875 L 0.34375 -1.46875 L 0.34375 -1.234375 C 0.375 -1.328125 0.410156 -1.394531 0.453125 -1.4375 C 0.503906 -1.476562 0.566406 -1.5 0.640625 -1.5 C 0.722656 -1.5 0.78125 -1.472656 0.8125 -1.421875 C 0.851562 -1.378906 0.882812 -1.316406 0.90625 -1.234375 C 0.945312 -1.328125 0.988281 -1.394531 1.03125 -1.4375 C 1.082031 -1.476562 1.148438 -1.5 1.234375 -1.5 C 1.335938 -1.5 1.410156 -1.457031 1.453125 -1.375 C 1.503906 -1.300781 1.53125 -1.171875 1.53125 -0.984375 L 1.53125 0 L 1.296875 0 L 1.296875 -0.9375 C 1.296875 -1.070312 1.285156 -1.164062 1.265625 -1.21875 C 1.242188 -1.28125 1.203125 -1.3125 1.140625 -1.3125 C 1.078125 -1.3125 1.03125 -1.269531 1 -1.1875 C 0.96875 -1.113281 0.953125 -1 0.953125 -0.84375 L 0.953125 0 Z "/>
</g>
<g id="glyph-0-15">
<path d="M 1.015625 -0.1875 L 1.53125 -0.1875 L 1.53125 0 L 0.1875 0 L 0.1875 -0.1875 L 0.765625 -0.1875 L 0.765625 -1.28125 L 0.328125 -1.28125 L 0.328125 -1.46875 L 1.015625 -1.46875 Z M 0.734375 -1.75 L 0.734375 -2.015625 L 1.015625 -2.015625 L 1.015625 -1.75 Z "/>
</g>
<g id="glyph-0-16">
<path d="M 1.4375 -0.421875 C 1.4375 -0.273438 1.382812 -0.160156 1.28125 -0.078125 C 1.175781 -0.00390625 1.03125 0.03125 0.84375 0.03125 C 0.65625 0.03125 0.507812 0.00390625 0.40625 -0.046875 C 0.3125 -0.109375 0.253906 -0.207031 0.234375 -0.34375 L 0.4375 -0.375 C 0.457031 -0.300781 0.492188 -0.242188 0.546875 -0.203125 C 0.609375 -0.171875 0.707031 -0.15625 0.84375 -0.15625 C 1.082031 -0.15625 1.203125 -0.234375 1.203125 -0.390625 C 1.203125 -0.441406 1.179688 -0.484375 1.140625 -0.515625 C 1.097656 -0.554688 1.03125 -0.585938 0.9375 -0.609375 C 0.695312 -0.671875 0.546875 -0.71875 0.484375 -0.75 C 0.421875 -0.78125 0.367188 -0.820312 0.328125 -0.875 C 0.296875 -0.925781 0.28125 -0.988281 0.28125 -1.0625 C 0.28125 -1.195312 0.328125 -1.300781 0.421875 -1.375 C 0.523438 -1.457031 0.664062 -1.5 0.84375 -1.5 C 1 -1.5 1.125 -1.46875 1.21875 -1.40625 C 1.320312 -1.34375 1.382812 -1.253906 1.40625 -1.140625 L 1.1875 -1.109375 C 1.175781 -1.171875 1.140625 -1.21875 1.078125 -1.25 C 1.023438 -1.289062 0.945312 -1.3125 0.84375 -1.3125 C 0.625 -1.3125 0.515625 -1.242188 0.515625 -1.109375 C 0.515625 -1.054688 0.53125 -1.007812 0.5625 -0.96875 C 0.601562 -0.9375 0.664062 -0.910156 0.75 -0.890625 L 0.90625 -0.859375 C 1.0625 -0.816406 1.171875 -0.773438 1.234375 -0.734375 C 1.296875 -0.703125 1.34375 -0.660156 1.375 -0.609375 C 1.414062 -0.554688 1.4375 -0.492188 1.4375 -0.421875 Z "/>
</g>
<g id="glyph-0-17">
<path d="M 0.390625 0.578125 C 0.328125 0.578125 0.273438 0.570312 0.234375 0.5625 L 0.234375 0.375 C 0.265625 0.382812 0.300781 0.390625 0.34375 0.390625 C 0.414062 0.390625 0.484375 0.363281 0.546875 0.3125 C 0.609375 0.257812 0.660156 0.171875 0.703125 0.046875 L 0.734375 -0.015625 L 0.09375 -1.46875 L 0.34375 -1.46875 L 0.703125 -0.59375 C 0.785156 -0.394531 0.832031 -0.28125 0.84375 -0.25 L 0.890625 -0.40625 L 1.3125 -1.46875 L 1.578125 -1.46875 L 0.953125 0 C 0.878906 0.207031 0.796875 0.351562 0.703125 0.4375 C 0.617188 0.53125 0.515625 0.578125 0.390625 0.578125 Z "/>
</g>
<g id="glyph-1-0">
<path d="M 1.296875 -0.5 C 1.140625 -0.515625 1.09375 -0.546875 0.9375 -0.703125 L 0.921875 -0.703125 C 1.046875 -0.84375 1.140625 -0.90625 1.296875 -0.921875 L 1.28125 -1.0625 C 1.09375 -1.046875 0.984375 -0.984375 0.828125 -0.8125 C 0.71875 -0.96875 0.546875 -1.0625 0.40625 -1.0625 C 0.1875 -1.0625 0.03125 -0.90625 0.03125 -0.703125 C 0.03125 -0.5 0.1875 -0.359375 0.390625 -0.359375 C 0.546875 -0.359375 0.671875 -0.421875 0.8125 -0.578125 C 0.828125 -0.59375 0.828125 -0.59375 0.828125 -0.609375 C 1 -0.421875 1.09375 -0.375 1.296875 -0.359375 Z M 0.75 -0.703125 C 0.625 -0.578125 0.5 -0.5 0.390625 -0.5 C 0.265625 -0.5 0.1875 -0.578125 0.1875 -0.703125 C 0.1875 -0.828125 0.265625 -0.921875 0.390625 -0.921875 C 0.5 -0.921875 0.59375 -0.859375 0.734375 -0.71875 C 0.734375 -0.71875 0.734375 -0.71875 0.75 -0.703125 Z "/>
</g>
</g>
</defs>
<g fill="rgb(100%, 100%, 100%)" fill-opacity="1">
<use xlink:href="#glyph-0-0" x="30" y="22.3125"/>
<use xlink:href="#glyph-0-1" x="32" y="22.3125"/>
<use xlink:href="#glyph-0-2" x="34" y="22.3125"/>
<use xlink:href="#glyph-0-3" x="36" y="22.3125"/>
<use xlink:href="#glyph-0-4" x="38" y="22.3125"/>
<use xlink:href="#glyph-0-5" x="40" y="22.3125"/>
<use xlink:href="#glyph-0-6" x="42" y="22.3125"/>
<use xlink:href="#glyph-0-5" x="44" y="22.3125"/>
<use xlink:href="#glyph-0-7" x="46" y="22.3125"/>
<use xlink:href="#glyph-0-8" x="48" y="22.3125"/>
<use xlink:href="#glyph-0-9" x="50" y="22.3125"/>
<use xlink:href="#glyph-0-9" x="52" y="22.3125"/>
<use xlink:href="#glyph-0-10" x="54" y="22.3125"/>
<use xlink:href="#glyph-0-11" x="56" y="22.3125"/>
<use xlink:href="#glyph-0-6" x="58" y="22.3125"/>
<use xlink:href="#glyph-0-2" x="60" y="22.3125"/>
</g>
<g fill="rgb(100%, 100%, 100%)" fill-opacity="1">
<use xlink:href="#glyph-1-0" x="62" y="22.3125"/>
</g>
<g fill="rgb(100%, 100%, 100%)" fill-opacity="1">
<use xlink:href="#glyph-0-2" x="64" y="22.3125"/>
<use xlink:href="#glyph-0-12" x="66" y="22.3125"/>
<use xlink:href="#glyph-0-10" x="68" y="22.3125"/>
<use xlink:href="#glyph-0-13" x="70" y="22.3125"/>
<use xlink:href="#glyph-0-14" x="72" y="22.3125"/>
<use xlink:href="#glyph-0-2" x="74" y="22.3125"/>
<use xlink:href="#glyph-0-15" x="76" y="22.3125"/>
<use xlink:href="#glyph-0-11" x="78" y="22.3125"/>
<use xlink:href="#glyph-0-6" x="80" y="22.3125"/>
<use xlink:href="#glyph-0-10" x="82" y="22.3125"/>
<use xlink:href="#glyph-0-11" x="84" y="22.3125"/>
<use xlink:href="#glyph-0-16" x="86" y="22.3125"/>
<use xlink:href="#glyph-0-15" x="88" y="22.3125"/>
<use xlink:href="#glyph-0-6" x="90" y="22.3125"/>
<use xlink:href="#glyph-0-17" x="92" y="22.3125"/>
</g>
</svg>
