<?xml version="1.0" encoding="UTF-8"?>
<svg xmlns="http://www.w3.org/2000/svg" xmlns:xlink="http://www.w3.org/1999/xlink" width="1920" height="1080" viewBox="0 0 1920 1080">
<defs>
<g>
<g id="glyph-0-0">
<path d="M 0.921875 -0.296875 C 0.921875 -0.203125 0.882812 -0.125 0.8125 -0.0625 C 0.738281 -0.0078125 0.632812 0.015625 0.5 0.015625 C 0.25 0.015625 0.101562 -0.0820312 0.0625 -0.28125 L 0.21875 -0.3125 C 0.226562 -0.238281 0.253906 -0.1875 0.296875 -0.15625 C 0.347656 -0.125 0.414062 -0.109375 0.5 -0.109375 C 0.582031 -0.109375 0.644531 -0.125 0.6875 -0.15625 C 0.738281 -0.1875 0.765625 -0.234375 0.765625 -0.296875 C 0.765625 -0.335938 0.753906 -0.367188 0.734375 -0.390625 C 0.722656 -0.410156 0.703125 -0.425781 0.671875 -0.4375 C 0.640625 -0.457031 0.601562 -0.472656 0.5625 -0.484375 C 0.53125 -0.492188 0.5 -0.503906 0.46875 -0.515625 C 0.375 -0.535156 0.304688 -0.554688 0.265625 -0.578125 C 0.234375 -0.597656 0.207031 -0.617188 0.1875 -0.640625 C 0.164062 -0.660156 0.148438 -0.6875 0.140625 -0.71875 C 0.128906 -0.75 0.125 -0.785156 0.125 -0.828125 C 0.125 -0.921875 0.15625 -0.992188 0.21875 -1.046875 C 0.28125 -1.097656 0.375 -1.125 0.5 -1.125 C 0.613281 -1.125 0.703125 -1.101562 0.765625 -1.0625 C 0.828125 -1.019531 0.867188 -0.953125 0.890625 -0.859375 L 0.734375 -0.828125 C 0.722656 -0.890625 0.695312 -0.929688 0.65625 -0.953125 C 0.625 -0.984375 0.570312 -1 0.5 -1 C 0.34375 -1 0.265625 -0.941406 0.265625 -0.828125 C 0.265625 -0.796875 0.269531 -0.769531 0.28125 -0.75 C 0.300781 -0.726562 0.320312 -0.707031 0.34375 -0.6875 C 0.375 -0.675781 0.40625 -0.664062 0.4375 -0.65625 C 0.46875 -0.65625 0.503906 -0.648438 0.546875 -0.640625 C 0.617188 -0.617188 0.671875 -0.597656 0.703125 -0.578125 C 0.734375 -0.566406 0.757812 -0.550781 0.78125 -0.53125 C 0.8125 -0.519531 0.835938 -0.503906 0.859375 -0.484375 C 0.878906 -0.460938 0.894531 -0.4375 0.90625 -0.40625 C 0.914062 -0.375 0.921875 -0.335938 0.921875 -0.296875 Z "/>
</g>
<g id="glyph-0-1">
<path d="M 0.890625 -0.4375 C 0.890625 -0.289062 0.851562 -0.175781 0.78125 -0.09375 C 0.71875 -0.0195312 0.625 0.015625 0.5 0.015625 C 0.375 0.015625 0.273438 -0.0195312 0.203125 -0.09375 C 0.140625 -0.175781 0.109375 -0.289062 0.109375 -0.4375 C 0.109375 -0.59375 0.140625 -0.707031 0.203125 -0.78125 C 0.273438 -0.863281 0.375 -0.90625 0.5 -0.90625 C 0.632812 -0.90625 0.734375 -0.863281 0.796875 -0.78125 C 0.859375 -0.707031 0.890625 -0.59375 0.890625 -0.4375 Z M 0.734375 -0.4375 C 0.734375 -0.5625 0.710938 -0.648438 0.671875 -0.703125 C 0.640625 -0.765625 0.582031 -0.796875 0.5 -0.796875 C 0.414062 -0.796875 0.351562 -0.765625 0.3125 -0.703125 C 0.28125 -0.640625 0.265625 -0.550781 0.265625 -0.4375 C 0.265625 -0.320312 0.28125 -0.234375 0.3125 -0.171875 C 0.351562 -0.117188 0.414062 -0.09375 0.5 -0.09375 C 0.582031 -0.09375 0.640625 -0.117188 0.671875 -0.171875 C 0.710938 -0.234375 0.734375 -0.320312 0.734375 -0.4375 Z "/>
</g>
<g id="glyph-0-2">
<path d="M 0.296875 -0.890625 L 0.296875 -0.328125 C 0.296875 -0.242188 0.304688 -0.179688 0.328125 -0.140625 C 0.359375 -0.109375 0.410156 -0.09375 0.484375 -0.09375 C 0.554688 -0.09375 0.609375 -0.113281 0.640625 -0.15625 C 0.679688 -0.207031 0.703125 -0.28125 0.703125 -0.375 L 0.703125 -0.890625 L 0.859375 -0.890625 L 0.859375 -0.1875 C 0.859375 -0.0820312 0.859375 -0.0195312 0.859375 0 L 0.71875 0 C 0.71875 0 0.71875 -0.00390625 0.71875 -0.015625 C 0.71875 -0.0351562 0.71875 -0.0507812 0.71875 -0.0625 C 0.71875 -0.0820312 0.71875 -0.113281 0.71875 -0.15625 C 0.675781 -0.09375 0.632812 -0.046875 0.59375 -0.015625 C 0.550781 0.00390625 0.5 0.015625 0.4375 0.015625 C 0.332031 0.015625 0.257812 -0.00390625 0.21875 -0.046875 C 0.175781 -0.0976562 0.15625 -0.179688 0.15625 -0.296875 L 0.15625 -0.890625 Z "/>
</g>
<g id="glyph-0-3">
<path d="M 0.703125 0 L 0.703125 -0.5625 C 0.703125 -0.632812 0.6875 -0.6875 0.65625 -0.71875 C 0.632812 -0.757812 0.59375 -0.78125 0.53125 -0.78125 C 0.457031 -0.78125 0.398438 -0.753906 0.359375 -0.703125 C 0.316406 -0.660156 0.296875 -0.597656 0.296875 -0.515625 L 0.296875 0 L 0.15625 0 L 0.15625 -0.6875 C 0.15625 -0.789062 0.148438 -0.859375 0.140625 -0.890625 L 0.28125 -0.890625 C 0.28125 -0.878906 0.28125 -0.867188 0.28125 -0.859375 C 0.28125 -0.847656 0.28125 -0.832031 0.28125 -0.8125 C 0.289062 -0.800781 0.296875 -0.773438 0.296875 -0.734375 C 0.347656 -0.847656 0.441406 -0.90625 0.578125 -0.90625 C 0.671875 -0.90625 0.738281 -0.878906 0.78125 -0.828125 C 0.832031 -0.773438 0.859375 -0.695312 0.859375 -0.59375 L 0.859375 0 Z "/>
</g>
<g id="glyph-0-4">
<path d="M 0.703125 -0.140625 C 0.671875 -0.0859375 0.632812 -0.046875 0.59375 -0.015625 C 0.550781 0.00390625 0.5 0.015625 0.4375 0.015625 C 0.320312 0.015625 0.238281 -0.0195312 0.1875 -0.09375 C 0.132812 -0.164062 0.109375 -0.28125 0.109375 -0.4375 C 0.109375 -0.738281 0.21875 -0.890625 0.4375 -0.890625 C 0.5 -0.890625 0.550781 -0.878906 0.59375 -0.859375 C 0.644531 -0.835938 0.679688 -0.800781 0.703125 -0.75 L 0.703125 -1.21875 L 0.84375 -1.21875 L 0.84375 -0.1875 C 0.84375 -0.09375 0.847656 -0.03125 0.859375 0 L 0.71875 0 C 0.71875 -0.0078125 0.710938 -0.03125 0.703125 -0.0625 C 0.703125 -0.09375 0.703125 -0.117188 0.703125 -0.140625 Z M 0.265625 -0.4375 C 0.265625 -0.320312 0.28125 -0.234375 0.3125 -0.171875 C 0.34375 -0.117188 0.394531 -0.09375 0.46875 -0.09375 C 0.550781 -0.09375 0.609375 -0.117188 0.640625 -0.171875 C 0.679688 -0.234375 0.703125 -0.328125 0.703125 -0.453125 C 0.703125 -0.566406 0.679688 -0.648438 0.640625 -0.703125 C 0.609375 -0.753906 0.550781 -0.78125 0.46875 -0.78125 C 0.394531 -0.78125 0.34375 -0.753906 0.3125 -0.703125 C 0.28125 -0.648438 0.265625 -0.5625 0.265625 -0.4375 Z "/>
</g>
<g id="glyph-0-5">
</g>
<g id="glyph-0-6">
<path d="M 0.578125 0 L 0.40625 0 L 0.0625 -0.890625 L 0.21875 -0.890625 L 0.4375 -0.3125 L 0.453125 -0.265625 L 0.5 -0.109375 L 0.53125 -0.203125 L 0.5625 -0.3125 L 0.78125 -0.890625 L 0.953125 -0.890625 Z "/>
</g>
<g id="glyph-0-7">
<path d="M 0.609375 -0.109375 L 0.921875 -0.109375 L 0.921875 0 L 0.109375 0 L 0.109375 -0.109375 L 0.46875 -0.109375 L 0.46875 -0.765625 L 0.203125 -0.765625 L 0.203125 -0.890625 L 0.609375 -0.890625 Z M 0.4375 -1.0625 L 0.4375 -1.21875 L 0.609375 -1.21875 L 0.609375 -1.0625 Z "/>
</g>
<g id="glyph-0-8">
<path d="M 0.890625 -0.453125 C 0.890625 -0.296875 0.859375 -0.175781 0.796875 -0.09375 C 0.742188 -0.0195312 0.664062 0.015625 0.5625 0.015625 C 0.4375 0.015625 0.347656 -0.0351562 0.296875 -0.140625 C 0.296875 -0.109375 0.296875 -0.078125 0.296875 -0.046875 C 0.296875 -0.0234375 0.289062 -0.0078125 0.28125 0 L 0.140625 0 C 0.148438 -0.03125 0.15625 -0.09375 0.15625 -0.1875 L 0.15625 -1.21875 L 0.296875 -1.21875 L 0.296875 -0.859375 C 0.296875 -0.828125 0.296875 -0.785156 0.296875 -0.734375 C 0.347656 -0.847656 0.441406 -0.90625 0.578125 -0.90625 C 0.785156 -0.90625 0.890625 -0.753906 0.890625 -0.453125 Z M 0.734375 -0.4375 C 0.734375 -0.5625 0.71875 -0.648438 0.6875 -0.703125 C 0.65625 -0.753906 0.601562 -0.78125 0.53125 -0.78125 C 0.445312 -0.78125 0.382812 -0.75 0.34375 -0.6875 C 0.3125 -0.632812 0.296875 -0.546875 0.296875 -0.421875 C 0.296875 -0.304688 0.3125 -0.222656 0.34375 -0.171875 C 0.382812 -0.117188 0.445312 -0.09375 0.53125 -0.09375 C 0.601562 -0.09375 0.65625 -0.117188 0.6875 -0.171875 C 0.71875 -0.234375 0.734375 -0.320312 0.734375 -0.4375 Z "/>
</g>
<g id="glyph-0-9">
<path d="M 0.859375 -0.75 C 0.796875 -0.757812 0.738281 -0.765625 0.6875 -0.765625 C 0.59375 -0.765625 0.519531 -0.726562 0.46875 -0.65625 C 0.414062 -0.59375 0.390625 -0.515625 0.390625 -0.421875 L 0.390625 0 L 0.234375 0 L 0.234375 -0.578125 C 0.234375 -0.617188 0.226562 -0.664062 0.21875 -0.71875 C 0.21875 -0.769531 0.210938 -0.828125 0.203125 -0.890625 L 0.34375 -0.890625 C 0.363281 -0.804688 0.375 -0.734375 0.375 -0.671875 C 0.40625 -0.734375 0.429688 -0.78125 0.453125 -0.8125 C 0.484375 -0.84375 0.515625 -0.863281 0.546875 -0.875 C 0.585938 -0.894531 0.632812 -0.90625 0.6875 -0.90625 C 0.738281 -0.90625 0.796875 -0.898438 0.859375 -0.890625 Z "/>
</g>
<g id="glyph-0-10">
<path d="M 0.90625 -0.09375 C 0.914062 -0.09375 0.929688 -0.09375 0.953125 -0.09375 L 0.953125 0 C 0.910156 0.0078125 0.867188 0.015625 0.828125 0.015625 C 0.773438 0.015625 0.734375 0 0.703125 -0.03125 C 0.679688 -0.0625 0.671875 -0.109375 0.671875 -0.171875 C 0.628906 -0.0976562 0.582031 -0.046875 0.53125 -0.015625 C 0.488281 0.00390625 0.429688 0.015625 0.359375 0.015625 C 0.273438 0.015625 0.210938 -0.00390625 0.171875 -0.046875 C 0.128906 -0.0976562 0.109375 -0.164062 0.109375 -0.25 C 0.109375 -0.4375 0.226562 -0.53125 0.46875 -0.53125 L 0.671875 -0.53125 L 0.671875 -0.59375 C 0.671875 -0.65625 0.65625 -0.703125 0.625 -0.734375 C 0.59375 -0.765625 0.546875 -0.78125 0.484375 -0.78125 C 0.421875 -0.78125 0.375 -0.769531 0.34375 -0.75 C 0.320312 -0.726562 0.304688 -0.691406 0.296875 -0.640625 L 0.140625 -0.65625 C 0.171875 -0.820312 0.285156 -0.90625 0.484375 -0.90625 C 0.597656 -0.90625 0.679688 -0.878906 0.734375 -0.828125 C 0.785156 -0.773438 0.8125 -0.703125 0.8125 -0.609375 L 0.8125 -0.21875 C 0.8125 -0.175781 0.816406 -0.144531 0.828125 -0.125 C 0.835938 -0.101562 0.863281 -0.09375 0.90625 -0.09375 Z M 0.40625 -0.09375 C 0.457031 -0.09375 0.5 -0.101562 0.53125 -0.125 C 0.570312 -0.15625 0.601562 -0.191406 0.625 -0.234375 C 0.65625 -0.273438 0.671875 -0.316406 0.671875 -0.359375 L 0.671875 -0.4375 L 0.515625 -0.4375 C 0.453125 -0.4375 0.398438 -0.425781 0.359375 -0.40625 C 0.328125 -0.394531 0.300781 -0.375 0.28125 -0.34375 C 0.269531 -0.320312 0.265625 -0.285156 0.265625 -0.234375 C 0.265625 -0.191406 0.273438 -0.15625 0.296875 -0.125 C 0.316406 -0.101562 0.351562 -0.09375 0.40625 -0.09375 Z "/>
</g>
<g id="glyph-0-11">
<path d="M 0.15625 -0.765625 L 0.15625 -0.890625 L 0.296875 -0.890625 L 0.34375 -1.109375 L 0.4375 -1.109375 L 0.4375 -0.890625 L 0.796875 -0.890625 L 0.796875 -0.765625 L 0.4375 -0.765625 L 0.4375 -0.234375 C 0.4375 -0.191406 0.445312 -0.160156 0.46875 -0.140625 C 0.5 -0.117188 0.539062 -0.109375 0.59375 -0.109375 C 0.664062 -0.109375 0.742188 -0.117188 0.828125 -0.140625 L 0.828125 -0.03125 C 0.734375 0 0.644531 0.015625 0.5625 0.015625 C 0.46875 0.015625 0.398438 0 0.359375 -0.03125 C 0.316406 -0.0703125 0.296875 -0.132812 0.296875 -0.21875 L 0.296875 -0.765625 Z "/>
</g>
<g id="glyph-0-12">
<path d="M 0.265625 -0.40625 C 0.265625 -0.3125 0.285156 -0.234375 0.328125 -0.171875 C 0.367188 -0.117188 0.429688 -0.09375 0.515625 -0.09375 C 0.566406 -0.09375 0.613281 -0.101562 0.65625 -0.125 C 0.695312 -0.15625 0.722656 -0.191406 0.734375 -0.234375 L 0.875 -0.1875 C 0.84375 -0.125 0.796875 -0.0703125 0.734375 -0.03125 C 0.671875 0 0.597656 0.015625 0.515625 0.015625 C 0.378906 0.015625 0.273438 -0.0195312 0.203125 -0.09375 C 0.140625 -0.175781 0.109375 -0.296875 0.109375 -0.453125 C 0.109375 -0.597656 0.140625 -0.707031 0.203125 -0.78125 C 0.273438 -0.863281 0.375 -0.90625 0.5 -0.90625 C 0.632812 -0.90625 0.734375 -0.863281 0.796875 -0.78125 C 0.859375 -0.707031 0.890625 -0.59375 0.890625 -0.4375 L 0.890625 -0.40625 Z M 0.5 -0.796875 C 0.425781 -0.796875 0.367188 -0.769531 0.328125 -0.71875 C 0.285156 -0.664062 0.265625 -0.597656 0.265625 -0.515625 L 0.734375 -0.515625 C 0.722656 -0.703125 0.644531 -0.796875 0.5 -0.796875 Z "/>
</g>
<g id="glyph-0-13">
<path d="M 0.859375 -0.25 C 0.859375 -0.164062 0.828125 -0.0976562 0.765625 -0.046875 C 0.703125 -0.00390625 0.613281 0.015625 0.5 0.015625 C 0.394531 0.015625 0.3125 0 0.25 -0.03125 C 0.1875 -0.0703125 0.148438 -0.128906 0.140625 -0.203125 L 0.265625 -0.234375 C 0.273438 -0.179688 0.296875 -0.144531 0.328125 -0.125 C 0.367188 -0.101562 0.425781 -0.09375 0.5 -0.09375 C 0.65625 -0.09375 0.734375 -0.140625 0.734375 -0.234375 C 0.734375 -0.265625 0.71875 -0.289062 0.6875 -0.3125 C 0.65625 -0.332031 0.613281 -0.351562 0.5625 -0.375 C 0.414062 -0.40625 0.320312 -0.429688 0.28125 -0.453125 C 0.25 -0.472656 0.222656 -0.5 0.203125 -0.53125 C 0.179688 -0.5625 0.171875 -0.597656 0.171875 -0.640625 C 0.171875 -0.722656 0.195312 -0.785156 0.25 -0.828125 C 0.3125 -0.867188 0.398438 -0.890625 0.515625 -0.890625 C 0.609375 -0.890625 0.679688 -0.867188 0.734375 -0.828125 C 0.796875 -0.796875 0.832031 -0.75 0.84375 -0.6875 L 0.71875 -0.671875 C 0.707031 -0.710938 0.6875 -0.738281 0.65625 -0.75 C 0.625 -0.769531 0.578125 -0.78125 0.515625 -0.78125 C 0.378906 -0.78125 0.3125 -0.742188 0.3125 -0.671875 C 0.3125 -0.628906 0.320312 -0.597656 0.34375 -0.578125 C 0.363281 -0.566406 0.398438 -0.550781 0.453125 -0.53125 L 0.546875 -0.515625 C 0.640625 -0.492188 0.703125 -0.472656 0.734375 -0.453125 C 0.773438 -0.429688 0.804688 -0.40625 0.828125 -0.375 C 0.847656 -0.34375 0.859375 -0.300781 0.859375 -0.25 Z "/>
</g>
<g id="glyph-0-14">
<path d="M 0.5 0.34375 C 0.40625 0.34375 0.332031 0.320312 0.28125 0.28125 C 0.226562 0.25 0.191406 0.195312 0.171875 0.125 L 0.328125 0.109375 C 0.335938 0.148438 0.359375 0.179688 0.390625 0.203125 C 0.421875 0.222656 0.457031 0.234375 0.5 0.234375 C 0.632812 0.234375 0.703125 0.148438 0.703125 -0.015625 L 0.703125 -0.1875 C 0.679688 -0.125 0.644531 -0.078125 0.59375 -0.046875 C 0.550781 -0.0234375 0.492188 -0.015625 0.421875 -0.015625 C 0.316406 -0.015625 0.238281 -0.046875 0.1875 -0.109375 C 0.132812 -0.179688 0.109375 -0.296875 0.109375 -0.453125 C 0.109375 -0.597656 0.132812 -0.707031 0.1875 -0.78125 C 0.25 -0.851562 0.332031 -0.890625 0.4375 -0.890625 C 0.5 -0.890625 0.550781 -0.875 0.59375 -0.84375 C 0.644531 -0.820312 0.679688 -0.785156 0.703125 -0.734375 L 0.71875 -0.734375 C 0.71875 -0.742188 0.71875 -0.769531 0.71875 -0.8125 C 0.71875 -0.851562 0.71875 -0.878906 0.71875 -0.890625 L 0.859375 -0.890625 C 0.859375 -0.859375 0.859375 -0.796875 0.859375 -0.703125 L 0.859375 -0.03125 C 0.859375 0.09375 0.828125 0.1875 0.765625 0.25 C 0.710938 0.3125 0.625 0.34375 0.5 0.34375 Z M 0.703125 -0.453125 C 0.703125 -0.554688 0.679688 -0.632812 0.640625 -0.6875 C 0.609375 -0.75 0.554688 -0.78125 0.484375 -0.78125 C 0.410156 -0.78125 0.351562 -0.753906 0.3125 -0.703125 C 0.28125 -0.648438 0.265625 -0.566406 0.265625 -0.453125 C 0.265625 -0.367188 0.269531 -0.300781 0.28125 -0.25 C 0.300781 -0.207031 0.320312 -0.175781 0.34375 -0.15625 C 0.375 -0.132812 0.421875 -0.125 0.484375 -0.125 C 0.523438 -0.125 0.5625 -0.132812 0.59375 -0.15625 C 0.632812 -0.1875 0.660156 -0.222656 0.671875 -0.265625 C 0.691406 -0.316406 0.703125 -0.378906 0.703125 -0.453125 Z "/>
</g>
<g id="glyph-0-15">
<path d="M 0.59375 -0.109375 L 0.90625 -0.109375 L 0.90625 0 L 0.109375 0 L 0.109375 -0.109375 L 0.453125 -0.109375 L 0.453125 -1.09375 L 0.21875 -1.09375 L 0.21875 -1.21875 L 0.59375 -1.21875 Z "/>
</g>
<g id="glyph-0-16">
<path d="M 0.8125 -0.46875 C 0.78125 -0.5 0.75 -0.550781 0.71875 -0.625 L 0.78125 -0.625 C 0.84375 -0.539062 0.914062 -0.484375 1 -0.453125 L 1 -0.421875 C 0.914062 -0.378906 0.84375 -0.316406 0.78125 -0.234375 L 0.71875 -0.234375 C 0.75 -0.304688 0.78125 -0.359375 0.8125 -0.390625 L 0 -0.390625 L 0 -0.46875 Z "/>
</g>
<g id="glyph-0-17">
<path d="M 0.90625 -0.109375 C 0.78125 -0.0234375 0.648438 0.015625 0.515625 0.015625 C 0.378906 0.015625 0.273438 -0.03125 0.203125 -0.125 C 0.128906 -0.226562 0.09375 -0.375 0.09375 -0.5625 C 0.09375 -0.75 0.128906 -0.890625 0.203125 -0.984375 C 0.273438 -1.078125 0.382812 -1.125 0.53125 -1.125 C 0.71875 -1.125 0.84375 -1.03125 0.90625 -0.84375 L 0.765625 -0.796875 C 0.722656 -0.921875 0.644531 -0.984375 0.53125 -0.984375 C 0.4375 -0.984375 0.363281 -0.945312 0.3125 -0.875 C 0.269531 -0.8125 0.25 -0.707031 0.25 -0.5625 C 0.25 -0.257812 0.34375 -0.109375 0.53125 -0.109375 C 0.570312 -0.109375 0.609375 -0.113281 0.640625 -0.125 C 0.679688 -0.132812 0.71875 -0.148438 0.75 -0.171875 L 0.75 -0.4375 L 0.5 -0.4375 L 0.5 -0.578125 L 0.90625 -0.578125 Z "/>
</g>
<g id="glyph-0-18">
<path d="M 0.4375 0 L 0.4375 -0.5625 C 0.4375 -0.644531 0.425781 -0.703125 0.40625 -0.734375 C 0.394531 -0.765625 0.375 -0.78125 0.34375 -0.78125 C 0.300781 -0.78125 0.269531 -0.753906 0.25 -0.703125 C 0.226562 -0.648438 0.21875 -0.582031 0.21875 -0.5 L 0.21875 0 L 0.078125 0 L 0.078125 -0.6875 C 0.078125 -0.789062 0.078125 -0.859375 0.078125 -0.890625 L 0.203125 -0.890625 L 0.203125 -0.734375 C 0.222656 -0.796875 0.25 -0.835938 0.28125 -0.859375 C 0.3125 -0.890625 0.347656 -0.90625 0.390625 -0.90625 C 0.429688 -0.90625 0.460938 -0.890625 0.484375 -0.859375 C 0.515625 -0.835938 0.535156 -0.796875 0.546875 -0.734375 C 0.566406 -0.796875 0.59375 -0.835938 0.625 -0.859375 C 0.65625 -0.890625 0.691406 -0.90625 0.734375 -0.90625 C 0.796875 -0.90625 0.84375 -0.878906 0.875 -0.828125 C 0.90625 -0.785156 0.921875 -0.707031 0.921875 -0.59375 L 0.921875 0 L 0.78125 0 L 0.78125 -0.5625 C 0.78125 -0.644531 0.769531 -0.703125 0.75 -0.734375 C 0.738281 -0.765625 0.71875 -0.78125 0.6875 -0.78125 C 0.65625 -0.78125 0.628906 -0.757812 0.609375 -0.71875 C 0.585938 -0.675781 0.578125 -0.609375 0.578125 -0.515625 L 0.578125 0 Z "/>
</g>
<g id="glyph-0-19">
<path d="M 0.90625 -0.765625 C 0.90625 -0.703125 0.890625 -0.644531 0.859375 -0.59375 C 0.828125 -0.539062 0.78125 -0.5 0.71875 -0.46875 C 0.664062 -0.4375 0.597656 -0.421875 0.515625 -0.421875 L 0.28125 -0.421875 L 0.28125 0 L 0.125 0 L 0.125 -1.09375 L 0.5 -1.09375 C 0.632812 -1.09375 0.734375 -1.0625 0.796875 -1 C 0.867188 -0.945312 0.90625 -0.867188 0.90625 -0.765625 Z M 0.75 -0.765625 C 0.75 -0.898438 0.660156 -0.96875 0.484375 -0.96875 L 0.28125 -0.96875 L 0.28125 -0.546875 L 0.5 -0.546875 C 0.570312 -0.546875 0.628906 -0.5625 0.671875 -0.59375 C 0.722656 -0.632812 0.75 -0.691406 0.75 -0.765625 Z "/>
</g>
<g id="glyph-0-20">
<path d="M 0.15625 -1.21875 L 0.296875 -1.21875 L 0.296875 -0.890625 C 0.296875 -0.859375 0.296875 -0.804688 0.296875 -0.734375 C 0.347656 -0.847656 0.441406 -0.90625 0.578125 -0.90625 C 0.765625 -0.90625 0.859375 -0.800781 0.859375 -0.59375 L 0.859375 0 L 0.703125 0 L 0.703125 -0.5625 C 0.703125 -0.632812 0.6875 -0.6875 0.65625 -0.71875 C 0.632812 -0.757812 0.59375 -0.78125 0.53125 -0.78125 C 0.457031 -0.78125 0.398438 -0.753906 0.359375 -0.703125 C 0.316406 -0.660156 0.296875 -0.597656 0.296875 -0.515625 L 0.296875 0 L 0.15625 0 Z "/>
</g>
<g id="glyph-0-21">
<path d="M 0.109375 -0.4375 C 0.109375 -0.582031 0.140625 -0.695312 0.203125 -0.78125 C 0.273438 -0.863281 0.378906 -0.90625 0.515625 -0.90625 C 0.617188 -0.90625 0.703125 -0.878906 0.765625 -0.828125 C 0.828125 -0.773438 0.863281 -0.710938 0.875 -0.640625 L 0.71875 -0.625 C 0.707031 -0.675781 0.6875 -0.710938 0.65625 -0.734375 C 0.625 -0.765625 0.578125 -0.78125 0.515625 -0.78125 C 0.421875 -0.78125 0.351562 -0.753906 0.3125 -0.703125 C 0.28125 -0.648438 0.265625 -0.566406 0.265625 -0.453125 C 0.265625 -0.328125 0.28125 -0.234375 0.3125 -0.171875 C 0.351562 -0.117188 0.421875 -0.09375 0.515625 -0.09375 C 0.566406 -0.09375 0.613281 -0.109375 0.65625 -0.140625 C 0.695312 -0.171875 0.71875 -0.210938 0.71875 -0.265625 L 0.875 -0.265625 C 0.875 -0.210938 0.859375 -0.164062 0.828125 -0.125 C 0.796875 -0.0820312 0.75 -0.046875 0.6875 -0.015625 C 0.632812 0.00390625 0.578125 0.015625 0.515625 0.015625 C 0.378906 0.015625 0.273438 -0.0195312 0.203125 -0.09375 C 0.140625 -0.175781 0.109375 -0.289062 0.109375 -0.4375 Z "/>
</g>
<g id="glyph-0-22">
<path d="M 0.84375 0 L 0.734375 -0.3125 L 0.265625 -0.3125 L 0.15625 0 L 0 0 L 0.421875 -1.09375 L 0.59375 -1.09375 L 1 0 Z M 0.5 -0.984375 L 0.5 -0.953125 L 0.3125 -0.4375 L 0.6875 -0.4375 L 0.546875 -0.84375 Z "/>
</g>
<g id="glyph-0-23">
<path d="M 0.890625 -0.453125 C 0.890625 -0.140625 0.78125 0.015625 0.5625 0.015625 C 0.4375 0.015625 0.347656 -0.0351562 0.296875 -0.140625 C 0.296875 -0.128906 0.296875 -0.0820312 0.296875 0 L 0.296875 0.34375 L 0.15625 0.34375 L 0.15625 -0.703125 C 0.15625 -0.796875 0.148438 -0.859375 0.140625 -0.890625 L 0.28125 -0.890625 C 0.289062 -0.878906 0.296875 -0.867188 0.296875 -0.859375 C 0.296875 -0.847656 0.296875 -0.828125 0.296875 -0.796875 C 0.296875 -0.765625 0.296875 -0.742188 0.296875 -0.734375 C 0.328125 -0.796875 0.363281 -0.835938 0.40625 -0.859375 C 0.445312 -0.890625 0.5 -0.90625 0.5625 -0.90625 C 0.675781 -0.90625 0.757812 -0.863281 0.8125 -0.78125 C 0.863281 -0.707031 0.890625 -0.597656 0.890625 -0.453125 Z M 0.734375 -0.453125 C 0.734375 -0.566406 0.71875 -0.648438 0.6875 -0.703125 C 0.65625 -0.753906 0.601562 -0.78125 0.53125 -0.78125 C 0.445312 -0.78125 0.382812 -0.75 0.34375 -0.6875 C 0.3125 -0.632812 0.296875 -0.546875 0.296875 -0.421875 C 0.296875 -0.304688 0.3125 -0.222656 0.34375 -0.171875 C 0.382812 -0.117188 0.445312 -0.09375 0.53125 -0.09375 C 0.601562 -0.09375 0.65625 -0.117188 0.6875 -0.171875 C 0.71875 -0.222656 0.734375 -0.316406 0.734375 -0.453125 Z "/>
</g>
</g>
</defs>
<g fill="rgb(0%, 100%, 80%)" fill-opacity="1">
<use xlink:href="#glyph-0-0" x="30" y="21.387695"/>
<use xlink:href="#glyph-0-1" x="31" y="21.387695"/>
<use xlink:href="#glyph-0-2" x="32" y="21.387695"/>
<use xlink:href="#glyph-0-3" x="33" y="21.387695"/>
<use xlink:href="#glyph-0-4" x="34" y="21.387695"/>
<use xlink:href="#glyph-0-5" x="35" y="21.387695"/>
<use xlink:href="#glyph-0-6" x="36" y="21.387695"/>
<use xlink:href="#glyph-0-7" x="37" y="21.387695"/>
<use xlink:href="#glyph-0-8" x="38" y="21.387695"/>
<use xlink:href="#glyph-0-9" x="39" y="21.387695"/>
<use xlink:href="#glyph-0-10" x="40" y="21.387695"/>
<use xlink:href="#glyph-0-11" x="41" y="21.387695"/>
<use xlink:href="#glyph-0-12" x="42" y="21.387695"/>
<use xlink:href="#glyph-0-13" x="43" y="21.387695"/>
<use xlink:href="#glyph-0-5" x="44" y="21.387695"/>
<use xlink:href="#glyph-0-14" x="45" y="21.387695"/>
<use xlink:href="#glyph-0-15" x="46" y="21.387695"/>
<use xlink:href="#glyph-0-10" x="47" y="21.387695"/>
<use xlink:href="#glyph-0-13" x="48" y="21.387695"/>
<use xlink:href="#glyph-0-13" x="49" y="21.387695"/>
</g>
<g fill="rgb(100%, 100%, 100%)" fill-opacity="1">
<use xlink:href="#glyph-0-5" x="50" y="21.387695"/>
<use xlink:href="#glyph-0-5" x="51" y="21.387695"/>
<use xlink:href="#glyph-0-16" x="52" y="21.387695"/>
<use xlink:href="#glyph-0-5" x="53" y="21.387695"/>
<use xlink:href="#glyph-0-5" x="54" y="21.387695"/>
<use xlink:href="#glyph-0-17" x="55" y="21.387695"/>
<use xlink:href="#glyph-0-15" x="56" y="21.387695"/>
<use xlink:href="#glyph-0-10" x="57" y="21.387695"/>
<use xlink:href="#glyph-0-13" x="58" y="21.387695"/>
<use xlink:href="#glyph-0-13" x="59" y="21.387695"/>
<use xlink:href="#glyph-0-5" x="60" y="21.387695"/>
</g>
<g fill="rgb(49.411765%, 84.705882%, 5.882353%)" fill-opacity="1">
<use xlink:href="#glyph-0-18" x="61" y="21.387695"/>
<use xlink:href="#glyph-0-1" x="62" y="21.387695"/>
<use xlink:href="#glyph-0-4" x="63" y="21.387695"/>
<use xlink:href="#glyph-0-2" x="64" y="21.387695"/>
<use xlink:href="#glyph-0-15" x="65" y="21.387695"/>
<use xlink:href="#glyph-0-10" x="66" y="21.387695"/>
<use xlink:href="#glyph-0-11" x="67" y="21.387695"/>
<use xlink:href="#glyph-0-12" x="68" y="21.387695"/>
<use xlink:href="#glyph-0-13" x="69" y="21.387695"/>
<use xlink:href="#glyph-0-5" x="70" y="21.387695"/>
<use xlink:href="#glyph-0-15" x="71" y="21.387695"/>
<use xlink:href="#glyph-0-10" x="72" y="21.387695"/>
<use xlink:href="#glyph-0-13" x="73" y="21.387695"/>
<use xlink:href="#glyph-0-12" x="74" y="21.387695"/>
<use xlink:href="#glyph-0-9" x="75" y="21.387695"/>
</g>
<g fill="rgb(100%, 100%, 100%)" fill-opacity="1">
<use xlink:href="#glyph-0-5" x="76" y="21.387695"/>
<use xlink:href="#glyph-0-5" x="77" y="21.387695"/>
<use xlink:href="#glyph-0-16" x="78" y="21.387695"/>
<use xlink:href="#glyph-0-5" x="79" y="21.387695"/>
<use xlink:href="#glyph-0-5" x="80" y="21.387695"/>
</g>
<g fill="rgb(100%, 84.313725%, 0%)" fill-opacity="1">
<use xlink:href="#glyph-0-19" x="81" y="21.387695"/>
<use xlink:href="#glyph-0-20" x="82" y="21.387695"/>
<use xlink:href="#glyph-0-1" x="83" y="21.387695"/>
<use xlink:href="#glyph-0-11" x="84" y="21.387695"/>
<use xlink:href="#glyph-0-1" x="85" y="21.387695"/>
<use xlink:href="#glyph-0-4" x="86" y="21.387695"/>
<use xlink:href="#glyph-0-7" x="87" y="21.387695"/>
<use xlink:href="#glyph-0-1" x="88" y="21.387695"/>
<use xlink:href="#glyph-0-4" x="89" y="21.387695"/>
<use xlink:href="#glyph-0-12" x="90" y="21.387695"/>
</g>
<g fill="rgb(100%, 100%, 100%)" fill-opacity="1">
<use xlink:href="#glyph-0-5" x="91" y="21.387695"/>
<use xlink:href="#glyph-0-21" x="92" y="21.387695"/>
<use xlink:href="#glyph-0-1" x="93" y="21.387695"/>
<use xlink:href="#glyph-0-3" x="94" y="21.387695"/>
<use xlink:href="#glyph-0-6" x="95" y="21.387695"/>
<use xlink:href="#glyph-0-12" x="96" y="21.387695"/>
<use xlink:href="#glyph-0-9" x="97" y="21.387695"/>
<use xlink:href="#glyph-0-11" x="98" y="21.387695"/>
<use xlink:href="#glyph-0-13" x="99" y="21.387695"/>
<use xlink:href="#glyph-0-5" x="100" y="21.387695"/>
<use xlink:href="#glyph-0-15" x="101" y="21.387695"/>
<use xlink:href="#glyph-0-7" x="102" y="21.387695"/>
<use xlink:href="#glyph-0-14" x="103" y="21.387695"/>
<use xlink:href="#glyph-0-20" x="104" y="21.387695"/>
<use xlink:href="#glyph-0-11" x="105" y="21.387695"/>
<use xlink:href="#glyph-0-5" x="106" y="21.387695"/>
<use xlink:href="#glyph-0-11" x="107" y="21.387695"/>
<use xlink:href="#glyph-0-1" x="108" y="21.387695"/>
<use xlink:href="#glyph-0-5" x="109" y="21.387695"/>
<use xlink:href="#glyph-0-6" x="110" y="21.387695"/>
<use xlink:href="#glyph-0-1" x="111" y="21.387695"/>
<use xlink:href="#glyph-0-15" x="112" y="21.387695"/>
<use xlink:href="#glyph-0-11" x="113" y="21.387695"/>
<use xlink:href="#glyph-0-10" x="114" y="21.387695"/>
<use xlink:href="#glyph-0-14" x="115" y="21.387695"/>
<use xlink:href="#glyph-0-12" x="116" y="21.387695"/>
<use xlink:href="#glyph-0-5" x="117" y="21.387695"/>
<use xlink:href="#glyph-0-5" x="118" y="21.387695"/>
<use xlink:href="#glyph-0-16" x="119" y="21.387695"/>
<use xlink:href="#glyph-0-5" x="120" y="21.387695"/>
<use xlink:href="#glyph-0-5" x="121" y="21.387695"/>
</g>
<g fill="rgb(66.666667%, 26.666667%, 100%)" fill-opacity="1">
<use xlink:href="#glyph-0-22" x="122" y="21.387695"/>
<use xlink:href="#glyph-0-18" x="123" y="21.387695"/>
<use xlink:href="#glyph-0-23" x="124" y="21.387695"/>
<use xlink:href="#glyph-0-5" x="125" y="21.387695"/>
<use xlink:href="#glyph-0-8" x="126" y="21.387695"/>
<use xlink:href="#glyph-0-1" x="127" y="21.387695"/>
<use xlink:href="#glyph-0-1" x="128" y="21.387695"/>
<use xlink:href="#glyph-0-13" x="129" y="21.387695"/>
<use xlink:href="#glyph-0-11" x="130" y="21.387695"/>
<use xlink:href="#glyph-0-13" x="131" y="21.387695"/>
</g>
<g fill="rgb(100%, 100%, 100%)" fill-opacity="1">
<use xlink:href="#glyph-0-5" x="132" y="21.387695"/>
<use xlink:href="#glyph-0-13" x="133" y="21.387695"/>
<use xlink:href="#glyph-0-7" x="134" y="21.387695"/>
<use xlink:href="#glyph-0-14" x="135" y="21.387695"/>
<use xlink:href="#glyph-0-3" x="136" y="21.387695"/>
<use xlink:href="#glyph-0-10" x="137" y="21.387695"/>
<use xlink:href="#glyph-0-15" x="138" y="21.387695"/>
<use xlink:href="#glyph-0-5" x="139" y="21.387695"/>
<use xlink:href="#glyph-0-5" x="140" y="21.387695"/>
<use xlink:href="#glyph-0-16" x="141" y="21.387695"/>
<use xlink:href="#glyph-0-5" x="142" y="21.387695"/>
<use xlink:href="#glyph-0-5" x="143" y="21.387695"/>
<use xlink:href="#glyph-0-0" x="144" y="21.387695"/>
<use xlink:href="#glyph-0-1" x="145" y="21.387695"/>
<use xlink:href="#glyph-0-2" x="146" y="21.387695"/>
<use xlink:href="#glyph-0-3" x="147" y="21.387695"/>
<use xlink:href="#glyph-0-4" x="148" y="21.387695"/>
<use xlink:href="#glyph-0-5" x="149" y="21.387695"/>
<use xlink:href="#glyph-0-21" x="150" y="21.387695"/>
<use xlink:href="#glyph-0-10" x="151" y="21.387695"/>
<use xlink:href="#glyph-0-9" x="152" y="21.387695"/>
<use xlink:href="#glyph-0-4" x="153" y="21.387695"/>
<use xlink:href="#glyph-0-5" x="154" y="21.387695"/>
<use xlink:href="#glyph-0-4" x="155" y="21.387695"/>
<use xlink:href="#glyph-0-7" x="156" y="21.387695"/>
<use xlink:href="#glyph-0-14" x="157" y="21.387695"/>
<use xlink:href="#glyph-0-7" x="158" y="21.387695"/>
<use xlink:href="#glyph-0-11" x="159" y="21.387695"/>
<use xlink:href="#glyph-0-7" x="160" y="21.387695"/>
<use xlink:href="#glyph-0-13" x="161" y="21.387695"/>
<use xlink:href="#glyph-0-12" x="162" y="21.387695"/>
<use xlink:href="#glyph-0-13" x="163" y="21.387695"/>
<use xlink:href="#glyph-0-5" x="164" y="21.387695"/>
<use xlink:href="#glyph-0-5" x="165" y="21.387695"/>
<use xlink:href="#glyph-0-16" x="166" y="21.387695"/>
<use xlink:href="#glyph-0-5" x="167" y="21.387695"/>
<use xlink:href="#glyph-0-5" x="168" y="21.387695"/>
</g>
<g fill="rgb(20%, 80%, 100%)" fill-opacity="1">
<use xlink:href="#glyph-0-22" x="169" y="21.387695"/>
<use xlink:href="#glyph-0-2" x="170" y="21.387695"/>
<use xlink:href="#glyph-0-4" x="171" y="21.387695"/>
<use xlink:href="#glyph-0-7" x="172" y="21.387695"/>
<use xlink:href="#glyph-0-1" x="173" y="21.387695"/>
<use xlink:href="#glyph-0-5" x="174" y="21.387695"/>
<use xlink:href="#glyph-0-9" x="175" y="21.387695"/>
<use xlink:href="#glyph-0-12" x="176" y="21.387695"/>
<use xlink:href="#glyph-0-21" x="177" y="21.387695"/>
<use xlink:href="#glyph-0-1" x="178" y="21.387695"/>
<use xlink:href="#glyph-0-6" x="179" y="21.387695"/>
<use xlink:href="#glyph-0-12" x="180" y="21.387695"/>
<use xlink:href="#glyph-0-9" x="181" y="21.387695"/>
<use xlink:href="#glyph-0-12" x="182" y="21.387695"/>
<use xlink:href="#glyph-0-4" x="183" y="21.387695"/>
</g>
<g fill="rgb(100%, 100%, 100%)" fill-opacity="1">
<use xlink:href="#glyph-0-5" x="184" y="21.387695"/>
<use xlink:href="#glyph-0-1" x="185" y="21.387695"/>
<use xlink:href="#glyph-0-3" x="186" y="21.387695"/>
<use xlink:href="#glyph-0-5" x="187" y="21.387695"/>
<use xlink:href="#glyph-0-15" x="188" y="21.387695"/>
<use xlink:href="#glyph-0-10" x="189" y="21.387695"/>
<use xlink:href="#glyph-0-23" x="190" y="21.387695"/>
<use xlink:href="#glyph-0-11" x="191" y="21.387695"/>
<use xlink:href="#glyph-0-1" x="192" y="21.387695"/>
<use xlink:href="#glyph-0-23" x="193" y="21.387695"/>
</g>
</svg>
