<?xml version="1.0" encoding="UTF-8"?>
<svg xmlns="http://www.w3.org/2000/svg" xmlns:xlink="http://www.w3.org/1999/xlink" width="1920" height="1080" viewBox="0 0 1920 1080">
<defs>
<g>
<g id="glyph-0-0">
<path d="M 0.25 0 L 0.25 -1.640625 L 0.625 -1.640625 L 0.625 -0.28125 L 1.375 -0.28125 L 1.375 0 Z "/>
</g>
<g id="glyph-0-1">
<path d="M 1.5 0 L 1.140625 0 L 1.03125 -0.40625 L 0.46875 -0.40625 L 0.359375 0 L 0 0 L 0.546875 -1.640625 L 0.953125 -1.640625 Z M 0.75 -1.421875 C 0.738281 -1.390625 0.722656 -1.335938 0.703125 -1.265625 C 0.691406 -1.203125 0.640625 -1.003906 0.546875 -0.671875 L 0.953125 -0.671875 C 0.859375 -1.003906 0.800781 -1.203125 0.78125 -1.265625 C 0.769531 -1.335938 0.757812 -1.390625 0.75 -1.421875 Z "/>
</g>
<g id="glyph-0-2">
<path d="M 1.421875 -0.484375 C 1.421875 -0.328125 1.359375 -0.203125 1.234375 -0.109375 C 1.117188 -0.015625 0.957031 0.03125 0.75 0.03125 C 0.550781 0.03125 0.390625 -0.0078125 0.265625 -0.09375 C 0.148438 -0.175781 0.078125 -0.296875 0.046875 -0.453125 L 0.390625 -0.5 C 0.410156 -0.414062 0.445312 -0.351562 0.5 -0.3125 C 0.5625 -0.269531 0.644531 -0.25 0.75 -0.25 C 0.863281 -0.25 0.945312 -0.265625 1 -0.296875 C 1.050781 -0.328125 1.078125 -0.378906 1.078125 -0.453125 C 1.078125 -0.503906 1.050781 -0.546875 1 -0.578125 C 0.957031 -0.617188 0.890625 -0.65625 0.796875 -0.6875 C 0.628906 -0.726562 0.507812 -0.765625 0.4375 -0.796875 C 0.363281 -0.828125 0.304688 -0.859375 0.265625 -0.890625 C 0.222656 -0.929688 0.1875 -0.976562 0.15625 -1.03125 C 0.132812 -1.082031 0.125 -1.140625 0.125 -1.203125 C 0.125 -1.347656 0.179688 -1.460938 0.296875 -1.546875 C 0.410156 -1.628906 0.5625 -1.671875 0.75 -1.671875 C 0.9375 -1.671875 1.078125 -1.632812 1.171875 -1.5625 C 1.273438 -1.488281 1.34375 -1.378906 1.375 -1.234375 L 1.03125 -1.1875 C 0.988281 -1.34375 0.894531 -1.421875 0.75 -1.421875 C 0.65625 -1.421875 0.585938 -1.40625 0.546875 -1.375 C 0.503906 -1.34375 0.484375 -1.296875 0.484375 -1.234375 C 0.484375 -1.191406 0.492188 -1.15625 0.515625 -1.125 C 0.535156 -1.101562 0.5625 -1.082031 0.59375 -1.0625 C 0.632812 -1.039062 0.710938 -1.015625 0.828125 -0.984375 C 0.984375 -0.953125 1.101562 -0.910156 1.1875 -0.859375 C 1.269531 -0.816406 1.328125 -0.765625 1.359375 -0.703125 C 1.398438 -0.640625 1.421875 -0.566406 1.421875 -0.484375 Z "/>
</g>
<g id="glyph-0-3">
<path d="M 0.171875 0 L 0.171875 -1.640625 L 1.34375 -1.640625 L 1.34375 -1.375 L 0.53125 -1.375 L 0.53125 -0.96875 L 1.28125 -0.96875 L 1.28125 -0.6875 L 0.53125 -0.6875 L 0.53125 -0.28125 L 1.40625 -0.28125 L 1.40625 0 Z "/>
</g>
<g id="glyph-0-4">
<path d="M 1.09375 0 L 0.734375 -0.625 L 0.53125 -0.625 L 0.53125 0 L 0.171875 0 L 0.171875 -1.640625 L 0.765625 -1.640625 C 0.984375 -1.640625 1.144531 -1.597656 1.25 -1.515625 C 1.351562 -1.429688 1.40625 -1.3125 1.40625 -1.15625 C 1.40625 -1.039062 1.375 -0.941406 1.3125 -0.859375 C 1.257812 -0.785156 1.179688 -0.734375 1.078125 -0.703125 L 1.5 0 Z M 1.046875 -1.140625 C 1.046875 -1.222656 1.019531 -1.28125 0.96875 -1.3125 C 0.925781 -1.351562 0.847656 -1.375 0.734375 -1.375 L 0.53125 -1.375 L 0.53125 -0.90625 L 0.75 -0.90625 C 0.945312 -0.90625 1.046875 -0.984375 1.046875 -1.140625 Z "/>
</g>
</g>
</defs>
<g fill="rgb(100%, 0%, 20%)" fill-opacity="1">
<use xlink:href="#glyph-0-0" x="30" y="22.081055"/>
<use xlink:href="#glyph-0-1" x="32" y="22.081055"/>
<use xlink:href="#glyph-0-2" x="34" y="22.081055"/>
<use xlink:href="#glyph-0-3" x="36" y="22.081055"/>
<use xlink:href="#glyph-0-4" x="38" y="22.081055"/>
</g>
</svg>
